<svg width="36" height="36" viewBox="0 0 36 36" fill="none" xmlns="http://www.w3.org/2000/svg">
<g id="Country Icon" filter="url(#filter0_di_1204_2337)">
<g clip-path="url(#clip0_1204_2337)">
<path id="Vector" d="M6.75 14C6.75 18.9124 9.9 23.0749 14.25 24.6124V3.38745C9.9 4.92495 6.75 9.08745 6.75 14Z" fill="#ED4C5C"/>
<path id="Vector_2" d="M18 2.75C16.6875 2.75 15.4125 2.975 14.25 3.3875V10.25H28.6125C27.075 5.9 22.9125 2.75 18 2.75Z" fill="#699635"/>
<path id="Vector_3" d="M28.6125 10.25H14.25V17.75H28.6125C29.025 16.5875 29.25 15.3125 29.25 14C29.25 12.6875 29.025 11.4125 28.6125 10.25Z" fill="#F9F9F9"/>
<path id="Vector_4" d="M14.25 17.75V24.6125C15.4125 25.025 16.6875 25.25 18 25.25C22.9125 25.25 27.075 22.1375 28.6125 17.75H14.25Z" fill="#3E4347"/>
</g>
<rect x="6.5" y="2.5" width="23" height="23" rx="11.5" stroke="white" shape-rendering="crispEdges"/>
</g>
<defs>
<filter id="filter0_di_1204_2337" x="0" y="0" width="36" height="36" filterUnits="userSpaceOnUse" color-interpolation-filters="sRGB">
<feFlood flood-opacity="0" result="BackgroundImageFix"/>
<feColorMatrix in="SourceAlpha" type="matrix" values="0 0 0 0 0 0 0 0 0 0 0 0 0 0 0 0 0 0 127 0" result="hardAlpha"/>
<feOffset dy="4"/>
<feGaussianBlur stdDeviation="3"/>
<feComposite in2="hardAlpha" operator="out"/>
<feColorMatrix type="matrix" values="0 0 0 0 0 0 0 0 0 0 0 0 0 0 0 0 0 0 0.12 0"/>
<feBlend mode="normal" in2="BackgroundImageFix" result="effect1_dropShadow_1204_2337"/>
<feBlend mode="normal" in="SourceGraphic" in2="effect1_dropShadow_1204_2337" result="shape"/>
<feColorMatrix in="SourceAlpha" type="matrix" values="0 0 0 0 0 0 0 0 0 0 0 0 0 0 0 0 0 0 127 0" result="hardAlpha"/>
<feOffset dy="4"/>
<feGaussianBlur stdDeviation="2"/>
<feComposite in2="hardAlpha" operator="arithmetic" k2="-1" k3="1"/>
<feColorMatrix type="matrix" values="0 0 0 0 0 0 0 0 0 0 0 0 0 0 0 0 0 0 0.16 0"/>
<feBlend mode="normal" in2="shape" result="effect2_innerShadow_1204_2337"/>
</filter>
<clipPath id="clip0_1204_2337">
<rect x="6" y="2" width="24" height="24" rx="12" fill="white"/>
</clipPath>
</defs>
</svg>
