<svg width="120" height="120" fill="none" xmlns="http://www.w3.org/2000/svg"><circle cx="60" cy="60" r="60" fill="#282827"/><path d="M112.693 42.966c-9.342-28.85-40.466-44.73-69.524-35.455-16.97 5.41-30.261 18.62-35.71 35.455l-.27.871h105.773l-.269-.871Zm-97.337-.464C23.863 17.995 50.756 4.968 75.44 13.4c13.757 4.708 24.571 15.444 29.312 29.103H15.356Zm90.84 0C97.619 17.208 70.019 3.605 44.542 12.121 30.119 16.94 18.796 28.183 13.94 42.502H9.044C18.64 14.51 49.269-.456 77.464 9.072c15.838 5.353 28.279 17.706 33.672 33.43h-4.954.014ZM106.635 75.624H7.205l.268.872c9.313 28.849 40.424 44.743 69.482 35.496 16.984-5.41 30.303-18.633 35.752-35.496l.283-.872h-6.355Zm-1.84 1.321c-8.506 24.508-35.399 37.535-60.097 29.089-13.758-4.708-24.571-15.43-29.299-29.089h89.396ZM60.069 113.23c-23.1.056-43.65-14.559-51.025-36.284h4.926c8.464 25.295 35.965 38.982 61.442 30.593 14.55-4.792 25.972-16.133 30.813-30.593h4.925c-7.388 21.74-27.954 36.34-51.053 36.284M9.412 55.95c2.067 0 3.751 1.659 3.751 3.71 0 2.052-1.67 3.724-3.75 3.724-2.067 0-3.737-1.658-3.737-3.71a3.732 3.732 0 0 1 3.736-3.724ZM110.768 55.978c2.067 0 3.751 1.658 3.737 3.724 0 2.052-1.67 3.71-3.751 3.71a3.723 3.723 0 0 1-3.736-3.724 3.726 3.726 0 0 1 3.75-3.724" fill="#CAB37A"/><path d="M43 94.06a.42.42 0 0 1 .085-.252l4.204-4.694c.198-.21.368-.45.495-.717.1-.239.156-.492.156-.745a1.165 1.165 0 0 0-.283-.829.993.993 0 0 0-.792-.323c-.312 0-.61.099-.836.31a1.77 1.77 0 0 0-.368 1.011c0 .14-.07.183-.198.155l-2.335-.366c-.113 0-.156-.084-.142-.21.014-.45.128-.9.326-1.307.198-.408.481-.787.82-1.082a3.494 3.494 0 0 1 1.232-.717 5.077 5.077 0 0 1 3.17 0c.454.154.878.407 1.232.717.34.309.609.702.779 1.124.183.435.268.9.268 1.363 0 .576-.099 1.138-.34 1.658-.254.492-.58.956-.962 1.35l-2.859 3.161h3.992c.113 0 .17.056.17.183v2.108c0 .084-.043.154-.128.168h-7.572c-.128 0-.184 0-.184-.168v-1.926l.07.029ZM52.836 93.85a2.222 2.222 0 0 1-.127-.435 4.862 4.862 0 0 1-.085-.633v-5.087c.014-.21.042-.407.085-.618.014-.155.057-.31.127-.45a3.615 3.615 0 0 1 1.36-1.869c1.514-.9 3.41-.9 4.939 0a3.808 3.808 0 0 1 1.387 1.87c.028.154.056.308.113.449 0 .21.043.407.085.618.043.324.043.66 0 .984v4.09c.014.21 0 .435-.085.632a3.738 3.738 0 0 1-1.486 2.318c-1.514.9-3.411.9-4.94 0a3.63 3.63 0 0 1-1.359-1.897m2.845-.506a1.08 1.08 0 0 0 1.402.562c.254-.112.453-.309.566-.562.028-.084.042-.168.07-.239v-5.69l-.07-.254a1.057 1.057 0 0 0-1.401-.548c-.255.099-.453.31-.567.548a1.622 1.622 0 0 0-.056.253v5.706c0 .084.028.168.056.238v-.014ZM62.462 94.06a.42.42 0 0 1 .085-.252l4.218-4.694c.198-.21.368-.45.48-.717.114-.239.17-.492.17-.745 0-.295-.084-.59-.282-.829a.961.961 0 0 0-.807-.323 1.091 1.091 0 0 0-.821.31 1.75 1.75 0 0 0-.382 1.011c0 .14 0 .183-.184.155l-2.265-.366a.156.156 0 0 1-.155-.154V87.4c.014-.45.127-.9.34-1.307a3.24 3.24 0 0 1 .82-1.082 3.495 3.495 0 0 1 1.231-.717 5.138 5.138 0 0 1 3.185 0c.453.154.864.407 1.217.717a3.321 3.321 0 0 1 1.062 2.487c0 .576-.113 1.138-.368 1.658-.24.492-.566.956-.963 1.35l-2.845 3.161h3.992c.085 0 .17.042.184.14V95.959a.167.167 0 0 1-.142.168h-7.544c-.07.014-.155-.028-.17-.112v-.056l-.056-1.912v.014ZM75.37 87.485l-2.024 1.335s-.099.014-.141 0c-.057-.028-.071-.085-.071-.14v-2.545c0-.098.042-.182.127-.252l2.152-1.504a.578.578 0 0 1 .34-.112H78.2a.16.16 0 0 1 .184.126V96c0 .113 0 .17-.184.17h-2.59c-.085 0-.156-.043-.17-.127V96l-.043-8.53-.028.015ZM49.37 49.135h.89v8.179h-.877v-8.179h-.014ZM58.47 53.772v3.555h-.82v-3.499a1.718 1.718 0 0 0-1.459-1.953 2.011 2.011 0 0 0-.41 0 2.036 2.036 0 0 0-2.18 1.869v3.625h-.82v-6.197h.792v1.125a2.611 2.611 0 0 1 2.364-1.125c1.302-.112 2.448.844 2.547 2.136v.45M60.141 54.208c-.056-1.672 1.274-3.078 2.959-3.12h.226a2.714 2.714 0 0 1 2.42 1.209l-.622.436a2.116 2.116 0 0 0-1.798-.928c-1.245-.056-2.307.913-2.35 2.15v.253a2.253 2.253 0 0 0 2.124 2.375h.226a2.059 2.059 0 0 0 1.798-.9l.622.436a2.73 2.73 0 0 1-2.42 1.209c-1.67.084-3.086-1.18-3.17-2.825v-.295M72.683 54.503h-5.18c.056 1.237 1.117 2.193 2.363 2.136h.085a2.486 2.486 0 0 0 1.896-.815l.468.534c-1.232 1.307-3.298 1.392-4.615.169a3.28 3.28 0 0 1-1.047-2.29c-.1-1.63 1.16-3.022 2.788-3.12h.24a2.912 2.912 0 0 1 3.002 2.852v.534Zm-5.18-.604h4.415a2.173 2.173 0 0 0-2.279-2.094c-1.146.042-2.08.956-2.108 2.094H67.502ZM80.114 53.772v3.555h-.835v-3.499a1.718 1.718 0 0 0-1.458-1.953 2.011 2.011 0 0 0-.41 0 2.038 2.038 0 0 0-2.18 1.883V57.369h-.835v-6.197h.792v1.124a2.587 2.587 0 0 1 2.35-1.124 2.37 2.37 0 0 1 2.562 2.586M85.646 56.949c-.368.295-.835.45-1.316.435a1.637 1.637 0 0 1-1.812-1.447v-4.075h-1.132v-.703h1.132v-1.335h.835v1.335h1.897v.703h-1.883v3.681a.985.985 0 0 0 .821 1.125h.297c.34 0 .666-.113.935-.324l.24.59-.014.015ZM86.976 49.219a.624.624 0 0 1 .58-.647h.057a.6.6 0 0 1 .764.366.594.594 0 0 1-.368.758.636.636 0 0 1-.396 0 .59.59 0 0 1-.637-.477Zm.184 1.939h.835v6.155h-.835v-6.155ZM95.524 51.173l-2.76 6.155h-.85l-2.731-6.155h.863l2.265 5.242 2.35-5.242h.863ZM101.936 54.503h-5.18c.057 1.237 1.118 2.192 2.364 2.136h.085a2.408 2.408 0 0 0 1.882-.815l.467.534a3.042 3.042 0 0 1-2.392 1.012 3.077 3.077 0 0 1-3.27-2.853v-.295a2.977 2.977 0 0 1 2.832-3.12h.212c1.628-.028 2.972 1.251 3 2.853v.548Zm-5.18-.604h4.43a2.13 2.13 0 0 0-2.18-2.038 2.096 2.096 0 0 0-2.236 1.925c-.014.029-.014.07-.014.113Z" fill="#fff"/><path d="M56.659 67.783h-5.166l-1.133 2.431h-1.458l4.43-9.71h1.458l4.445 9.71h-1.472l-1.104-2.43Zm-.481-1.124-2.11-4.764-2.108 4.764h4.218ZM71.28 62.879l-2.76 7.335h-1.274l-2.123-5.62-2.18 5.62H61.67l-2.731-7.335h1.273l2.152 5.86 2.264-5.86h1.133l2.18 5.888 2.18-5.888h1.174-.014ZM78.257 65.787v4.426H76.97v-.97a2.73 2.73 0 0 1-2.42 1.054c-1.67 0-2.732-.885-2.732-2.164 0-1.278.75-2.164 2.973-2.164h2.137v-.253c0-1.124-.651-1.77-1.996-1.77-.849 0-1.67.28-2.335.787l-.552-.984a4.97 4.97 0 0 1 3.057-.928c2.01 0 3.156.97 3.156 2.98m-1.33 2.192v-1.026h-2.08c-1.331 0-1.7.52-1.7 1.124 0 .604.61 1.195 1.628 1.195.92.07 1.798-.45 2.152-1.307M84.712 62.808v1.278h-.326a2.18 2.18 0 0 0-2.35 1.982v.028a2.396 2.396 0 0 0 0 .45v3.667h-1.33v-7.335h1.274v1.237a2.857 2.857 0 0 1 2.732-1.307ZM93.275 59.942v10.273H92V69.09a3.095 3.095 0 0 1-2.618 1.251c-2.081-.126-3.666-1.911-3.539-3.977.113-1.897 1.642-3.4 3.539-3.513a3.13 3.13 0 0 1 2.576 1.124v-4.033h1.33-.014Zm-1.316 6.619a2.491 2.491 0 0 0-2.619-2.347c-1.373.07-2.434 1.237-2.364 2.6a2.481 2.481 0 0 0 2.492 2.347 2.436 2.436 0 0 0 2.49-2.361v-.24ZM94.873 69.44l.552-1.039a4.888 4.888 0 0 0 2.604.759c1.232 0 1.755-.365 1.755-.984 0-1.644-4.684-.225-4.684-3.148 0-1.32 1.132-2.248 3.085-2.248.934 0 1.854.21 2.675.66l-.566 1.04a3.905 3.905 0 0 0-2.123-.59c-1.132 0-1.741.408-1.741.998 0 1.728 4.685.31 4.685 3.19 0 1.32-1.217 2.164-3.199 2.164a5.268 5.268 0 0 1-3.043-.801Z" fill="#CAB37A"/><path d="M21.826 49.065h-3.892v21.177h3.892V49.065Z" fill="#fff"/><path d="M37.564 65.463h-7.53l-2.264 4.82h-4.275l8.407-17.607 1.742-3.654 1.783 3.611 8.775 17.636H39.97l-2.392-4.806h-.014Zm-5.775-3.611h3.935l-2.01-4.103-1.925 4.103Z" fill="#CAB37A"/><path d="M52.74 15.915s0-.07.042-.07h2.052c.439-.043.878.084 1.231.365.27.253.41.59.397.955 0 .225-.057.45-.17.647a1.048 1.048 0 0 1-.382.435c.198.085.368.225.48.394.142.21.213.464.2.717 0 .224-.043.435-.128.646a1.09 1.09 0 0 1-.368.435c-.156.127-.34.211-.538.253a2.12 2.12 0 0 1-.722.085h-1.996s-.085 0-.085-.07l-.042-4.806.028.014Zm1.853 1.91c.397 0 .595-.168.595-.505 0-.337-.198-.506-.595-.506h-.523v.927l.523.085Zm-.566 1.954h.595c.41 0 .608-.197.608-.562a.598.598 0 0 0-.141-.408.62.62 0 0 0-.467-.14h-.595v1.11ZM57.169 15.915s0-.084.07-.084h3.27s.071.042.071.07v.941s0 .057-.042.07h-2.024v.76h1.641s.057 0 .071.028V18.655s0 .056-.042.07h-1.67v.801h1.995s.057 0 .071.043v.97s0 .055-.042.07H57.24s-.057 0-.071-.043V15.901v.014ZM62.972 20.89a4.183 4.183 0 0 1-.595 0 3.73 3.73 0 0 1-.566-.155c-.17-.07-.325-.14-.481-.225-.127-.084-.255-.169-.368-.267v-.112l.651-.773h.1c.169.154.353.267.565.365.227.099.467.155.708.155a.924.924 0 0 0 .538-.127.413.413 0 0 0 .184-.337.313.313 0 0 0-.142-.253 1.272 1.272 0 0 0-.495-.155h-.255a2.36 2.36 0 0 1-1.245-.491 1.31 1.31 0 0 1-.425-1.082c0-.225.042-.436.141-.633a1.36 1.36 0 0 1 .368-.477c.17-.141.368-.253.58-.31a2.26 2.26 0 0 1 .75-.112c.34 0 .666.042.992.14.297.085.566.211.807.394a.085.085 0 0 1 0 .112l-.538.801s-.085.028-.114 0a2.342 2.342 0 0 0-.523-.28 1.392 1.392 0 0 0-.595-.085.696.696 0 0 0-.41.112.394.394 0 0 0-.142.295c0 .113.043.211.142.267.155.099.325.141.495.155h.255c.453.042.892.21 1.246.478.297.295.438.702.41 1.124 0 .21-.043.436-.128.632a1.54 1.54 0 0 1-.396.506c-.184.14-.41.253-.637.323-.283.057-.566.085-.849.057M66.553 20.79v-3.78h-1.26v-.984s-.014-.056 0-.084h3.85v.984H67.87v3.738h-1.132l-.184.126ZM40.495 29.49v-3.724h-1.246v-1.18h3.85v.983H41.81v3.92h-1.316ZM43.481 24.655s0-.084.071-.084h3.326s.071 0 .071.084v.928s0 .084-.07.084h-2.01v.759h1.641s.085 0 .085.07v.913s-.028.07-.07.07h-1.642v.886h2.01s.056 0 .07.042v1.082s0 .056-.028.07h-3.298s-.056.043-.099.029c0 0-.042-.057-.028-.099v-4.834h-.029ZM47.53 28.366c-.028-.085-.056-.17-.07-.253v-2.207a.57.57 0 0 1 .07-.253c.114-.365.355-.688.666-.913a2.25 2.25 0 0 1 2.265 0c.311.197.537.492.665.83a.068.068 0 0 1 0 .097l-.977.478s-.07.028-.099 0a1.07 1.07 0 0 0-.255-.365.677.677 0 0 0-.41-.127.57.57 0 0 0-.595.436V28.07c.071.267.312.464.595.436a.709.709 0 0 0 .41-.126c.1-.099.184-.225.255-.366a.069.069 0 0 1 .1 0l.976.436s.028.07 0 .098a1.75 1.75 0 0 1-.665.83 2.25 2.25 0 0 1-2.265 0 1.65 1.65 0 0 1-.665-1.026M51.62 24.655s.014-.07.057-.084h1.16s.071 0 .071.084v1.757h1.359v-1.757s0-.084.07-.084h1.133s.07.014.085.056V29.489s-.028.07-.07.07h-1.133s-.057 0-.07-.042v-1.855h-1.36v1.827s0 .056-.042.07H51.719s-.085 0-.085-.07v-4.82l-.014-.014ZM56.39 24.655s0-.084.071-.084h1.133s.113.028.141.084l1.486 2.797v-2.797s0-.084.071-.084h1.033s.071.014.085.056v4.848s-.028.07-.07.07H59.22s-.099-.014-.127-.07l-1.486-2.796v2.796s0 .056-.043.07h-1.061s-.057 0-.07-.042v-.028l-.03-4.82h-.013ZM63 29.616c-.396 0-.792-.098-1.132-.31a1.63 1.63 0 0 1-.707-.913c-.071-.182-.1-.365-.071-.562v-1.868c0-.099.014-.197.07-.282.128-.38.369-.702.708-.913.34-.197.736-.31 1.133-.31.396 0 .792.1 1.132.31.34.21.595.534.722.913l.07.281v2.165l-.07.28c-.113.38-.382.703-.722.914-.34.197-.736.31-1.132.31m0-1.125a.857.857 0 0 0 .41-.113.676.676 0 0 0 .24-.323v-1.995a.676.676 0 0 0-.24-.323.857.857 0 0 0-.41-.113.857.857 0 0 0-.41.113.749.749 0 0 0-.227.323V28.056a.647.647 0 0 0 .226.323c.128.07.27.099.41.099v.028ZM65.634 24.655s0-.07.043-.084h1.16s.071.042.071.07v3.71h2.109s.057 0 .07.028v1.082s0 .056-.042.07H65.62s-.085 0-.085-.07l.085-4.834.014.028ZM71.547 29.616c-.396 0-.793-.098-1.132-.31a1.553 1.553 0 0 1-.722-.913l-.07-.28V25.962l.07-.282c.127-.38.382-.702.722-.913.34-.197.736-.31 1.132-.31.396 0 .793.1 1.132.31.326.225.567.548.694.927.014.099.042.183.07.281 0 .099.015.197.057.282v1.587c0 .099 0 .197-.056.282 0 .098-.043.182-.071.28a1.63 1.63 0 0 1-.708.914c-.34.197-.722.295-1.118.295Zm0-1.124a.858.858 0 0 0 .41-.113.749.749 0 0 0 .227-.323V26.075a.647.647 0 0 0-.227-.323.858.858 0 0 0-.41-.113.726.726 0 0 0-.41.113.676.676 0 0 0-.241.323V28.07a.676.676 0 0 0 .24.323c.128.07.27.113.411.099ZM74.195 28.365c-.028-.098-.056-.183-.085-.28v-2.151c0-.098.014-.197.085-.281a1.63 1.63 0 0 1 .708-.913c.34-.197.736-.31 1.132-.31.397 0 .793.085 1.133.296.297.182.523.45.665.758.028.028.028.07 0 .113l-.963.407s-.07.028-.099 0a.89.89 0 0 0-.297-.309.758.758 0 0 0-.425-.098.696.696 0 0 0-.41.112.647.647 0 0 0-.227.323V27.985a.616.616 0 0 0 .241.324c.269.14.595.14.863 0a.453.453 0 0 0 .241-.31.574.574 0 0 0 0-.308h-.538s-.07-.028-.07-.07v-.773s0-.07.07-.07h1.784s.07.041.07.07v.365c.015.21.015.421 0 .632 0 .169-.042.352-.099.52a1.668 1.668 0 0 1-.693.942 2.16 2.16 0 0 1-1.133.323c-.396 0-.792-.098-1.132-.31a1.56 1.56 0 0 1-.807-.983M79.758 29.49s-.057.014-.071 0v-1.841l-1.5-2.966s0-.084.056-.084h1.132s.1.028.128.084l.835 1.687.807-1.687s.07-.084.127-.084h1.132s.085 0 .071.084l-1.514 2.965v1.841s0 .057-.029.07h-.028l-1.132-.07h-.014ZM44.67 38.273s-.071-.028-.071-.07V33.41s0-.085.07-.085h2.01c.27 0 .538.043.807.127.212.084.41.21.58.365.156.14.283.324.368.52.085.211.114.436.114.66 0 .226-.043.45-.114.661-.085.197-.212.38-.368.52-.17.155-.368.281-.58.365a2.525 2.525 0 0 1-.793.127h-.721v1.532s0 .07-.071.07l-1.217.028-.015-.028Zm1.924-2.74c.17.014.34-.043.482-.155a.61.61 0 0 0 .155-.407c0-.155-.042-.31-.155-.408a.746.746 0 0 0-.482-.14h-.65v1.025l.65.085ZM51.72 38.273s-.1-.028-.114-.084l-.75-1.686h-.481v1.644s0 .07-.07.07h-1.133s-.07-.028-.085-.07v-4.792s.028-.084.07-.084h2.039c.255 0 .523.042.764.126a1.39 1.39 0 0 1 .906.83c.085.196.127.42.127.646 0 .295-.07.576-.212.829a1.35 1.35 0 0 1-.608.548l.92 1.897v.07l-1.388.056h.014Zm-.651-2.824a.525.525 0 0 0 .424-.14.444.444 0 0 0 .156-.38.54.54 0 0 0-.156-.38.671.671 0 0 0-.425-.14h-.693v.955l.694.085ZM55.485 38.37c-.396 0-.793-.098-1.132-.309a1.6 1.6 0 0 1-.708-.899 1.64 1.64 0 0 1-.07-.281V34.731c.013-.099.042-.183.07-.281.113-.38.368-.703.708-.914.34-.196.736-.309 1.132-.309.396 0 .793.099 1.132.31.354.196.609.533.722.913l.07.28v2.165l-.07.281c-.127.38-.382.703-.722.9-.34.21-.736.309-1.132.294Zm0-1.124a.726.726 0 0 0 .41-.112.676.676 0 0 0 .241-.323v-1.982a.61.61 0 0 0-.637-.435.6.6 0 0 0-.637.435v1.982a.749.749 0 0 0 .227.323c.127.07.269.112.41.098l-.014.014ZM59.32 38.273s-.085 0-.099-.085l-1.585-4.791v-.085h1.203s.085.028.085.085l.891 2.979.864-2.98s0-.084.099-.084h1.132s.071 0 .071.085l-1.6 4.791s-.056.085-.099.085h-.962ZM62.519 33.397s0-.085.07-.085h1.133s.07.014.085.056v4.82s-.015.07-.057.085h-1.147s-.07 0-.07-.085v-4.791h-.014ZM64.543 33.395s.014-.07.057-.084h1.953a2.12 2.12 0 0 1 1.132.281c.311.197.538.492.651.843l.071.24V36.837l-.07.24c-.1.35-.326.66-.652.856a2.12 2.12 0 0 1-1.132.282h-1.925s-.07 0-.085-.043v-4.778Zm1.302 3.696h.396c.184 0 .368-.028.524-.112a.61.61 0 0 0 .283-.365V34.885a.61.61 0 0 0-.283-.365.983.983 0 0 0-.524-.113h-.396v2.684ZM69.1 33.397s.042-.085.085-.085h3.27s.07.028.07.07v.928s0 .084-.07.084h-1.997v.76H72.1s.071.013.085.055v1.026s-.014.07-.056.084h-1.67v.787h1.995s.07.029.07.07v.928s0 .084-.07.084h-3.27s-.084-.042-.084-.084v-4.721.014ZM75.794 38.273s-.099-.028-.113-.084l-.75-1.686h-.467v1.644s-.014.07-.057.07h-1.16s-.071-.042-.071-.07v-4.792s0-.084.07-.084h2.039c.255 0 .51.042.764.126.212.056.41.169.566.323.156.14.283.31.368.506a1.85 1.85 0 0 1-.085 1.476 1.35 1.35 0 0 1-.608.548l.92 1.897s.014.042 0 .07h-.057l-1.345.056h-.014Zm-.65-2.824a.71.71 0 0 0 .438-.14.541.541 0 0 0 .156-.38.487.487 0 0 0-.156-.38.71.71 0 0 0-.439-.14h-.68v.955l.68.085Z" fill="#fff"/></svg>