<svg width="384" height="384" viewBox="0 0 384 384" fill="none" xmlns="http://www.w3.org/2000/svg">
<g filter="url(#filter0_b_5_60)">
<rect x="87" y="42" width="246" height="294" rx="16" fill="url(#paint0_linear_5_60)" fill-opacity="0.04"/>
<rect x="87.5" y="42.5" width="245" height="293" rx="15.5" stroke="url(#paint1_linear_5_60)" stroke-opacity="0.64"/>
<g filter="url(#filter1_bd_5_60)">
<rect x="208" y="50" width="117" height="40" rx="20" fill="url(#paint2_linear_5_60)" fill-opacity="0.04" shape-rendering="crispEdges"/>
<rect x="208.5" y="50.5" width="116" height="39" rx="19.5" stroke="url(#paint3_linear_5_60)" stroke-opacity="0.64" shape-rendering="crispEdges"/>
<path d="M233.404 75L230.828 66.782V75H229.092V64.85H231.85L234.314 72.942L236.764 64.85H239.522V75H237.786V66.782L235.21 75H233.404ZM242.383 77.45L243.335 74.804L240.689 67.608H242.509L244.217 72.872L245.925 67.608H247.633L244.091 77.45H242.383ZM252.02 64.85H255.842C258.278 64.85 259.496 65.7133 259.496 67.44C259.496 67.8973 259.384 68.3267 259.16 68.728C258.945 69.1293 258.679 69.4233 258.362 69.61C259.379 70.0673 259.888 70.8607 259.888 71.99C259.888 73.0167 259.538 73.7773 258.838 74.272C258.138 74.7573 257.223 75 256.094 75H252.02V64.85ZM253.798 69.092H256.01C257.13 69.092 257.69 68.6067 257.69 67.636C257.69 67.1973 257.536 66.8613 257.228 66.628C256.929 66.3947 256.523 66.278 256.01 66.278H253.798V69.092ZM253.798 73.572H256.164C257.424 73.572 258.054 73.0447 258.054 71.99C258.054 70.9633 257.391 70.45 256.066 70.45H253.798V73.572ZM263.748 75.182C262.927 75.182 262.255 74.972 261.732 74.552C261.219 74.132 260.962 73.586 260.962 72.914C260.962 72.2047 261.247 71.668 261.816 71.304C262.386 70.94 263.212 70.688 264.294 70.548L265.176 70.422C265.503 70.366 265.727 70.282 265.848 70.17C265.97 70.0487 266.03 69.876 266.03 69.652C266.03 69.316 265.895 69.0593 265.624 68.882C265.363 68.7047 264.994 68.616 264.518 68.616C264.014 68.616 263.618 68.7327 263.328 68.966C263.039 69.19 262.885 69.526 262.866 69.974L261.242 69.806C261.345 69.078 261.69 68.4947 262.278 68.056C262.866 67.608 263.604 67.384 264.49 67.384C266.665 67.384 267.734 68.434 267.696 70.534C267.696 70.6367 267.692 70.9167 267.682 71.374C267.673 71.822 267.668 72.172 267.668 72.424C267.668 73.4693 267.743 74.328 267.892 75H266.352C266.278 74.5427 266.231 74.1833 266.212 73.922C265.755 74.762 264.934 75.182 263.748 75.182ZM266.058 71.724V71.374C265.928 71.4113 265.484 71.4953 264.728 71.626C264.028 71.7287 263.52 71.878 263.202 72.074C262.885 72.27 262.726 72.536 262.726 72.872C262.726 73.1893 262.852 73.446 263.104 73.642C263.356 73.838 263.692 73.936 264.112 73.936C265.41 73.936 266.058 73.1987 266.058 71.724ZM271.184 75H269.518V64.85H271.184V75ZM275.534 75.182C274.712 75.182 274.04 74.972 273.518 74.552C273.004 74.132 272.748 73.586 272.748 72.914C272.748 72.2047 273.032 71.668 273.602 71.304C274.171 70.94 274.997 70.688 276.08 70.548L276.962 70.422C277.288 70.366 277.512 70.282 277.634 70.17C277.755 70.0487 277.816 69.876 277.816 69.652C277.816 69.316 277.68 69.0593 277.41 68.882C277.148 68.7047 276.78 68.616 276.303 68.616C275.8 68.616 275.403 68.7327 275.114 68.966C274.824 69.19 274.67 69.526 274.652 69.974L273.028 69.806C273.13 69.078 273.476 68.4947 274.064 68.056C274.652 67.608 275.389 67.384 276.276 67.384C278.45 67.384 279.519 68.434 279.482 70.534C279.482 70.6367 279.477 70.9167 279.468 71.374C279.458 71.822 279.454 72.172 279.454 72.424C279.454 73.4693 279.528 74.328 279.678 75H278.138C278.063 74.5427 278.016 74.1833 277.998 73.922C277.54 74.762 276.719 75.182 275.534 75.182ZM277.844 71.724V71.374C277.713 71.4113 277.27 71.4953 276.514 71.626C275.814 71.7287 275.305 71.878 274.988 72.074C274.67 72.27 274.512 72.536 274.512 72.872C274.512 73.1893 274.638 73.446 274.89 73.642C275.142 73.838 275.478 73.936 275.898 73.936C277.195 73.936 277.844 73.1987 277.844 71.724ZM282.969 68.658C283.417 67.846 284.178 67.44 285.251 67.44C286.959 67.44 287.813 68.4293 287.813 70.408V75H286.147V70.814C286.147 70.5807 286.138 70.38 286.119 70.212C286.1 70.0347 286.063 69.8527 286.007 69.666C285.951 69.4793 285.872 69.33 285.769 69.218C285.676 69.0967 285.536 68.9987 285.349 68.924C285.172 68.84 284.962 68.798 284.719 68.798C283.552 68.798 282.969 69.5773 282.969 71.136V75H281.303V67.608H282.969V68.658ZM296.082 69.82L294.542 70.156C294.458 69.7547 294.266 69.4327 293.968 69.19C293.669 68.9473 293.277 68.826 292.792 68.826C292.232 68.826 291.774 69.0313 291.42 69.442C291.074 69.8527 290.902 70.4733 290.902 71.304C290.902 72.1347 291.074 72.76 291.42 73.18C291.774 73.5907 292.232 73.796 292.792 73.796C293.79 73.796 294.392 73.348 294.598 72.452L296.138 72.788C295.914 73.544 295.494 74.132 294.878 74.552C294.262 74.972 293.557 75.182 292.764 75.182C291.672 75.182 290.799 74.8227 290.146 74.104C289.502 73.376 289.18 72.4473 289.18 71.318C289.18 70.1887 289.506 69.26 290.16 68.532C290.822 67.804 291.714 67.44 292.834 67.44C293.618 67.44 294.304 67.6547 294.892 68.084C295.48 68.5133 295.876 69.092 296.082 69.82ZM300.832 67.44C301.989 67.44 302.89 67.8413 303.534 68.644C304.187 69.4373 304.476 70.4733 304.402 71.752H298.872C298.89 72.396 299.096 72.9 299.488 73.264C299.889 73.6187 300.365 73.796 300.916 73.796C301.849 73.796 302.46 73.4413 302.75 72.732L304.276 73.04C304.042 73.684 303.641 74.202 303.072 74.594C302.502 74.986 301.788 75.182 300.93 75.182C299.744 75.182 298.82 74.8087 298.158 74.062C297.504 73.306 297.178 72.368 297.178 71.248C297.178 70.128 297.514 69.2133 298.186 68.504C298.867 67.7947 299.749 67.44 300.832 67.44ZM298.872 70.534H302.708C302.689 69.9833 302.502 69.5493 302.148 69.232C301.793 68.9053 301.354 68.742 300.832 68.742C300.346 68.742 299.912 68.8913 299.53 69.19C299.147 69.4793 298.928 69.9273 298.872 70.534Z" fill="white"/>
</g>
<g filter="url(#filter2_di_5_60)">
<rect x="45.8653" y="109.861" width="240" height="160" rx="16" transform="rotate(2 45.8653 109.861)" fill="url(#paint4_linear_5_60)"/>
<rect x="46.3475" y="110.378" width="239" height="159" rx="15.5" transform="rotate(2 46.3475 110.378)" stroke="url(#paint5_linear_5_60)"/>
<path d="M80.6071 131.074C75.9619 130.911 72.3645 134.196 72.2067 138.713C72.049 143.231 75.463 146.754 80.1461 146.918C81.9098 146.98 83.5921 146.569 85.0182 145.719C86.3444 144.925 87.3945 143.794 88.0613 142.437L84.572 142.315C83.6714 143.522 82.0441 144.224 80.3075 144.163C77.8384 144.077 75.9754 142.506 75.5465 140.161L75.5092 139.985L88.3757 140.435C88.4363 140.098 88.4746 139.625 88.4856 139.309L88.4965 139.309C88.6548 134.776 85.2685 131.236 80.6125 131.074L80.6071 131.074ZM75.618 137.49L75.6788 137.307C76.3638 135.116 78.2587 133.752 80.5162 133.831C82.7737 133.91 84.6435 135.443 85.132 137.637L85.1798 137.824L75.6235 137.49L75.618 137.49Z" fill="white"/>
<path d="M65.8292 134.48C65.1078 135.066 64.783 135.966 64.7512 136.876L64.4199 146.363L60.605 146.23L61.1574 130.411L64.8747 130.541L64.8033 132.584L65.1643 132.204C65.9146 131.412 67.4903 130.632 69.3136 130.696C70.8819 130.75 71.9539 131.17 72.9635 132.133L70.8947 135.208C70.2605 134.542 69.5177 134.031 68.5986 133.901C68.3282 133.864 68.0519 133.843 67.7747 133.845C67.0736 133.853 66.383 134.025 65.8292 134.48Z" fill="white"/>
<path d="M96.6867 147.49C100.768 147.633 103.805 145.753 103.901 143.012C103.981 140.712 101.993 139.142 97.8199 138.222C95.2148 137.673 93.9118 136.869 93.9481 135.828C93.9844 134.787 95.3247 134.059 97.0721 134.12C98.8195 134.181 100.216 135.108 100.175 136.269L100.173 136.345L103.787 136.471L103.79 136.395C103.88 133.801 101.04 131.743 97.1869 131.609C93.334 131.474 90.413 133.282 90.3215 135.903C90.2429 138.154 92.2921 139.84 96.0885 140.66C98.9201 141.256 100.283 142.067 100.245 143.135C100.206 144.258 98.7385 145.057 96.8337 144.991C94.929 144.924 93.3244 143.886 93.3682 142.633L93.3708 142.557L89.7567 142.43L89.754 142.507C89.6595 145.215 92.6435 147.36 96.6917 147.501" fill="white"/>
<path d="M124.455 145.486C123.418 145.45 122.582 145.301 122.694 143.493L123.075 132.557L119.706 132.439L119.6 135.452L119.357 135.122C118.044 133.341 116.043 132.311 113.725 132.23L113.715 132.23C109.129 132.07 105.548 135.349 105.39 139.867C105.233 144.384 108.576 147.911 113.161 148.071C115.549 148.154 117.735 147.167 119.151 145.377L119.333 145.144L119.399 145.43C119.781 147.074 121.171 148.345 123.44 148.424L124.34 148.456L124.444 145.486L124.455 145.486ZM113.623 145.108C110.812 145.01 108.765 142.805 108.864 139.982C108.962 137.16 111.158 135.109 113.969 135.207C116.78 135.305 118.795 137.508 118.697 140.326C118.598 143.143 116.424 145.206 113.623 145.108Z" fill="white"/>
<path d="M138.185 145.164C138.185 145.164 136.957 146.108 135.478 145.98C134.427 145.889 134.219 145.62 134.219 145.62C134.219 145.62 137.814 142.112 138.244 136.022C138.593 131.151 135.892 129.152 133.254 128.929C130.589 128.7 127.63 130.49 127.056 134.954C126.295 140.88 129.649 145.351 129.649 145.351C129.649 145.351 129.037 145.766 127.087 145.578L126.983 148.548C126.983 148.548 130.012 148.785 131.758 147.64C132.487 148.244 133.83 149.142 136.058 148.996C137.964 148.871 139.597 147.837 139.597 147.837L138.18 145.158L138.185 145.164ZM132.091 143.549C131.311 142.398 130.298 139.667 130.41 136.463C130.478 134.512 131.083 132.443 132.961 132.64C134.742 132.822 134.942 134.891 134.696 136.792C134.284 140.024 133.116 142.526 132.086 143.554L132.091 143.549Z" fill="white"/>
<path d="M69.48 214.599L70.9771 214.651L68.0904 224.707L66.3555 224.646L64.6879 216.239L62.4798 224.511L60.7449 224.45L58.5247 214.216L60.0917 214.271L61.753 222.86L63.9254 214.405L65.6044 214.464L67.3076 223.054L69.48 214.599ZM76.2822 224.993C76.2386 224.636 76.2188 224.267 76.2229 223.884C75.6892 224.724 74.8161 225.124 73.6035 225.081C73.1091 225.064 72.6693 224.955 72.2841 224.755C71.8988 224.555 71.6001 224.283 71.388 223.939C71.1759 223.596 71.0773 223.209 71.0923 222.78C71.1177 222.053 71.4394 221.532 72.0574 221.217C72.6851 220.893 73.5802 220.668 74.7427 220.54L75.615 220.431C75.8498 220.392 76.0203 220.323 76.1265 220.224C76.2424 220.116 76.3044 219.946 76.3125 219.712C76.3252 219.349 76.1766 219.059 75.8666 218.842C75.557 218.617 75.1456 218.495 74.6326 218.477C74.0543 218.457 73.6067 218.572 73.2897 218.822C72.9821 219.073 72.806 219.436 72.7614 219.911L71.4632 219.781C71.5274 219.279 71.7106 218.847 72.0128 218.484C72.3243 218.121 72.7118 217.854 73.1754 217.684C73.6393 217.504 74.1417 217.423 74.6827 217.442C75.7181 217.478 76.4657 217.733 76.9254 218.207C77.3855 218.671 77.5925 219.43 77.5463 220.484L77.4727 222.19C77.4227 223.356 77.4549 224.305 77.5694 225.038L76.2822 224.993ZM75.6035 223.568C76.0556 223.192 76.2978 222.542 76.33 221.618L76.3417 221.282C76.1815 221.324 75.984 221.363 75.7492 221.402C75.524 221.431 75.3598 221.454 75.2566 221.469L74.8764 221.525C74.0223 221.645 73.4147 221.797 73.0534 221.98C72.7017 222.155 72.5191 222.438 72.5054 222.83C72.4927 223.193 72.613 223.492 72.8664 223.725C73.1201 223.948 73.4708 224.068 73.9185 224.084C74.5994 224.107 75.1611 223.936 75.6035 223.568ZM79.463 225.104L79.8172 214.96L81.0904 215.004L80.7362 225.148L79.463 225.104ZM82.8925 225.223L83.2468 215.08L84.52 215.124L84.1658 225.268L82.8925 225.223ZM87.3044 222.086C87.2884 222.543 87.372 222.956 87.5552 223.327C87.7387 223.688 88.0043 223.973 88.3519 224.181C88.6995 224.39 89.0878 224.501 89.5169 224.516C90.5243 224.551 91.2245 224.156 91.6176 223.329L92.8241 223.679C92.5498 224.314 92.1216 224.808 91.5396 225.161C90.9672 225.505 90.266 225.663 89.4358 225.634C88.6616 225.607 88.0052 225.416 87.4666 225.061C86.928 224.706 86.5289 224.234 86.2693 223.646C86.019 223.059 85.9065 222.401 85.9319 221.673C85.9583 220.918 86.1353 220.261 86.463 219.703C86.791 219.135 87.2357 218.702 87.7971 218.404C88.3585 218.107 88.9844 217.97 89.6746 217.994C90.3928 218.019 91.0074 218.204 91.5184 218.548C92.0293 218.893 92.4146 219.36 92.6743 219.948C92.9342 220.526 93.0517 221.175 93.0266 221.893C93.0207 222.061 93.0115 222.191 92.9989 222.284L87.3044 222.086ZM89.6365 219.085C89.0022 219.063 88.4784 219.222 88.0649 219.563C87.6514 219.903 87.4153 220.38 87.3565 220.995L91.6938 221.146C91.6944 220.595 91.5148 220.122 91.155 219.726C90.7956 219.322 90.2894 219.108 89.6365 219.085ZM96.4792 216.466L96.4132 218.355L97.8404 218.405L97.8047 219.426L96.3776 219.377L96.2315 223.56C96.2201 223.886 96.2258 224.125 96.2485 224.275C96.2713 224.425 96.328 224.539 96.4187 224.617C96.5097 224.686 96.6578 224.724 96.863 224.731C97.1148 224.74 97.3815 224.725 97.663 224.689L97.6273 225.71C97.2046 225.779 96.844 225.809 96.5456 225.798C95.9206 225.776 95.4922 225.607 95.2605 225.291C95.0287 224.975 94.9262 224.434 94.9529 223.669L95.1043 219.332L93.9151 219.291L93.9507 218.269L95.14 218.311L95.206 216.422L96.4792 216.466ZM106.633 215.896C107.715 215.934 108.572 216.151 109.202 216.546C109.842 216.933 110.146 217.593 110.114 218.525C110.097 219.01 109.979 219.45 109.759 219.844C109.55 220.238 109.268 220.532 108.916 220.725C109.927 221.19 110.412 222.01 110.371 223.185C110.336 224.202 109.974 224.946 109.285 225.417C108.605 225.879 107.72 226.09 106.629 226.052L102.627 225.913L102.982 215.769L106.633 215.896ZM106.706 220.241C107.974 220.286 108.628 219.762 108.666 218.671C108.683 218.167 108.524 217.788 108.187 217.534C107.86 217.27 107.403 217.128 106.815 217.107L104.367 217.022L104.257 220.156L106.706 220.241ZM106.685 224.85C107.403 224.875 107.945 224.744 108.31 224.458C108.684 224.163 108.881 223.726 108.902 223.148C108.922 222.56 108.755 222.125 108.401 221.842C108.047 221.558 107.487 221.403 106.722 221.377L104.218 221.289L104.096 224.759L106.685 224.85ZM116.617 226.401C116.573 226.045 116.554 225.675 116.558 225.292C116.024 226.133 115.151 226.532 113.938 226.49C113.444 226.472 113.004 226.364 112.619 226.163C112.234 225.963 111.935 225.691 111.723 225.348C111.511 225.004 111.412 224.618 111.427 224.189C111.452 223.461 111.774 222.94 112.392 222.625C113.02 222.302 113.915 222.076 115.077 221.949L115.95 221.839C116.185 221.801 116.355 221.732 116.461 221.633C116.577 221.525 116.639 221.354 116.647 221.121C116.66 220.757 116.511 220.467 116.201 220.251C115.892 220.025 115.48 219.904 114.967 219.886C114.389 219.865 113.941 219.981 113.625 220.231C113.317 220.482 113.141 220.844 113.096 221.319L111.798 221.19C111.862 220.688 112.045 220.255 112.348 219.892C112.659 219.529 113.047 219.263 113.51 219.092C113.974 218.912 114.477 218.832 115.018 218.851C116.053 218.887 116.8 219.142 117.26 219.615C117.72 220.08 117.927 220.839 117.881 221.893L117.808 223.599C117.757 224.765 117.79 225.714 117.904 226.446L116.617 226.401ZM115.938 224.977C116.39 224.6 116.633 223.95 116.665 223.027L116.677 222.691C116.516 222.732 116.319 222.772 116.084 222.81C115.859 222.84 115.695 222.862 115.591 222.877L115.211 222.934C114.357 223.054 113.749 223.205 113.388 223.389C113.037 223.563 112.854 223.846 112.84 224.238C112.827 224.602 112.948 224.9 113.201 225.133C113.455 225.357 113.806 225.476 114.253 225.492C114.934 225.516 115.496 225.344 115.938 224.977ZM119.798 226.512L120.152 216.368L121.425 216.413L121.071 226.557L119.798 226.512ZM128.012 226.799C127.969 226.443 127.949 226.073 127.953 225.69C127.419 226.531 126.546 226.93 125.334 226.888C124.839 226.87 124.4 226.762 124.014 226.561C123.629 226.361 123.33 226.089 123.118 225.746C122.906 225.402 122.807 225.016 122.822 224.587C122.848 223.859 123.17 223.338 123.788 223.023C124.415 222.7 125.31 222.474 126.473 222.347L127.345 222.237C127.58 222.199 127.751 222.13 127.857 222.031C127.973 221.923 128.035 221.752 128.043 221.519C128.055 221.155 127.907 220.865 127.597 220.649C127.287 220.423 126.876 220.301 126.363 220.284C125.784 220.263 125.337 220.378 125.02 220.629C124.712 220.88 124.536 221.242 124.492 221.717L123.193 221.588C123.258 221.086 123.441 220.653 123.743 220.29C124.054 219.927 124.442 219.661 124.906 219.49C125.369 219.31 125.872 219.23 126.413 219.249C127.448 219.285 128.196 219.54 128.656 220.013C129.116 220.478 129.323 221.237 129.277 222.29L129.203 223.997C129.153 225.163 129.185 226.112 129.3 226.844L128.012 226.799ZM127.334 225.375C127.786 224.998 128.028 224.348 128.06 223.425L128.072 223.089C127.912 223.13 127.714 223.17 127.479 223.208C127.254 223.238 127.09 223.26 126.987 223.275L126.607 223.332C125.753 223.452 125.145 223.603 124.784 223.787C124.432 223.961 124.249 224.244 124.236 224.636C124.223 225 124.343 225.298 124.597 225.531C124.85 225.755 125.201 225.874 125.649 225.89C126.33 225.914 126.891 225.742 127.334 225.375ZM132.683 220.756C133.225 219.935 134.051 219.543 135.161 219.582C136.812 219.64 137.604 220.634 137.537 222.565L137.377 227.126L136.104 227.082L136.25 222.898C136.274 222.208 136.181 221.672 135.97 221.291C135.769 220.902 135.337 220.695 134.675 220.672C134.05 220.65 133.553 220.847 133.183 221.264C132.824 221.672 132.63 222.272 132.602 223.065L132.466 226.955L131.193 226.91L131.449 219.579L132.722 219.623L132.683 220.756ZM144.484 222.555C144.406 222.095 144.205 221.719 143.879 221.428C143.553 221.136 143.138 220.981 142.634 220.964C142.019 220.942 141.502 221.158 141.085 221.61C140.668 222.053 140.444 222.704 140.414 223.562C140.384 224.429 140.561 225.108 140.945 225.598C141.33 226.087 141.83 226.343 142.446 226.365C142.968 226.383 143.397 226.258 143.733 225.989C144.079 225.712 144.321 225.356 144.457 224.922L145.692 225.273C145.472 225.938 145.061 226.479 144.458 226.897C143.865 227.315 143.167 227.51 142.364 227.482C141.646 227.457 141.032 227.272 140.521 226.928C140.01 226.574 139.625 226.103 139.365 225.515C139.115 224.927 139.003 224.264 139.028 223.528C139.054 222.809 139.221 222.166 139.53 221.598C139.839 221.03 140.27 220.592 140.823 220.284C141.375 219.967 142.02 219.822 142.757 219.847C143.559 219.875 144.218 220.127 144.734 220.603C145.259 221.079 145.59 221.641 145.726 222.291L144.484 222.555ZM148.312 224.216C148.296 224.673 148.38 225.087 148.563 225.457C148.746 225.819 149.012 226.104 149.36 226.312C149.707 226.52 150.096 226.632 150.525 226.647C151.532 226.682 152.232 226.286 152.625 225.459L153.832 225.81C153.558 226.444 153.129 226.938 152.547 227.292C151.975 227.636 151.274 227.793 150.444 227.765C149.669 227.737 149.013 227.546 148.474 227.191C147.936 226.836 147.537 226.365 147.277 225.777C147.027 225.189 146.914 224.531 146.94 223.804C146.966 223.048 147.143 222.391 147.471 221.833C147.799 221.266 148.243 220.833 148.805 220.535C149.366 220.237 149.992 220.1 150.682 220.124C151.401 220.149 152.015 220.334 152.526 220.679C153.037 221.024 153.422 221.49 153.682 222.078C153.942 222.657 154.059 223.305 154.034 224.024C154.028 224.191 154.019 224.322 154.007 224.415L148.312 224.216ZM150.644 221.216C150.01 221.193 149.486 221.353 149.073 221.693C148.659 222.033 148.423 222.511 148.364 223.125L152.702 223.277C152.702 222.726 152.523 222.252 152.163 221.857C151.803 221.452 151.297 221.238 150.644 221.216Z" fill="#E5E5EB"/>
<path d="M71.3607 235.035C71.2999 236.778 70.5473 238.385 69.1031 239.855C67.6749 241.326 65.566 242.805 62.7764 244.293L71.0993 244.584L70.9863 247.822L57.6264 247.355L57.7395 244.117L59.0913 243.228C61.0102 241.918 62.4956 240.873 63.5474 240.093C64.5999 239.298 65.4929 238.48 66.2266 237.641C66.9609 236.786 67.3423 235.951 67.3708 235.136C67.3959 234.416 67.183 233.864 66.7322 233.48C66.2978 233.081 65.7289 232.869 65.0253 232.845C64.2098 232.816 63.5202 233.08 62.9564 233.637C62.3932 234.177 62.1132 235.088 62.1165 236.369L58.2237 235.753C58.2992 234.507 58.6487 233.438 59.2722 232.548C59.8962 231.641 60.7203 230.965 61.7444 230.521C62.7846 230.077 63.9522 229.877 65.2474 229.922C66.4627 229.965 67.5351 230.202 68.4645 230.635C69.4105 231.052 70.1345 231.638 70.6365 232.392C71.1545 233.147 71.3959 234.028 71.3607 235.035ZM73.1464 239.156C73.2447 236.342 73.9608 234.173 75.2948 232.651C76.6293 231.112 78.5038 230.385 80.9183 230.47C83.3169 230.553 85.1281 231.409 86.352 233.037C87.5765 234.649 88.1396 236.862 88.0414 239.676C87.9425 242.506 87.2256 244.699 85.8905 246.253C84.5555 247.807 82.6887 248.543 80.2901 248.459C77.8756 248.374 76.0566 247.51 74.8333 245.867C73.6099 244.223 73.0476 241.986 73.1464 239.156ZM83.9878 239.534C84.0582 237.52 83.8069 236.006 83.2339 234.993C82.6774 233.965 81.8715 233.433 80.8161 233.396C79.7608 233.359 78.9117 233.834 78.2689 234.82C77.6266 235.79 77.2703 237.283 77.2 239.297C77.1285 241.344 77.3787 242.89 77.9506 243.934C78.5231 244.963 79.337 245.496 80.3923 245.533C81.4477 245.569 82.2888 245.094 82.9156 244.108C83.5589 243.106 83.9164 241.581 83.9878 239.534ZM90.3157 239.755C90.4139 236.941 91.1301 234.773 92.464 233.25C93.7985 231.712 95.673 230.985 98.0875 231.069C100.486 231.153 102.297 232.009 103.521 233.636C104.746 235.248 105.309 237.461 105.211 240.275C105.112 243.106 104.395 245.298 103.06 246.852C101.725 248.407 99.8579 249.142 97.4594 249.058C95.0448 248.974 93.2259 248.11 92.0025 246.466C90.7791 244.823 90.2168 242.586 90.3157 239.755ZM101.157 240.134C101.227 238.119 100.976 236.605 100.403 235.593C99.8466 234.565 99.0407 234.032 97.9854 233.996C96.93 233.959 96.0809 234.433 95.4381 235.419C94.7959 236.39 94.4396 237.882 94.3692 239.897C94.2977 241.944 94.5479 243.489 95.1198 244.534C95.6923 245.563 96.5062 246.095 97.5615 246.132C98.6169 246.169 99.458 245.694 100.085 244.707C100.728 243.705 101.086 242.181 101.157 240.134ZM117.494 242.89L117.265 249.438L113.164 249.295L113.771 231.905L120.463 232.139C122.973 232.226 124.902 232.686 126.25 233.518C127.598 234.349 128.237 235.772 128.166 237.787C128.085 240.106 126.894 241.665 124.593 242.465L128.634 249.835L123.813 249.666L120.276 242.987L117.494 242.89ZM117.614 239.436L120.325 239.531C121.428 239.569 122.28 239.463 122.881 239.212C123.483 238.944 123.797 238.435 123.823 237.683C123.85 236.932 123.564 236.41 122.965 236.117C122.384 235.808 121.549 235.635 120.462 235.597L117.752 235.502L117.614 239.436ZM134.736 235.807L130.779 235.669L130.889 232.503L134.847 232.641L134.736 235.807ZM134.264 250.031L130.282 249.892L130.724 237.228L134.706 237.367L134.264 250.031ZM140.507 250.177L136.125 237.417L140.467 237.568L142.567 245.494L145.384 237.74L149.629 237.888L142.324 254.515L138.679 254.388L140.507 250.177ZM158.115 241.931C158.149 240.955 157.463 240.443 156.056 240.394C155.368 240.37 154.811 240.511 154.384 240.816C153.973 241.122 153.725 241.585 153.639 242.207L149.979 241.791C150.118 241.011 150.463 240.303 151.014 239.666C151.58 239.029 152.318 238.534 153.227 238.182C154.152 237.83 155.206 237.675 156.389 237.716C158.308 237.783 159.732 238.257 160.662 239.138C161.593 240.003 162.009 241.386 161.91 243.288L161.771 245.901C161.722 246.844 161.704 247.804 161.718 248.781C161.733 249.742 161.787 250.48 161.881 250.996L157.995 250.86L158.002 249.299C157.079 250.516 155.61 251.089 153.595 251.019C152.796 250.991 152.058 250.797 151.382 250.437C150.706 250.077 150.179 249.595 149.8 248.989C149.421 248.367 149.245 247.681 149.271 246.929C149.345 244.819 151.014 243.572 154.277 243.19L157.169 242.882C157.507 242.846 157.742 242.75 157.876 242.595C158.025 242.44 158.105 242.219 158.115 241.931ZM155.789 245.284C155.017 245.369 154.42 245.516 153.996 245.725C153.589 245.935 153.376 246.288 153.359 246.784C153.344 247.2 153.508 247.565 153.849 247.882C154.19 248.198 154.617 248.365 155.128 248.383C156.008 248.413 156.695 248.213 157.19 247.782C157.702 247.336 157.978 246.553 158.017 245.434L158.034 244.93C157.453 245.07 156.705 245.188 155.789 245.284ZM164.152 251.075L164.759 233.686L168.717 233.824L168.11 251.213L164.152 251.075ZM179.233 242.956C179.107 242.456 178.816 242.077 178.361 241.821C177.922 241.55 177.375 241.403 176.719 241.38C176.063 241.357 175.549 241.427 175.175 241.59C174.817 241.738 174.634 241.955 174.624 242.243C174.613 242.531 174.726 242.759 174.96 242.927C175.194 243.096 175.597 243.238 176.17 243.354L178.553 243.869C180.174 244.214 181.327 244.671 182.011 245.239C182.712 245.808 183.043 246.644 183.005 247.747C182.955 249.154 182.342 250.205 181.165 250.901C180.005 251.581 178.489 251.888 176.618 251.823C174.987 251.766 173.64 251.39 172.575 250.697C171.511 249.987 170.834 248.979 170.544 247.672L174.071 247.051C174.208 247.728 174.503 248.211 174.957 248.499C175.412 248.771 176.015 248.92 176.767 248.946C177.486 248.971 178.065 248.903 178.503 248.743C178.957 248.566 179.191 248.302 179.203 247.95C179.213 247.663 179.069 247.425 178.772 247.239C178.474 247.052 177.96 246.882 177.229 246.729L174.939 246.265C173.635 246.011 172.619 245.551 171.89 244.885C171.177 244.204 170.84 243.312 170.878 242.208C170.907 241.393 171.195 240.699 171.744 240.125C172.292 239.552 173.019 239.129 173.925 238.857C174.831 238.584 175.828 238.467 176.915 238.505C178.355 238.555 179.607 238.911 180.672 239.573C181.739 240.218 182.435 241.139 182.761 242.335L179.233 242.956Z" fill="white"/>
</g>
<g filter="url(#filter3_bd_5_60)">
<rect x="95" y="50" width="103" height="40" rx="20" fill="url(#paint6_linear_5_60)" fill-opacity="0.04" shape-rendering="crispEdges"/>
<rect x="95.5" y="50.5" width="102" height="39" rx="19.5" stroke="url(#paint7_linear_5_60)" stroke-opacity="0.64" shape-rendering="crispEdges"/>
<path d="M120.404 75L117.828 66.782V75H116.092V64.85H118.85L121.314 72.942L123.764 64.85H126.522V75H124.786V66.782L122.21 75H120.404ZM129.383 77.45L130.335 74.804L127.689 67.608H129.509L131.217 72.872L132.925 67.608H134.633L131.091 77.45H129.383ZM147.602 71.99C147.34 73.0073 146.836 73.796 146.09 74.356C145.343 74.9067 144.414 75.182 143.304 75.182C141.838 75.182 140.69 74.7013 139.86 73.74C139.029 72.7787 138.614 71.4953 138.614 69.89C138.614 68.294 139.043 67.0247 139.902 66.082C140.76 65.1393 141.922 64.668 143.388 64.668C144.461 64.668 145.366 64.948 146.104 65.508C146.841 66.0587 147.336 66.8427 147.588 67.86L145.95 68.224C145.8 67.552 145.492 67.034 145.026 66.67C144.568 66.306 144.004 66.124 143.332 66.124C142.492 66.124 141.801 66.4553 141.26 67.118C140.718 67.7807 140.448 68.7047 140.448 69.89C140.448 71.0847 140.714 72.0227 141.246 72.704C141.787 73.3853 142.478 73.726 143.318 73.726C144.018 73.726 144.596 73.5487 145.054 73.194C145.52 72.83 145.828 72.3073 145.978 71.626L147.602 71.99ZM151.446 75.182C150.624 75.182 149.952 74.972 149.43 74.552C148.916 74.132 148.66 73.586 148.66 72.914C148.66 72.2047 148.944 71.668 149.514 71.304C150.083 70.94 150.909 70.688 151.992 70.548L152.874 70.422C153.2 70.366 153.424 70.282 153.546 70.17C153.667 70.0487 153.728 69.876 153.728 69.652C153.728 69.316 153.592 69.0593 153.322 68.882C153.06 68.7047 152.692 68.616 152.216 68.616C151.712 68.616 151.315 68.7327 151.026 68.966C150.736 69.19 150.582 69.526 150.564 69.974L148.94 69.806C149.042 69.078 149.388 68.4947 149.976 68.056C150.564 67.608 151.301 67.384 152.188 67.384C154.362 67.384 155.431 68.434 155.394 70.534C155.394 70.6367 155.389 70.9167 155.38 71.374C155.37 71.822 155.366 72.172 155.366 72.424C155.366 73.4693 155.44 74.328 155.59 75H154.05C153.975 74.5427 153.928 74.1833 153.91 73.922C153.452 74.762 152.631 75.182 151.446 75.182ZM153.756 71.724V71.374C153.625 71.4113 153.182 71.4953 152.426 71.626C151.726 71.7287 151.217 71.878 150.9 72.074C150.582 72.27 150.424 72.536 150.424 72.872C150.424 73.1893 150.55 73.446 150.802 73.642C151.054 73.838 151.39 73.936 151.81 73.936C153.107 73.936 153.756 73.1987 153.756 71.724ZM161.331 69.302C161.051 69.274 160.785 69.26 160.533 69.26C159.973 69.26 159.558 69.4047 159.287 69.694C159.016 69.974 158.881 70.4733 158.881 71.192V75H157.215V67.608H158.853V68.952C159.282 68.0653 159.964 67.6127 160.897 67.594C161.018 67.594 161.163 67.6033 161.331 67.622V69.302ZM167.312 64.85H168.978V75H167.312V74.006C166.836 74.79 166.089 75.182 165.072 75.182C164.129 75.182 163.354 74.832 162.748 74.132C162.141 73.432 161.838 72.4893 161.838 71.304C161.838 70.128 162.141 69.19 162.748 68.49C163.354 67.79 164.129 67.44 165.072 67.44C166.089 67.44 166.836 67.832 167.312 68.616V64.85ZM166.836 69.428C166.481 69.008 166.014 68.798 165.436 68.798C164.857 68.798 164.4 69.0173 164.064 69.456C163.737 69.8947 163.574 70.5107 163.574 71.304C163.574 72.0973 163.737 72.718 164.064 73.166C164.4 73.6047 164.857 73.824 165.436 73.824C166.014 73.824 166.481 73.614 166.836 73.194C167.2 72.7647 167.382 72.1347 167.382 71.304C167.382 70.4733 167.2 69.848 166.836 69.428ZM175.35 69.806C175.173 69.078 174.594 68.714 173.614 68.714C173.222 68.714 172.891 68.784 172.62 68.924C172.35 69.064 172.214 69.2507 172.214 69.484C172.214 69.932 172.578 70.2307 173.306 70.38L174.328 70.59C175.206 70.7673 175.873 71.0147 176.33 71.332C176.797 71.6493 177.03 72.1347 177.03 72.788C177.03 73.5347 176.722 74.1227 176.106 74.552C175.49 74.972 174.725 75.182 173.81 75.182C172.914 75.182 172.172 74.9673 171.584 74.538C170.996 74.0993 170.632 73.5347 170.492 72.844L172.046 72.522C172.214 73.4553 172.821 73.922 173.866 73.922C174.333 73.922 174.706 73.838 174.986 73.67C175.266 73.502 175.406 73.2733 175.406 72.984C175.406 72.4987 174.958 72.1627 174.062 71.976L172.928 71.738C172.21 71.5887 171.65 71.3507 171.248 71.024C170.847 70.688 170.646 70.2027 170.646 69.568C170.646 68.9333 170.94 68.42 171.528 68.028C172.126 67.636 172.858 67.44 173.726 67.44C174.473 67.44 175.136 67.622 175.714 67.986C176.293 68.35 176.676 68.854 176.862 69.498L175.35 69.806Z" fill="white"/>
</g>
<g filter="url(#filter4_bdii_5_60)">
<rect x="71" y="296" width="278" height="56" rx="28" fill="url(#paint8_linear_5_60)" fill-opacity="0.4" shape-rendering="crispEdges"/>
<rect x="71.5" y="296.5" width="277" height="55" rx="27.5" stroke="#516EB0" shape-rendering="crispEdges"/>
<path d="M144 329.75C144.414 329.75 144.75 329.414 144.75 329C144.75 328.586 144.414 328.25 144 328.25V329.75ZM152.25 321C152.25 321.414 152.586 321.75 153 321.75C153.414 321.75 153.75 321.414 153.75 321H152.25ZM134.218 327.908L134.886 327.567L134.886 327.567L134.218 327.908ZM135.092 328.782L135.433 328.114L135.433 328.114L135.092 328.782ZM151.908 316.218L152.248 315.55L152.248 315.55L151.908 316.218ZM152.782 317.092L152.114 317.433L152.114 317.433L152.782 317.092ZM135.092 316.218L134.752 315.55L134.752 315.55L135.092 316.218ZM134.218 317.092L133.55 316.752L133.55 316.752L134.218 317.092ZM148.75 328C148.75 327.586 148.414 327.25 148 327.25C147.586 327.25 147.25 327.586 147.25 328H148.75ZM148.724 332.638L149.059 333.309L149.059 333.309L148.724 332.638ZM149.776 332.112L150.112 332.783L150.112 332.783L149.776 332.112ZM150.224 332.112L149.888 332.783L149.888 332.783L150.224 332.112ZM151.276 332.638L150.941 333.309L150.941 333.309L151.276 332.638ZM152.75 328C152.75 327.586 152.414 327.25 152 327.25C151.586 327.25 151.25 327.586 151.25 328H152.75ZM138 320.25C137.586 320.25 137.25 320.586 137.25 321C137.25 321.414 137.586 321.75 138 321.75V320.25ZM143 321.75C143.414 321.75 143.75 321.414 143.75 321C143.75 320.586 143.414 320.25 143 320.25V321.75ZM138 323.25C137.586 323.25 137.25 323.586 137.25 324C137.25 324.414 137.586 324.75 138 324.75V323.25ZM140 324.75C140.414 324.75 140.75 324.414 140.75 324C140.75 323.586 140.414 323.25 140 323.25V324.75ZM137.2 316.75H149.8V315.25H137.2V316.75ZM134.75 325.8V319.2H133.25V325.8H134.75ZM144 328.25H137.2V329.75H144V328.25ZM152.25 319.2V321H153.75V319.2H152.25ZM133.25 325.8C133.25 326.348 133.249 326.804 133.28 327.175C133.311 327.555 133.378 327.911 133.55 328.248L134.886 327.567C134.84 327.477 134.798 327.34 134.775 327.053C134.751 326.757 134.75 326.372 134.75 325.8H133.25ZM137.2 328.25C136.628 328.25 136.243 328.249 135.947 328.225C135.66 328.202 135.523 328.16 135.433 328.114L134.752 329.45C135.089 329.622 135.445 329.689 135.825 329.72C136.196 329.751 136.652 329.75 137.2 329.75V328.25ZM133.55 328.248C133.813 328.766 134.234 329.187 134.752 329.45L135.433 328.114C135.197 327.994 135.006 327.803 134.886 327.567L133.55 328.248ZM149.8 316.75C150.372 316.75 150.757 316.751 151.053 316.775C151.34 316.798 151.477 316.84 151.567 316.886L152.248 315.55C151.911 315.378 151.555 315.311 151.175 315.28C150.804 315.249 150.348 315.25 149.8 315.25V316.75ZM153.75 319.2C153.75 318.652 153.751 318.196 153.72 317.825C153.689 317.445 153.622 317.089 153.45 316.752L152.114 317.433C152.16 317.523 152.202 317.66 152.225 317.947C152.249 318.243 152.25 318.628 152.25 319.2H153.75ZM151.567 316.886C151.803 317.006 151.994 317.197 152.114 317.433L153.45 316.752C153.187 316.234 152.766 315.813 152.248 315.55L151.567 316.886ZM137.2 315.25C136.652 315.25 136.196 315.249 135.825 315.28C135.445 315.311 135.089 315.378 134.752 315.55L135.433 316.886C135.523 316.84 135.66 316.798 135.947 316.775C136.243 316.751 136.628 316.75 137.2 316.75V315.25ZM134.75 319.2C134.75 318.628 134.751 318.243 134.775 317.947C134.798 317.66 134.84 317.523 134.886 317.433L133.55 316.752C133.378 317.089 133.311 317.445 133.28 317.825C133.249 318.196 133.25 318.652 133.25 319.2H134.75ZM134.752 315.55C134.234 315.813 133.813 316.234 133.55 316.752L134.886 317.433C135.006 317.197 135.197 317.006 135.433 316.886L134.752 315.55ZM153.25 324C153.25 325.795 151.795 327.25 150 327.25V328.75C152.623 328.75 154.75 326.623 154.75 324H153.25ZM150 327.25C148.205 327.25 146.75 325.795 146.75 324H145.25C145.25 326.623 147.377 328.75 150 328.75V327.25ZM146.75 324C146.75 322.205 148.205 320.75 150 320.75V319.25C147.377 319.25 145.25 321.377 145.25 324H146.75ZM150 320.75C151.795 320.75 153.25 322.205 153.25 324H154.75C154.75 321.377 152.623 319.25 150 319.25V320.75ZM147.25 328V332.191H148.75V328H147.25ZM149.059 333.309L150.112 332.783L149.441 331.441L148.388 331.967L149.059 333.309ZM149.888 332.783L150.941 333.309L151.612 331.967L150.559 331.441L149.888 332.783ZM152.75 332.191V328H151.25V332.191H152.75ZM150.941 333.309C151.772 333.725 152.75 333.12 152.75 332.191H151.25C151.25 332.005 151.446 331.884 151.612 331.967L150.941 333.309ZM150.112 332.783C150.041 332.818 149.959 332.818 149.888 332.783L150.559 331.441C150.207 331.265 149.793 331.265 149.441 331.441L150.112 332.783ZM147.25 332.191C147.25 333.12 148.228 333.725 149.059 333.309L148.388 331.967C148.554 331.884 148.75 332.005 148.75 332.191H147.25ZM138 321.75H143V320.25H138V321.75ZM138 324.75H140V323.25H138V324.75Z" fill="white"/>
<path d="M177.856 324.104C177.728 324.115 177.525 324.12 177.248 324.12H175.28V329H173.248V317.4H176.944C178.736 317.4 180.043 317.645 180.864 318.136C181.696 318.627 182.112 319.496 182.112 320.744C182.112 322.237 181.387 323.235 179.936 323.736L182.592 329H180.304L177.856 324.104ZM175.28 319.032V322.504H177.296C178.224 322.504 178.912 322.381 179.36 322.136C179.808 321.88 180.032 321.421 180.032 320.76C180.032 320.067 179.797 319.608 179.328 319.384C178.859 319.149 178.16 319.032 177.232 319.032H175.28ZM187.627 320.36C188.95 320.36 189.979 320.819 190.715 321.736C191.462 322.643 191.792 323.827 191.707 325.288H185.387C185.408 326.024 185.643 326.6 186.091 327.016C186.55 327.421 187.094 327.624 187.723 327.624C188.79 327.624 189.488 327.219 189.819 326.408L191.563 326.76C191.296 327.496 190.838 328.088 190.187 328.536C189.536 328.984 188.72 329.208 187.739 329.208C186.384 329.208 185.328 328.781 184.571 327.928C183.824 327.064 183.451 325.992 183.451 324.712C183.451 323.432 183.835 322.387 184.603 321.576C185.382 320.765 186.39 320.36 187.627 320.36ZM185.387 323.896H189.771C189.75 323.267 189.536 322.771 189.131 322.408C188.726 322.035 188.224 321.848 187.627 321.848C187.072 321.848 186.576 322.019 186.139 322.36C185.702 322.691 185.451 323.203 185.387 323.896ZM199.207 317.4H201.111V329H199.207V327.864C198.663 328.76 197.809 329.208 196.647 329.208C195.569 329.208 194.684 328.808 193.991 328.008C193.297 327.208 192.951 326.131 192.951 324.776C192.951 323.432 193.297 322.36 193.991 321.56C194.684 320.76 195.569 320.36 196.647 320.36C197.809 320.36 198.663 320.808 199.207 321.704V317.4ZM198.663 322.632C198.257 322.152 197.724 321.912 197.063 321.912C196.401 321.912 195.879 322.163 195.495 322.664C195.121 323.165 194.935 323.869 194.935 324.776C194.935 325.683 195.121 326.392 195.495 326.904C195.879 327.405 196.401 327.656 197.063 327.656C197.724 327.656 198.257 327.416 198.663 326.936C199.079 326.445 199.287 325.725 199.287 324.776C199.287 323.827 199.079 323.112 198.663 322.632ZM207.018 320.36C208.34 320.36 209.37 320.819 210.106 321.736C210.852 322.643 211.183 323.827 211.098 325.288H204.778C204.799 326.024 205.034 326.6 205.482 327.016C205.94 327.421 206.484 327.624 207.114 327.624C208.18 327.624 208.879 327.219 209.21 326.408L210.954 326.76C210.687 327.496 210.228 328.088 209.578 328.536C208.927 328.984 208.111 329.208 207.13 329.208C205.775 329.208 204.719 328.781 203.962 327.928C203.215 327.064 202.842 325.992 202.842 324.712C202.842 323.432 203.226 322.387 203.994 321.576C204.772 320.765 205.78 320.36 207.018 320.36ZM204.778 323.896H209.162C209.14 323.267 208.927 322.771 208.522 322.408C208.116 322.035 207.615 321.848 207.018 321.848C206.463 321.848 205.967 322.019 205.53 322.36C205.092 322.691 204.842 323.203 204.778 323.896ZM216.533 320.36C217.856 320.36 218.885 320.819 219.621 321.736C220.368 322.643 220.699 323.827 220.613 325.288H214.293C214.315 326.024 214.549 326.6 214.997 327.016C215.456 327.421 216 327.624 216.629 327.624C217.696 327.624 218.395 327.219 218.725 326.408L220.469 326.76C220.203 327.496 219.744 328.088 219.093 328.536C218.443 328.984 217.627 329.208 216.645 329.208C215.291 329.208 214.235 328.781 213.477 327.928C212.731 327.064 212.357 325.992 212.357 324.712C212.357 323.432 212.741 322.387 213.509 321.576C214.288 320.765 215.296 320.36 216.533 320.36ZM214.293 323.896H218.677C218.656 323.267 218.443 322.771 218.037 322.408C217.632 322.035 217.131 321.848 216.533 321.848C215.979 321.848 215.483 322.019 215.045 322.36C214.608 322.691 214.357 323.203 214.293 323.896ZM224.259 329H222.355V320.552H224.259V321.752C224.771 320.824 225.603 320.36 226.755 320.36C228.003 320.36 228.84 320.867 229.267 321.88C229.95 320.867 230.883 320.36 232.067 320.36C233.944 320.36 234.883 321.491 234.883 323.752V329H232.979V324.216C232.979 323.864 232.963 323.576 232.931 323.352C232.91 323.117 232.851 322.883 232.755 322.648C232.659 322.403 232.504 322.221 232.291 322.104C232.078 321.976 231.8 321.912 231.459 321.912C230.2 321.912 229.571 322.803 229.571 324.584V329H227.667V324.216C227.667 323.864 227.651 323.576 227.619 323.352C227.598 323.117 227.539 322.883 227.443 322.648C227.347 322.403 227.192 322.221 226.979 322.104C226.766 321.976 226.488 321.912 226.147 321.912C224.888 321.912 224.259 322.803 224.259 324.584V329ZM244.635 317.4C245.211 317.4 245.712 317.421 246.139 317.464C246.565 317.507 247.003 317.603 247.451 317.752C247.909 317.901 248.283 318.104 248.571 318.36C248.859 318.616 249.093 318.973 249.275 319.432C249.467 319.88 249.562 320.419 249.562 321.048C249.562 321.752 249.44 322.349 249.195 322.84C248.949 323.32 248.592 323.688 248.123 323.944C247.653 324.189 247.141 324.365 246.587 324.472C246.043 324.568 245.403 324.616 244.667 324.616H242.843V329H240.811V317.4H244.635ZM242.843 319.032V322.952H244.731C245.627 322.952 246.304 322.829 246.763 322.584C247.221 322.328 247.451 321.821 247.451 321.064C247.451 320.616 247.376 320.248 247.227 319.96C247.077 319.672 246.853 319.464 246.555 319.336C246.256 319.208 245.968 319.128 245.691 319.096C245.413 319.053 245.061 319.032 244.635 319.032H242.843ZM257.416 321.496C258.237 322.253 258.648 323.352 258.648 324.792C258.648 326.232 258.237 327.331 257.416 328.088C256.594 328.835 255.608 329.208 254.456 329.208C253.304 329.208 252.317 328.835 251.496 328.088C250.674 327.331 250.264 326.232 250.264 324.792C250.264 323.352 250.674 322.253 251.496 321.496C252.317 320.739 253.304 320.36 254.456 320.36C255.608 320.36 256.594 320.739 257.416 321.496ZM256.04 326.92C256.466 326.429 256.68 325.72 256.68 324.792C256.68 323.864 256.466 323.155 256.04 322.664C255.624 322.163 255.096 321.912 254.456 321.912C253.816 321.912 253.282 322.163 252.856 322.664C252.44 323.155 252.232 323.864 252.232 324.792C252.232 325.72 252.44 326.429 252.856 326.92C253.282 327.411 253.816 327.656 254.456 327.656C255.096 327.656 255.624 327.411 256.04 326.92ZM262.275 317.4V319.32H260.371V317.4H262.275ZM262.275 320.552V329H260.371V320.552H262.275ZM266.478 321.752C266.99 320.824 267.859 320.36 269.086 320.36C271.038 320.36 272.014 321.491 272.014 323.752V329H270.11V324.216C270.11 323.949 270.099 323.72 270.078 323.528C270.057 323.325 270.014 323.117 269.95 322.904C269.886 322.691 269.795 322.52 269.678 322.392C269.571 322.253 269.411 322.141 269.198 322.056C268.995 321.96 268.755 321.912 268.478 321.912C267.145 321.912 266.478 322.803 266.478 324.584V329H264.574V320.552H266.478V321.752ZM276.328 326.696C276.328 327.048 276.397 327.293 276.536 327.432C276.685 327.571 276.904 327.64 277.192 327.64C277.405 327.64 277.635 327.619 277.88 327.576L278.008 329C277.624 329.064 277.245 329.096 276.872 329.096C276.051 329.096 275.437 328.915 275.032 328.552C274.627 328.179 274.424 327.592 274.424 326.792V321.928H273.144V320.552H274.424V318.28H276.328V320.552H278.056V321.928H276.328V326.696ZM284.722 323.064C284.519 322.232 283.858 321.816 282.738 321.816C282.29 321.816 281.911 321.896 281.602 322.056C281.292 322.216 281.138 322.429 281.138 322.696C281.138 323.208 281.554 323.549 282.386 323.72L283.554 323.96C284.556 324.163 285.319 324.445 285.842 324.808C286.375 325.171 286.642 325.725 286.642 326.472C286.642 327.325 286.29 327.997 285.586 328.488C284.882 328.968 284.007 329.208 282.962 329.208C281.938 329.208 281.09 328.963 280.418 328.472C279.746 327.971 279.33 327.325 279.17 326.536L280.946 326.168C281.138 327.235 281.831 327.768 283.026 327.768C283.559 327.768 283.986 327.672 284.306 327.48C284.626 327.288 284.786 327.027 284.786 326.696C284.786 326.141 284.274 325.757 283.25 325.544L281.954 325.272C281.132 325.101 280.492 324.829 280.034 324.456C279.575 324.072 279.346 323.517 279.346 322.792C279.346 322.067 279.682 321.48 280.354 321.032C281.036 320.584 281.874 320.36 282.866 320.36C283.719 320.36 284.476 320.568 285.138 320.984C285.799 321.4 286.236 321.976 286.45 322.712L284.722 323.064Z" fill="white"/>
</g>
</g>
<defs>
<filter id="filter0_b_5_60" x="0.281372" y="2" width="388.719" height="390" filterUnits="userSpaceOnUse" color-interpolation-filters="sRGB">
<feFlood flood-opacity="0" result="BackgroundImageFix"/>
<feGaussianBlur in="BackgroundImageFix" stdDeviation="20"/>
<feComposite in2="SourceAlpha" operator="in" result="effect1_backgroundBlur_5_60"/>
<feBlend mode="normal" in="SourceGraphic" in2="effect1_backgroundBlur_5_60" result="shape"/>
</filter>
<filter id="filter1_bd_5_60" x="139" y="0" width="245" height="168" filterUnits="userSpaceOnUse" color-interpolation-filters="sRGB">
<feFlood flood-opacity="0" result="BackgroundImageFix"/>
<feGaussianBlur in="BackgroundImageFix" stdDeviation="20"/>
<feComposite in2="SourceAlpha" operator="in" result="effect1_backgroundBlur_5_60"/>
<feColorMatrix in="SourceAlpha" type="matrix" values="0 0 0 0 0 0 0 0 0 0 0 0 0 0 0 0 0 0 127 0" result="hardAlpha"/>
<feOffset dx="-5" dy="14"/>
<feGaussianBlur stdDeviation="32"/>
<feComposite in2="hardAlpha" operator="out"/>
<feColorMatrix type="matrix" values="0 0 0 0 0.294477 0 0 0 0 0.294477 0 0 0 0 0.781136 0 0 0 0.16 0"/>
<feBlend mode="normal" in2="effect1_backgroundBlur_5_60" result="effect2_dropShadow_5_60"/>
<feBlend mode="normal" in="SourceGraphic" in2="effect2_dropShadow_5_60" result="shape"/>
</filter>
<filter id="filter2_di_5_60" x="0.281372" y="85.8609" width="325.438" height="248.278" filterUnits="userSpaceOnUse" color-interpolation-filters="sRGB">
<feFlood flood-opacity="0" result="BackgroundImageFix"/>
<feColorMatrix in="SourceAlpha" type="matrix" values="0 0 0 0 0 0 0 0 0 0 0 0 0 0 0 0 0 0 127 0" result="hardAlpha"/>
<feOffset dy="16"/>
<feGaussianBlur stdDeviation="20"/>
<feComposite in2="hardAlpha" operator="out"/>
<feColorMatrix type="matrix" values="0 0 0 0 0 0 0 0 0 0 0 0 0 0 0 0 0 0 0.24 0"/>
<feBlend mode="normal" in2="BackgroundImageFix" result="effect1_dropShadow_5_60"/>
<feBlend mode="normal" in="SourceGraphic" in2="effect1_dropShadow_5_60" result="shape"/>
<feColorMatrix in="SourceAlpha" type="matrix" values="0 0 0 0 0 0 0 0 0 0 0 0 0 0 0 0 0 0 127 0" result="hardAlpha"/>
<feOffset dy="4"/>
<feGaussianBlur stdDeviation="4"/>
<feComposite in2="hardAlpha" operator="arithmetic" k2="-1" k3="1"/>
<feColorMatrix type="matrix" values="0 0 0 0 0.074145 0 0 0 0 0.125221 0 0 0 0 0.256559 0 0 0 0.24 0"/>
<feBlend mode="normal" in2="shape" result="effect2_innerShadow_5_60"/>
</filter>
<filter id="filter3_bd_5_60" x="26" y="0" width="231" height="168" filterUnits="userSpaceOnUse" color-interpolation-filters="sRGB">
<feFlood flood-opacity="0" result="BackgroundImageFix"/>
<feGaussianBlur in="BackgroundImageFix" stdDeviation="20"/>
<feComposite in2="SourceAlpha" operator="in" result="effect1_backgroundBlur_5_60"/>
<feColorMatrix in="SourceAlpha" type="matrix" values="0 0 0 0 0 0 0 0 0 0 0 0 0 0 0 0 0 0 127 0" result="hardAlpha"/>
<feOffset dx="-5" dy="14"/>
<feGaussianBlur stdDeviation="32"/>
<feComposite in2="hardAlpha" operator="out"/>
<feColorMatrix type="matrix" values="0 0 0 0 0.294477 0 0 0 0 0.294477 0 0 0 0 0.781136 0 0 0 0.16 0"/>
<feBlend mode="normal" in2="effect1_backgroundBlur_5_60" result="effect2_dropShadow_5_60"/>
<feBlend mode="normal" in="SourceGraphic" in2="effect2_dropShadow_5_60" result="shape"/>
</filter>
<filter id="filter4_bdii_5_60" x="47" y="276" width="326" height="108" filterUnits="userSpaceOnUse" color-interpolation-filters="sRGB">
<feFlood flood-opacity="0" result="BackgroundImageFix"/>
<feGaussianBlur in="BackgroundImageFix" stdDeviation="10"/>
<feComposite in2="SourceAlpha" operator="in" result="effect1_backgroundBlur_5_60"/>
<feColorMatrix in="SourceAlpha" type="matrix" values="0 0 0 0 0 0 0 0 0 0 0 0 0 0 0 0 0 0 127 0" result="hardAlpha"/>
<feOffset dy="8"/>
<feGaussianBlur stdDeviation="12"/>
<feComposite in2="hardAlpha" operator="out"/>
<feColorMatrix type="matrix" values="0 0 0 0 0 0 0 0 0 0 0 0 0 0 0 0 0 0 0.12 0"/>
<feBlend mode="normal" in2="effect1_backgroundBlur_5_60" result="effect2_dropShadow_5_60"/>
<feBlend mode="normal" in="SourceGraphic" in2="effect2_dropShadow_5_60" result="shape"/>
<feColorMatrix in="SourceAlpha" type="matrix" values="0 0 0 0 0 0 0 0 0 0 0 0 0 0 0 0 0 0 127 0" result="hardAlpha"/>
<feOffset/>
<feGaussianBlur stdDeviation="4"/>
<feComposite in2="hardAlpha" operator="arithmetic" k2="-1" k3="1"/>
<feColorMatrix type="matrix" values="0 0 0 0 0.0630335 0 0 0 0 0.0844577 0 0 0 0 0.160417 0 0 0 0.32 0"/>
<feBlend mode="normal" in2="shape" result="effect3_innerShadow_5_60"/>
<feColorMatrix in="SourceAlpha" type="matrix" values="0 0 0 0 0 0 0 0 0 0 0 0 0 0 0 0 0 0 127 0" result="hardAlpha"/>
<feOffset dx="1" dy="1"/>
<feGaussianBlur stdDeviation="0.5"/>
<feComposite in2="hardAlpha" operator="arithmetic" k2="-1" k3="1"/>
<feColorMatrix type="matrix" values="0 0 0 0 1 0 0 0 0 1 0 0 0 0 1 0 0 0 0.24 0"/>
<feBlend mode="normal" in2="effect3_innerShadow_5_60" result="effect4_innerShadow_5_60"/>
</filter>
<linearGradient id="paint0_linear_5_60" x1="55.5667" y1="336" x2="291.364" y2="373.406" gradientUnits="userSpaceOnUse">
<stop stop-color="#111111"/>
<stop offset="1" stop-color="#A8ABEF"/>
</linearGradient>
<linearGradient id="paint1_linear_5_60" x1="111.6" y1="-65.8" x2="466.219" y2="99.9071" gradientUnits="userSpaceOnUse">
<stop stop-color="white"/>
<stop offset="1" stop-color="#E3E3E3" stop-opacity="0"/>
</linearGradient>
<linearGradient id="paint2_linear_5_60" x1="193.05" y1="90" x2="280.979" y2="138.761" gradientUnits="userSpaceOnUse">
<stop stop-color="#111111"/>
<stop offset="1" stop-color="#A8ABEF"/>
</linearGradient>
<linearGradient id="paint3_linear_5_60" x1="219.7" y1="35.3333" x2="275.717" y2="126.837" gradientUnits="userSpaceOnUse">
<stop stop-color="white"/>
<stop offset="1" stop-color="#E3E3E3" stop-opacity="0"/>
</linearGradient>
<linearGradient id="paint4_linear_5_60" x1="81.8653" y1="258.661" x2="298.023" y2="121.655" gradientUnits="userSpaceOnUse">
<stop stop-color="#5D6799"/>
<stop offset="1" stop-color="white"/>
</linearGradient>
<linearGradient id="paint5_linear_5_60" x1="119.148" y1="96.5276" x2="311.92" y2="267.079" gradientUnits="userSpaceOnUse">
<stop stop-color="white"/>
<stop offset="1" stop-opacity="0"/>
</linearGradient>
<linearGradient id="paint6_linear_5_60" x1="81.8389" y1="90" x2="163.572" y2="129.901" gradientUnits="userSpaceOnUse">
<stop stop-color="#111111"/>
<stop offset="1" stop-color="#A8ABEF"/>
</linearGradient>
<linearGradient id="paint7_linear_5_60" x1="105.3" y1="35.3333" x2="164.264" y2="120.126" gradientUnits="userSpaceOnUse">
<stop stop-color="white"/>
<stop offset="1" stop-color="#E3E3E3" stop-opacity="0"/>
</linearGradient>
<linearGradient id="paint8_linear_5_60" x1="198.058" y1="231.178" x2="249.015" y2="411.975" gradientUnits="userSpaceOnUse">
<stop stop-color="#C9DCFF"/>
<stop offset="1" stop-color="#1F50A5" stop-opacity="0.4"/>
</linearGradient>
</defs>
</svg>
