<svg width="437" height="438" fill="none" xmlns="http://www.w3.org/2000/svg"><g filter="url(#a)"><rect x="116" y="50" width="246" height="294" rx="16" fill="url(#b)" fill-opacity=".04" shape-rendering="crispEdges"/><rect x="116.5" y="50.5" width="245" height="293" rx="15.5" stroke="url(#c)" stroke-opacity=".64" shape-rendering="crispEdges"/><g filter="url(#d)"><rect x="237" y="58" width="117" height="40" rx="20" fill="url(#e)" fill-opacity=".04" shape-rendering="crispEdges"/><rect x="237.5" y="58.5" width="116" height="39" rx="19.5" stroke="url(#f)" stroke-opacity=".64" shape-rendering="crispEdges"/><path d="m262.404 83-2.576-8.218V83h-1.736V72.85h2.758l2.464 8.092 2.45-8.092h2.758V83h-1.736v-8.218L264.21 83h-1.806Zm8.979 2.45.952-2.646-2.646-7.196h1.82l1.708 5.264 1.708-5.264h1.708l-3.542 9.842h-1.708Zm9.637-12.6h3.822c2.436 0 3.654.863 3.654 2.59 0 .457-.112.887-.336 1.288-.215.401-.481.695-.798.882 1.017.457 1.526 1.25 1.526 2.38 0 1.027-.35 1.787-1.05 2.282-.7.485-1.615.728-2.744.728h-4.074V72.85Zm1.778 4.242h2.212c1.12 0 1.68-.485 1.68-1.456 0-.439-.154-.775-.462-1.008-.299-.233-.705-.35-1.218-.35h-2.212v2.814Zm0 4.48h2.366c1.26 0 1.89-.527 1.89-1.582 0-1.027-.663-1.54-1.988-1.54h-2.268v3.122Zm9.95 1.61c-.821 0-1.493-.21-2.016-.63-.513-.42-.77-.966-.77-1.638 0-.71.285-1.246.854-1.61.57-.364 1.396-.616 2.478-.756l.882-.126c.327-.056.551-.14.672-.252.122-.121.182-.294.182-.518 0-.336-.135-.593-.406-.77-.261-.177-.63-.266-1.106-.266-.504 0-.9.117-1.19.35-.289.224-.443.56-.462 1.008l-1.624-.168a2.547 2.547 0 0 1 1.036-1.75c.588-.448 1.326-.672 2.212-.672 2.175 0 3.244 1.05 3.206 3.15 0 .103-.004.383-.014.84a56.43 56.43 0 0 0-.014 1.05c0 1.045.075 1.904.224 2.576h-1.54a13.19 13.19 0 0 1-.14-1.078c-.457.84-1.278 1.26-2.464 1.26Zm2.31-3.458v-.35c-.13.037-.574.121-1.33.252-.7.103-1.208.252-1.526.448-.317.196-.476.462-.476.798a.93.93 0 0 0 .378.77c.252.196.588.294 1.008.294 1.298 0 1.946-.737 1.946-2.212ZM300.184 83h-1.666V72.85h1.666V83Zm4.35.182c-.822 0-1.494-.21-2.016-.63-.514-.42-.77-.966-.77-1.638 0-.71.284-1.246.854-1.61.569-.364 1.395-.616 2.478-.756l.882-.126c.326-.056.55-.14.672-.252.121-.121.182-.294.182-.518a.866.866 0 0 0-.406-.77c-.262-.177-.63-.266-1.107-.266-.503 0-.9.117-1.189.35-.29.224-.444.56-.462 1.008l-1.624-.168a2.544 2.544 0 0 1 1.036-1.75c.588-.448 1.325-.672 2.212-.672 2.174 0 3.243 1.05 3.206 3.15 0 .103-.005.383-.014.84-.01.448-.014.798-.014 1.05 0 1.045.074 1.904.224 2.576h-1.54a12.354 12.354 0 0 1-.14-1.078c-.458.84-1.279 1.26-2.464 1.26Zm2.31-3.458v-.35c-.131.037-.574.121-1.33.252-.7.103-1.209.252-1.526.448-.318.196-.476.462-.476.798a.93.93 0 0 0 .378.77c.252.196.588.294 1.008.294 1.297 0 1.946-.737 1.946-2.212Zm5.125-3.066c.448-.812 1.209-1.218 2.282-1.218 1.708 0 2.562.99 2.562 2.968V83h-1.666v-4.186c0-.233-.009-.434-.028-.602a3.019 3.019 0 0 0-.112-.546 1.13 1.13 0 0 0-.238-.448.964.964 0 0 0-.42-.294 1.457 1.457 0 0 0-.63-.126c-1.167 0-1.75.78-1.75 2.338V83h-1.666v-7.392h1.666v1.05Zm13.113 1.162-1.54.336a1.637 1.637 0 0 0-.574-.966c-.299-.243-.691-.364-1.176-.364-.56 0-1.018.205-1.372.616-.346.41-.518 1.031-.518 1.862 0 .83.172 1.456.518 1.876.354.41.812.616 1.372.616.998 0 1.6-.448 1.806-1.344l1.54.336c-.224.756-.644 1.344-1.26 1.764-.616.42-1.321.63-2.114.63-1.092 0-1.965-.36-2.618-1.078-.644-.728-.966-1.657-.966-2.786 0-1.13.326-2.058.98-2.786.662-.728 1.554-1.092 2.674-1.092.784 0 1.47.215 2.058.644.588.43.984 1.008 1.19 1.736Zm4.75-2.38c1.157 0 2.058.401 2.702 1.204.653.793.942 1.83.868 3.108h-5.53c.018.644.224 1.148.616 1.512.401.355.877.532 1.428.532.933 0 1.544-.355 1.834-1.064l1.526.308a3.152 3.152 0 0 1-1.204 1.554c-.57.392-1.284.588-2.142.588-1.186 0-2.11-.373-2.772-1.12-.654-.756-.98-1.694-.98-2.814s.336-2.035 1.008-2.744c.681-.71 1.563-1.064 2.646-1.064Zm-1.96 3.094h3.836c-.019-.55-.206-.985-.56-1.302-.355-.327-.794-.49-1.316-.49-.486 0-.92.15-1.302.448-.383.29-.602.737-.658 1.344Z" fill="#fff"/></g><g filter="url(#g)"><rect x="74.865" y="117.861" width="240" height="160" rx="16" transform="rotate(2 74.865 117.861)" fill="url(#h)"/><rect x="75.347" y="118.378" width="239" height="159" rx="15.5" transform="rotate(2 75.347 118.378)" stroke="url(#i)"/><path d="M109.607 139.074c-4.645-.163-8.243 3.122-8.4 7.639-.158 4.518 3.256 8.041 7.939 8.205 1.764.062 3.446-.349 4.872-1.199a7.866 7.866 0 0 0 3.043-3.282l-3.489-.122c-.901 1.207-2.528 1.909-4.264 1.848-2.47-.086-4.333-1.657-4.761-4.002l-.038-.176 12.867.45c.06-.337.099-.81.11-1.126h.01c.159-4.533-3.227-8.073-7.884-8.235h-.005Zm-4.989 6.416.061-.183c.685-2.191 2.58-3.555 4.837-3.476 2.258.079 4.128 1.612 4.616 3.806l.048.187-9.557-.334h-.005ZM94.83 142.48c-.722.586-1.047 1.486-1.079 2.396l-.331 9.487-3.815-.133.552-15.819 3.718.13-.072 2.043.361-.38c.75-.792 2.326-1.572 4.15-1.508 1.568.054 2.64.474 3.649 1.437l-2.068 3.075c-.635-.666-1.377-1.177-2.296-1.307a5.78 5.78 0 0 0-.824-.056c-.701.008-1.392.18-1.946.635ZM125.687 155.49c4.081.143 7.118-1.737 7.214-4.478.08-2.3-1.908-3.87-6.081-4.79-2.605-.549-3.908-1.353-3.872-2.394.036-1.041 1.377-1.769 3.124-1.708 1.747.061 3.144.988 3.103 2.149l-.002.076 3.614.126.003-.076c.09-2.594-2.75-4.652-6.603-4.786-3.853-.135-6.774 1.673-6.865 4.294-.079 2.251 1.97 3.937 5.766 4.757 2.832.596 4.195 1.407 4.157 2.475-.039 1.123-1.507 1.922-3.411 1.856-1.905-.067-3.51-1.105-3.466-2.358l.003-.076-3.614-.127-.003.077c-.095 2.708 2.889 4.853 6.938 4.994M153.455 153.486c-1.037-.036-1.873-.185-1.761-1.993l.381-10.936-3.369-.118-.106 3.013-.243-.33c-1.313-1.781-3.314-2.811-5.632-2.892h-.01c-4.586-.16-8.167 3.119-8.325 7.637-.157 4.517 3.186 8.044 7.771 8.204 2.388.083 4.574-.904 5.99-2.694l.182-.233.066.286c.382 1.644 1.772 2.915 4.041 2.994l.9.032.104-2.97h.011Zm-10.832-.378c-2.811-.098-4.858-2.303-4.759-5.126.098-2.822 2.294-4.873 5.105-4.775 2.811.098 4.826 2.301 4.728 5.119-.099 2.817-2.273 4.88-5.074 4.782ZM167.185 153.164s-1.228.944-2.707.816c-1.051-.091-1.259-.36-1.259-.36s3.595-3.508 4.025-9.598c.349-4.871-2.352-6.87-4.99-7.093-2.665-.229-5.624 1.561-6.198 6.025-.761 5.926 2.593 10.397 2.593 10.397s-.612.415-2.562.227l-.104 2.97s3.029.237 4.775-.908c.729.604 2.072 1.502 4.3 1.356 1.906-.125 3.539-1.159 3.539-1.159l-1.417-2.679.005.006Zm-6.094-1.615c-.78-1.151-1.793-3.882-1.681-7.086.068-1.951.673-4.02 2.551-3.823 1.781.182 1.981 2.251 1.735 4.152-.412 3.232-1.58 5.734-2.61 6.762l.005-.005Z" fill="#fff"/><path d="m98.48 222.599 1.497.052-2.887 10.056-1.734-.061-1.668-8.407-2.208 8.272-1.735-.061-2.22-10.234 1.567.055 1.661 8.589 2.172-8.455 1.68.059 1.703 8.59 2.172-8.455Zm6.802 10.394a8.516 8.516 0 0 1-.059-1.109c-.534.84-1.407 1.24-2.62 1.197a3.054 3.054 0 0 1-1.319-.326 2.237 2.237 0 0 1-.896-.816 2.022 2.022 0 0 1-.296-1.159c.026-.727.347-1.248.965-1.563.628-.324 1.523-.549 2.686-.677l.872-.109c.235-.039.405-.108.512-.207.115-.108.177-.278.186-.512.012-.363-.136-.653-.446-.87-.31-.225-.721-.347-1.234-.365-.579-.02-1.026.095-1.343.345-.308.251-.484.614-.529 1.089l-1.298-.13a2.47 2.47 0 0 1 .55-1.297c.311-.363.699-.63 1.162-.8.464-.18.967-.261 1.508-.242 1.035.036 1.783.291 2.242.765.46.464.667 1.223.621 2.277l-.073 1.706c-.05 1.166-.018 2.115.096 2.848l-1.287-.045Zm-.678-1.425c.452-.376.694-1.026.726-1.95l.012-.336c-.16.042-.358.081-.593.12-.225.029-.389.052-.492.067l-.381.056c-.854.12-1.461.272-1.823.455a.926.926 0 0 0-.548.85 1.11 1.11 0 0 0 .361.895c.254.223.605.343 1.052.359.681.023 1.243-.148 1.686-.516Zm3.859 1.536.354-10.144 1.273.044-.354 10.144-1.273-.044Zm3.43.119.354-10.143 1.273.044-.354 10.144-1.273-.045Zm4.411-3.137c-.016.457.068.87.251 1.241.184.361.449.646.797.854.347.209.736.32 1.165.335 1.007.035 1.708-.36 2.101-1.187l1.206.35a3.148 3.148 0 0 1-1.284 1.482c-.573.344-1.274.502-2.104.473-.774-.027-1.431-.218-1.969-.573a3.22 3.22 0 0 1-1.198-1.415c-.25-.587-.362-1.245-.337-1.973.026-.755.203-1.412.531-1.97a3.313 3.313 0 0 1 1.334-1.299 3.673 3.673 0 0 1 1.878-.41c.718.025 1.332.21 1.843.554.511.345.897.812 1.156 1.4.26.578.378 1.227.353 1.945a4.427 4.427 0 0 1-.028.391l-5.695-.198Zm2.333-3.001c-.635-.022-1.159.137-1.572.478-.414.34-.65.817-.709 1.432l4.338.151c0-.551-.179-1.024-.539-1.42-.359-.404-.866-.618-1.518-.641Zm6.842-2.619-.066 1.889 1.427.05-.035 1.021-1.427-.049-.147 4.183c-.011.326-.005.565.018.715.022.15.079.264.17.342.091.069.239.107.444.114.252.009.519-.006.8-.042l-.036 1.021a5.595 5.595 0 0 1-1.081.088c-.625-.022-1.054-.191-1.286-.507-.231-.316-.334-.857-.307-1.622l.151-4.337-1.189-.041.036-1.022 1.189.042.066-1.889 1.273.044Zm10.154-.57c1.082.038 1.939.255 2.569.65.64.387.944 1.047.912 1.979a2.871 2.871 0 0 1-.355 1.319 2.09 2.09 0 0 1-.843.881c1.011.465 1.496 1.285 1.455 2.46-.035 1.017-.397 1.761-1.086 2.232-.68.462-1.565.673-2.656.635l-4.002-.139.355-10.144 3.651.127Zm.073 4.345c1.268.045 1.922-.479 1.96-1.57.017-.504-.142-.883-.479-1.137-.327-.264-.784-.406-1.372-.427l-2.448-.085-.11 3.134 2.449.085Zm-.021 4.609c.718.025 1.26-.106 1.625-.392.374-.295.571-.732.592-1.31.02-.588-.147-1.023-.501-1.306-.354-.284-.914-.439-1.679-.465l-2.504-.088-.122 3.47 2.589.091Zm9.932 1.551a8.335 8.335 0 0 1-.059-1.109c-.534.841-1.407 1.24-2.62 1.198a3.054 3.054 0 0 1-1.319-.327 2.242 2.242 0 0 1-.896-.815 2.024 2.024 0 0 1-.296-1.159c.025-.728.347-1.249.965-1.564.628-.323 1.523-.549 2.685-.676l.873-.11c.235-.038.405-.107.511-.206.116-.108.178-.279.186-.512.013-.364-.136-.654-.446-.87-.309-.226-.721-.347-1.234-.365-.578-.021-1.026.095-1.342.345-.308.251-.484.613-.529 1.088l-1.298-.129c.064-.502.247-.935.55-1.298a2.76 2.76 0 0 1 1.162-.8c.464-.18.967-.26 1.508-.241 1.035.036 1.782.291 2.242.764.46.465.667 1.224.621 2.278l-.073 1.706c-.051 1.166-.018 2.115.096 2.847l-1.287-.045Zm-.679-1.424c.452-.377.695-1.027.727-1.95l.012-.336a6.915 6.915 0 0 1-.593.119l-.493.067-.38.057c-.854.12-1.462.271-1.823.455a.923.923 0 0 0-.548.849c-.013.364.108.662.361.895.254.224.605.343 1.052.359.681.024 1.243-.148 1.685-.515Zm3.86 1.535.354-10.144 1.273.045-.354 10.144-1.273-.045Zm8.214.287a8.507 8.507 0 0 1-.059-1.109c-.534.841-1.407 1.24-2.619 1.198a3.059 3.059 0 0 1-1.32-.327 2.242 2.242 0 0 1-.896-.815 2.024 2.024 0 0 1-.296-1.159c.026-.728.348-1.249.966-1.564.627-.323 1.522-.549 2.685-.676l.872-.11c.235-.038.406-.107.512-.206.116-.108.178-.279.186-.512.012-.364-.136-.654-.446-.87-.31-.226-.721-.348-1.234-.365-.579-.021-1.026.094-1.343.345-.308.251-.484.613-.528 1.088l-1.299-.129c.065-.502.248-.935.55-1.298a2.758 2.758 0 0 1 1.163-.8c.463-.18.966-.26 1.507-.241 1.035.036 1.783.291 2.243.764.46.465.667 1.224.621 2.277l-.074 1.707c-.05 1.166-.018 2.115.097 2.847l-1.288-.045Zm-.678-1.424c.452-.377.694-1.027.726-1.95l.012-.336c-.16.041-.358.081-.593.119l-.492.067-.38.057c-.854.12-1.462.271-1.823.455a.92.92 0 0 0-.548.849c-.013.364.107.662.361.895.253.224.604.343 1.052.359.681.024 1.242-.148 1.685-.515Zm5.349-4.619c.542-.821 1.368-1.213 2.478-1.174 1.651.058 2.443 1.052 2.376 2.983l-.16 4.561-1.273-.044.146-4.184c.024-.69-.069-1.226-.28-1.607-.201-.389-.633-.596-1.295-.619-.625-.022-1.122.175-1.492.592-.359.408-.553 1.008-.581 1.801l-.136 3.89-1.273-.045.256-7.331 1.273.044-.039 1.133Zm11.801 1.799a1.883 1.883 0 0 0-.605-1.127c-.326-.292-.741-.447-1.245-.464a1.924 1.924 0 0 0-1.549.646c-.417.443-.641 1.094-.671 1.952-.03.867.147 1.546.531 2.036.385.489.885.745 1.501.767.522.018.951-.107 1.287-.376.346-.277.588-.633.724-1.067l1.235.351a3.137 3.137 0 0 1-1.234 1.624c-.593.418-1.291.613-2.094.585-.718-.025-1.332-.21-1.843-.554a3.308 3.308 0 0 1-1.156-1.413c-.25-.588-.362-1.251-.337-1.987.026-.719.193-1.362.502-1.93a3.246 3.246 0 0 1 1.293-1.314c.552-.317 1.197-.462 1.934-.437.802.028 1.461.28 1.977.756.525.476.856 1.038.992 1.688l-1.242.264Zm3.828 1.661c-.016.457.068.871.251 1.241.183.362.449.647.797.855.347.208.736.32 1.165.335 1.007.035 1.707-.361 2.1-1.188l1.207.351a3.16 3.16 0 0 1-1.285 1.482c-.572.344-1.273.501-2.103.473-.775-.028-1.431-.219-1.97-.574a3.222 3.222 0 0 1-1.197-1.414c-.25-.588-.363-1.246-.337-1.973.026-.756.203-1.413.531-1.971.328-.567.772-1 1.334-1.298.561-.298 1.187-.435 1.877-.411.719.025 1.333.21 1.844.555.511.345.896.811 1.156 1.399.26.579.377 1.227.352 1.946a4.53 4.53 0 0 1-.027.391l-5.695-.199Zm2.332-3c-.634-.023-1.158.137-1.571.477-.414.34-.65.818-.709 1.432l4.338.152c0-.551-.179-1.025-.539-1.42-.36-.405-.866-.619-1.519-.641Z" fill="#E5E5EB"/><path d="M100.361 243.035c-.061 1.743-.814 3.35-2.258 4.82-1.428 1.471-3.537 2.95-6.327 4.438l8.323.291-.113 3.238-13.36-.467.114-3.238 1.351-.889c1.92-1.31 3.405-2.355 4.456-3.135 1.053-.795 1.946-1.613 2.68-2.452.734-.855 1.115-1.69 1.144-2.505.025-.72-.188-1.272-.639-1.656-.434-.399-1.003-.611-1.707-.635-.815-.029-1.505.235-2.069.792-.563.54-.843 1.451-.84 2.732l-3.892-.616c.075-1.246.425-2.315 1.048-3.205a5.684 5.684 0 0 1 2.472-2.027c1.04-.444 2.208-.644 3.503-.599 1.216.043 2.288.28 3.218.713.945.417 1.67 1.003 2.171 1.757.519.755.76 1.636.725 2.643Zm1.785 4.121c.099-2.814.815-4.983 2.149-6.505 1.334-1.539 3.209-2.266 5.623-2.181 2.399.083 4.21.939 5.434 2.567 1.225 1.612 1.788 3.825 1.689 6.639-.098 2.83-.815 5.023-2.15 6.577-1.336 1.554-3.202 2.29-5.601 2.206-2.414-.085-4.233-.949-5.457-2.592-1.223-1.644-1.785-3.881-1.687-6.711Zm10.842.378c.07-2.014-.181-3.528-.754-4.541-.557-1.028-1.363-1.56-2.418-1.597-1.055-.037-1.904.438-2.547 1.424-.642.97-.999 2.463-1.069 4.477-.071 2.047.179 3.593.751 4.637.572 1.029 1.386 1.562 2.441 1.599 1.056.036 1.897-.439 2.524-1.425.643-1.002 1-2.527 1.072-4.574Zm6.328.221c.098-2.814.814-4.982 2.148-6.505 1.335-1.538 3.209-2.265 5.624-2.181 2.398.084 4.209.94 5.433 2.567 1.225 1.612 1.788 3.825 1.69 6.639-.099 2.831-.816 5.023-2.151 6.577-1.335 1.555-3.202 2.29-5.601 2.206-2.414-.084-4.233-.948-5.457-2.592-1.223-1.643-1.785-3.88-1.686-6.711Zm10.841.379c.07-2.015-.181-3.529-.754-4.541-.556-1.028-1.362-1.561-2.418-1.597-1.055-.037-1.904.437-2.547 1.423-.642.971-.998 2.463-1.069 4.478-.071 2.047.179 3.592.751 4.637.572 1.029 1.386 1.561 2.442 1.598 1.055.037 1.896-.438 2.523-1.425.643-1.002 1.001-2.526 1.072-4.573Zm16.337 2.756-.229 6.548-4.101-.143.607-17.39 6.692.234c2.51.087 4.439.547 5.787 1.379 1.348.831 1.987 2.254 1.916 4.269-.081 2.319-1.272 3.878-3.573 4.678l4.041 7.37-4.821-.169-3.537-6.679-2.782-.097Zm.12-3.454 2.711.095c1.103.038 1.955-.068 2.556-.319.602-.268.916-.777.942-1.529.027-.751-.259-1.273-.858-1.566-.581-.309-1.416-.482-2.503-.52l-2.71-.095-.138 3.934Zm17.122-3.629-3.957-.138.11-3.166 3.958.138-.111 3.166Zm-.472 14.224-3.982-.139.442-12.664 3.982.139-.442 12.664Zm6.243.146-4.382-12.76 4.342.151 2.1 7.926 2.817-7.754 4.245.148-7.305 16.627-3.645-.127 1.828-4.211Zm17.608-8.246c.034-.976-.652-1.488-2.059-1.537-.688-.024-1.245.117-1.672.422-.411.306-.659.769-.745 1.391l-3.66-.416c.139-.78.484-1.488 1.035-2.125.566-.637 1.304-1.132 2.213-1.484.925-.352 1.979-.507 3.162-.466 1.919.067 3.343.541 4.273 1.422.931.865 1.347 2.248 1.248 4.15l-.139 2.613a43.485 43.485 0 0 0-.053 2.88c.015.961.069 1.699.163 2.215l-3.886-.136.007-1.561c-.923 1.217-2.392 1.79-4.407 1.72a5.019 5.019 0 0 1-2.213-.582 4.084 4.084 0 0 1-1.582-1.448 3.63 3.63 0 0 1-.529-2.06c.074-2.11 1.743-3.357 5.006-3.739l2.892-.308c.338-.036.573-.132.707-.287.149-.155.229-.376.239-.664Zm-2.326 3.353c-.772.085-1.369.232-1.793.441-.407.21-.62.563-.637 1.059-.015.416.149.781.49 1.098.341.316.768.483 1.279.501.88.03 1.567-.17 2.062-.601.512-.446.788-1.229.827-2.348l.017-.504c-.581.14-1.329.258-2.245.354Zm8.363 5.791.607-17.389 3.958.138-.607 17.389-3.958-.138Zm15.081-8.119a1.744 1.744 0 0 0-.872-1.135c-.439-.271-.986-.418-1.642-.441-.656-.023-1.17.047-1.544.21-.358.148-.541.365-.551.653a.76.76 0 0 0 .336.684c.234.169.637.311 1.21.427l2.383.515c1.621.345 2.774.802 3.458 1.37.701.569 1.032 1.405.994 2.508-.05 1.407-.663 2.458-1.84 3.154-1.16.68-2.676.987-4.547.922-1.631-.057-2.978-.433-4.043-1.126-1.064-.71-1.741-1.718-2.031-3.025l3.527-.621c.137.677.432 1.16.886 1.448.455.272 1.058.421 1.81.447.719.025 1.298-.043 1.736-.203.454-.177.688-.441.7-.793.01-.287-.134-.525-.431-.711-.298-.187-.812-.357-1.543-.51l-2.29-.464c-1.304-.254-2.32-.714-3.049-1.38-.713-.681-1.05-1.573-1.012-2.677.029-.815.317-1.509.866-2.083.548-.573 1.275-.996 2.181-1.268.906-.273 1.903-.39 2.99-.352 1.44.05 2.692.406 3.757 1.068 1.067.645 1.763 1.566 2.089 2.762l-3.528.621Z" fill="#fff"/></g><g filter="url(#j)"><rect x="124" y="58" width="103" height="40" rx="20" fill="url(#k)" fill-opacity=".04" shape-rendering="crispEdges"/><rect x="124.5" y="58.5" width="102" height="39" rx="19.5" stroke="url(#l)" stroke-opacity=".64" shape-rendering="crispEdges"/><path d="m149.404 83-2.576-8.218V83h-1.736V72.85h2.758l2.464 8.092 2.45-8.092h2.758V83h-1.736v-8.218L151.21 83h-1.806Zm8.979 2.45.952-2.646-2.646-7.196h1.82l1.708 5.264 1.708-5.264h1.708l-3.542 9.842h-1.708Zm18.219-5.46c-.262 1.017-.766 1.806-1.512 2.366-.747.55-1.676.826-2.786.826-1.466 0-2.614-.48-3.444-1.442-.831-.961-1.246-2.245-1.246-3.85 0-1.596.429-2.865 1.288-3.808.858-.943 2.02-1.414 3.486-1.414 1.073 0 1.978.28 2.716.84.737.55 1.232 1.335 1.484 2.352l-1.638.364c-.15-.672-.458-1.19-.924-1.554-.458-.364-1.022-.546-1.694-.546-.84 0-1.531.331-2.072.994-.542.663-.812 1.587-.812 2.772 0 1.195.266 2.133.798 2.814.541.681 1.232 1.022 2.072 1.022.7 0 1.278-.177 1.736-.532.466-.364.774-.887.924-1.568l1.624.364Zm3.844 3.192c-.822 0-1.494-.21-2.016-.63-.514-.42-.77-.966-.77-1.638 0-.71.284-1.246.854-1.61.569-.364 1.395-.616 2.478-.756l.882-.126c.326-.056.55-.14.672-.252.121-.121.182-.294.182-.518a.866.866 0 0 0-.406-.77c-.262-.177-.63-.266-1.106-.266-.504 0-.901.117-1.19.35-.29.224-.444.56-.462 1.008l-1.624-.168a2.544 2.544 0 0 1 1.036-1.75c.588-.448 1.325-.672 2.212-.672 2.174 0 3.243 1.05 3.206 3.15 0 .103-.005.383-.014.84-.01.448-.014.798-.014 1.05 0 1.045.074 1.904.224 2.576h-1.54a12.354 12.354 0 0 1-.14-1.078c-.458.84-1.279 1.26-2.464 1.26Zm2.31-3.458v-.35c-.131.037-.574.121-1.33.252-.7.103-1.209.252-1.526.448-.318.196-.476.462-.476.798a.93.93 0 0 0 .378.77c.252.196.588.294 1.008.294 1.297 0 1.946-.737 1.946-2.212Zm7.575-2.422a8.034 8.034 0 0 0-.798-.042c-.56 0-.975.145-1.246.434-.271.28-.406.78-.406 1.498V83h-1.666v-7.392h1.638v1.344c.429-.887 1.111-1.34 2.044-1.358.121 0 .266.01.434.028v1.68Zm5.981-4.452h1.666V83h-1.666v-.994c-.476.784-1.223 1.176-2.24 1.176-.943 0-1.718-.35-2.324-1.05-.607-.7-.91-1.643-.91-2.828 0-1.176.303-2.114.91-2.814.606-.7 1.381-1.05 2.324-1.05 1.017 0 1.764.392 2.24 1.176V72.85Zm-.476 4.578c-.355-.42-.822-.63-1.4-.63-.579 0-1.036.22-1.372.658-.327.439-.49 1.055-.49 1.848 0 .793.163 1.414.49 1.862.336.439.793.658 1.372.658.578 0 1.045-.21 1.4-.63.364-.43.546-1.06.546-1.89 0-.83-.182-1.456-.546-1.876Zm8.514.378c-.177-.728-.756-1.092-1.736-1.092-.392 0-.723.07-.994.21-.27.14-.406.327-.406.56 0 .448.364.747 1.092.896l1.022.21c.878.177 1.545.425 2.002.742.467.317.7.803.7 1.456 0 .747-.308 1.335-.924 1.764-.616.42-1.381.63-2.296.63-.896 0-1.638-.215-2.226-.644-.588-.439-.952-1.003-1.092-1.694l1.554-.322c.168.933.775 1.4 1.82 1.4.467 0 .84-.084 1.12-.252.28-.168.42-.397.42-.686 0-.485-.448-.821-1.344-1.008l-1.134-.238c-.718-.15-1.278-.387-1.68-.714-.401-.336-.602-.821-.602-1.456s.294-1.148.882-1.54c.598-.392 1.33-.588 2.198-.588.747 0 1.41.182 1.988.546.579.364.962.868 1.148 1.512l-1.512.308Z" fill="#fff"/></g><g filter="url(#m)"><rect x="100" y="304" width="278" height="56" rx="28" fill="url(#n)" fill-opacity=".4" shape-rendering="crispEdges"/><rect x="100.5" y="304.5" width="277" height="55" rx="27.5" stroke="#516EB0" shape-rendering="crispEdges"/><path d="M173 337.75a.75.75 0 0 0 0-1.5v1.5Zm8.25-8.75a.75.75 0 0 0 1.5 0h-1.5Zm-18.032 6.908.668-.341-.668.341Zm.874.874.341-.668-.341.668Zm16.816-12.564.34-.668-.34.668Zm.874.874-.668.341.668-.341Zm-17.69-.874-.34-.668.34.668Zm-.874.874-.668-.34.668.34ZM177.75 336a.75.75 0 0 0-1.5 0h1.5Zm-.026 4.638.335.671-.335-.671Zm1.052-.526.336.671-.336-.671Zm.448 0-.336.671.336-.671Zm1.052.526-.335.671.335-.671ZM181.75 336a.75.75 0 0 0-1.5 0h1.5ZM167 328.25a.75.75 0 0 0 0 1.5v-1.5Zm5 1.5a.75.75 0 0 0 0-1.5v1.5Zm-5 1.5a.75.75 0 0 0 0 1.5v-1.5Zm2 1.5a.75.75 0 0 0 0-1.5v1.5Zm-2.8-8h12.6v-1.5h-12.6v1.5Zm-2.45 9.05v-6.6h-1.5v6.6h1.5Zm9.25 2.45h-6.8v1.5h6.8v-1.5Zm8.25-9.05v1.8h1.5v-1.8h-1.5Zm-19 6.6c0 .548-.001 1.004.03 1.375.031.38.098.736.27 1.073l1.336-.681c-.046-.09-.088-.227-.111-.514a17.27 17.27 0 0 1-.025-1.253h-1.5Zm3.95 2.45c-.572 0-.957-.001-1.253-.025-.287-.023-.424-.065-.514-.111l-.681 1.336c.337.172.693.239 1.073.27.371.031.827.03 1.375.03v-1.5Zm-3.65-.002c.263.518.684.939 1.202 1.202l.681-1.336a1.247 1.247 0 0 1-.547-.547l-1.336.681Zm16.25-11.498c.572 0 .957.001 1.253.025.287.023.424.065.514.111l.681-1.336c-.337-.172-.693-.239-1.073-.27-.371-.031-.827-.03-1.375-.03v1.5Zm3.95 2.45c0-.548.001-1.004-.03-1.375-.031-.38-.098-.736-.27-1.073l-1.336.681c.046.09.088.227.111.514.024.296.025.681.025 1.253h1.5Zm-2.183-2.314c.236.12.427.311.547.547l1.336-.681a2.739 2.739 0 0 0-1.202-1.202l-.681 1.336ZM166.2 323.25c-.548 0-1.004-.001-1.375.03-.38.031-.736.098-1.073.27l.681 1.336c.09-.046.227-.088.514-.111a17.27 17.27 0 0 1 1.253-.025v-1.5Zm-2.45 3.95c0-.572.001-.957.025-1.253.023-.287.065-.424.111-.514l-1.336-.681c-.172.337-.239.693-.27 1.073-.031.371-.03.827-.03 1.375h1.5Zm.002-3.65a2.739 2.739 0 0 0-1.202 1.202l1.336.681c.12-.236.311-.427.547-.547l-.681-1.336ZM182.25 332a3.25 3.25 0 0 1-3.25 3.25v1.5a4.75 4.75 0 0 0 4.75-4.75h-1.5Zm-3.25 3.25a3.25 3.25 0 0 1-3.25-3.25h-1.5a4.75 4.75 0 0 0 4.75 4.75v-1.5Zm-3.25-3.25a3.25 3.25 0 0 1 3.25-3.25v-1.5a4.75 4.75 0 0 0-4.75 4.75h1.5Zm3.25-3.25a3.25 3.25 0 0 1 3.25 3.25h1.5a4.75 4.75 0 0 0-4.75-4.75v1.5Zm-2.75 7.25v4.191h1.5V336h-1.5Zm1.809 5.309 1.053-.526-.671-1.342-1.053.526.671 1.342Zm.829-.526 1.053.526.671-1.342-1.053-.526-.671 1.342Zm2.862-.592V336h-1.5v4.191h1.5Zm-1.809 1.118a1.25 1.25 0 0 0 1.809-1.118h-1.5a.25.25 0 0 1 .362-.224l-.671 1.342Zm-.829-.526a.252.252 0 0 1-.224 0l.671-1.342a1.25 1.25 0 0 0-1.118 0l.671 1.342Zm-2.862-.592a1.25 1.25 0 0 0 1.809 1.118l-.671-1.342a.25.25 0 0 1 .362.224h-1.5ZM167 329.75h5v-1.5h-5v1.5Zm0 3h2v-1.5h-2v1.5ZM206.856 332.104a7.992 7.992 0 0 1-.608.016h-1.968V337h-2.032v-11.6h3.696c1.792 0 3.099.245 3.92.736.832.491 1.248 1.36 1.248 2.608 0 1.493-.725 2.491-2.176 2.992l2.656 5.264h-2.288l-2.448-4.896Zm-2.576-5.072v3.472h2.016c.928 0 1.616-.123 2.064-.368.448-.256.672-.715.672-1.376 0-.693-.235-1.152-.704-1.376-.469-.235-1.168-.352-2.096-.352h-1.952Zm12.347 1.328c1.323 0 2.352.459 3.088 1.376.747.907 1.077 2.091.992 3.552h-6.32c.021.736.256 1.312.704 1.728a2.386 2.386 0 0 0 1.632.608c1.067 0 1.765-.405 2.096-1.216l1.744.352a3.596 3.596 0 0 1-1.376 1.776c-.651.448-1.467.672-2.448.672-1.355 0-2.411-.427-3.168-1.28-.747-.864-1.12-1.936-1.12-3.216 0-1.28.384-2.325 1.152-3.136.779-.811 1.787-1.216 3.024-1.216Zm-2.24 3.536h4.384c-.021-.629-.235-1.125-.64-1.488-.405-.373-.907-.56-1.504-.56-.555 0-1.051.171-1.488.512-.437.331-.688.843-.752 1.536Zm13.82-6.496h1.904V337h-1.904v-1.136c-.544.896-1.398 1.344-2.56 1.344-1.078 0-1.963-.4-2.656-1.2-.694-.8-1.04-1.877-1.04-3.232 0-1.344.346-2.416 1.04-3.216.693-.8 1.578-1.2 2.656-1.2 1.162 0 2.016.448 2.56 1.344V325.4Zm-.544 5.232c-.406-.48-.939-.72-1.6-.72-.662 0-1.184.251-1.568.752-.374.501-.56 1.205-.56 2.112s.186 1.616.56 2.128c.384.501.906.752 1.568.752.661 0 1.194-.24 1.6-.72.416-.491.624-1.211.624-2.16 0-.949-.208-1.664-.624-2.144Zm8.355-2.272c1.322 0 2.352.459 3.088 1.376.746.907 1.077 2.091.992 3.552h-6.32c.021.736.256 1.312.704 1.728a2.382 2.382 0 0 0 1.632.608c1.066 0 1.765-.405 2.096-1.216l1.744.352a3.601 3.601 0 0 1-1.376 1.776c-.651.448-1.467.672-2.448.672-1.355 0-2.411-.427-3.168-1.28-.747-.864-1.12-1.936-1.12-3.216 0-1.28.384-2.325 1.152-3.136.778-.811 1.786-1.216 3.024-1.216Zm-2.24 3.536h4.384c-.022-.629-.235-1.125-.64-1.488-.406-.373-.907-.56-1.504-.56-.555 0-1.051.171-1.488.512-.438.331-.688.843-.752 1.536Zm11.755-3.536c1.323 0 2.352.459 3.088 1.376.747.907 1.078 2.091.992 3.552h-6.32c.022.736.256 1.312.704 1.728a2.386 2.386 0 0 0 1.632.608c1.067 0 1.766-.405 2.096-1.216l1.744.352a3.59 3.59 0 0 1-1.376 1.776c-.65.448-1.466.672-2.448.672-1.354 0-2.41-.427-3.168-1.28-.746-.864-1.12-1.936-1.12-3.216 0-1.28.384-2.325 1.152-3.136.779-.811 1.787-1.216 3.024-1.216Zm-2.24 3.536h4.384c-.021-.629-.234-1.125-.64-1.488-.405-.373-.906-.56-1.504-.56a2.36 2.36 0 0 0-1.488.512c-.437.331-.688.843-.752 1.536Zm9.966 5.104h-1.904v-8.448h1.904v1.2c.512-.928 1.344-1.392 2.496-1.392 1.248 0 2.085.507 2.512 1.52.683-1.013 1.616-1.52 2.8-1.52 1.877 0 2.816 1.131 2.816 3.392V337h-1.904v-4.784c0-.352-.016-.64-.048-.864a2.425 2.425 0 0 0-.176-.704 1.022 1.022 0 0 0-.464-.544c-.213-.128-.491-.192-.832-.192-1.259 0-1.888.891-1.888 2.672V337h-1.904v-4.784c0-.352-.016-.64-.048-.864a2.425 2.425 0 0 0-.176-.704 1.022 1.022 0 0 0-.464-.544c-.213-.128-.491-.192-.832-.192-1.259 0-1.888.891-1.888 2.672V337Zm20.376-11.6c.576 0 1.077.021 1.504.064.426.043.864.139 1.312.288.458.149.832.352 1.12.608.288.256.522.613.704 1.072.192.448.287.987.287 1.616 0 .704-.122 1.301-.367 1.792-.246.48-.603.848-1.072 1.104a5.6 5.6 0 0 1-1.536.528c-.544.096-1.184.144-1.92.144h-1.824V337h-2.032v-11.6h3.824Zm-1.792 1.632v3.92h1.888c.896 0 1.573-.123 2.032-.368.458-.256.688-.763.688-1.52 0-.448-.075-.816-.224-1.104a1.327 1.327 0 0 0-.672-.624 3.106 3.106 0 0 0-.864-.24 7.126 7.126 0 0 0-1.056-.064h-1.792Zm14.573 2.464c.821.757 1.232 1.856 1.232 3.296 0 1.44-.411 2.539-1.232 3.296-.822.747-1.808 1.12-2.96 1.12s-2.139-.373-2.96-1.12c-.822-.757-1.232-1.856-1.232-3.296 0-1.44.41-2.539 1.232-3.296.821-.757 1.808-1.136 2.96-1.136s2.138.379 2.96 1.136Zm-1.376 5.424c.426-.491.64-1.2.64-2.128 0-.928-.214-1.637-.64-2.128-.416-.501-.944-.752-1.584-.752-.64 0-1.174.251-1.6.752-.416.491-.624 1.2-.624 2.128 0 .928.208 1.637.624 2.128.426.491.96.736 1.6.736.64 0 1.168-.245 1.584-.736Zm6.235-9.52v1.92h-1.904v-1.92h1.904Zm0 3.152V337h-1.904v-8.448h1.904Zm4.203 1.2c.512-.928 1.381-1.392 2.608-1.392 1.952 0 2.928 1.131 2.928 3.392V337h-1.904v-4.784c0-.267-.011-.496-.032-.688a3.378 3.378 0 0 0-.128-.624 1.303 1.303 0 0 0-.272-.512 1.104 1.104 0 0 0-.48-.336 1.67 1.67 0 0 0-.72-.144c-1.333 0-2 .891-2 2.672V337h-1.904v-8.448h1.904v1.2Zm9.85 4.944c0 .352.069.597.208.736.149.139.368.208.656.208.213 0 .443-.021.688-.064l.128 1.424a6.905 6.905 0 0 1-1.136.096c-.821 0-1.435-.181-1.84-.544-.405-.373-.608-.96-.608-1.76v-4.864h-1.28v-1.376h1.28v-2.272h1.904v2.272h1.728v1.376h-1.728v4.768Zm8.394-3.632c-.203-.832-.864-1.248-1.984-1.248-.448 0-.827.08-1.136.24-.31.16-.464.373-.464.64 0 .512.416.853 1.248 1.024l1.168.24c1.002.203 1.765.485 2.288.848.533.363.8.917.8 1.664 0 .853-.352 1.525-1.056 2.016-.704.48-1.579.72-2.624.72-1.024 0-1.872-.245-2.544-.736-.672-.501-1.088-1.147-1.248-1.936l1.776-.368c.192 1.067.885 1.6 2.08 1.6.533 0 .96-.096 1.28-.288.32-.192.48-.453.48-.784 0-.555-.512-.939-1.536-1.152l-1.296-.272c-.822-.171-1.462-.443-1.92-.816-.459-.384-.688-.939-.688-1.664s.336-1.312 1.008-1.76c.682-.448 1.52-.672 2.512-.672.853 0 1.61.208 2.272.624a2.958 2.958 0 0 1 1.312 1.728l-1.728.352Z" fill="#fff"/></g></g><defs><linearGradient id="e" x1="222.05" y1="98" x2="309.979" y2="146.761" gradientUnits="userSpaceOnUse"><stop stop-color="#111"/><stop offset="1" stop-color="#A8ABEF"/></linearGradient><linearGradient id="n" x1="227.058" y1="239.178" x2="278.015" y2="419.975" gradientUnits="userSpaceOnUse"><stop stop-color="#C9DCFF"/><stop offset="1" stop-color="#1F50A5" stop-opacity=".4"/></linearGradient><linearGradient id="l" x1="134.3" y1="43.333" x2="193.264" y2="128.126" gradientUnits="userSpaceOnUse"><stop stop-color="#fff"/><stop offset="1" stop-color="#E3E3E3" stop-opacity="0"/></linearGradient><linearGradient id="k" x1="110.839" y1="98" x2="192.572" y2="137.901" gradientUnits="userSpaceOnUse"><stop stop-color="#111"/><stop offset="1" stop-color="#A8ABEF"/></linearGradient><linearGradient id="i" x1="148.148" y1="104.528" x2="340.92" y2="275.079" gradientUnits="userSpaceOnUse"><stop stop-color="#fff"/><stop offset="1" stop-opacity="0"/></linearGradient><linearGradient id="b" x1="84.567" y1="344" x2="320.364" y2="381.406" gradientUnits="userSpaceOnUse"><stop stop-color="#111"/><stop offset="1" stop-color="#A8ABEF"/></linearGradient><linearGradient id="c" x1="140.6" y1="-57.8" x2="495.219" y2="107.907" gradientUnits="userSpaceOnUse"><stop stop-color="#fff"/><stop offset="1" stop-color="#E3E3E3" stop-opacity="0"/></linearGradient><linearGradient id="h" x1="110.865" y1="266.661" x2="327.023" y2="129.655" gradientUnits="userSpaceOnUse"><stop stop-color="#5D6799"/><stop offset="1" stop-color="#fff"/></linearGradient><linearGradient id="f" x1="248.7" y1="43.333" x2="304.717" y2="134.837" gradientUnits="userSpaceOnUse"><stop stop-color="#fff"/><stop offset="1" stop-color="#E3E3E3" stop-opacity="0"/></linearGradient><filter id="d" x="168" y="8" width="245" height="168" filterUnits="userSpaceOnUse" color-interpolation-filters="sRGB"><feFlood flood-opacity="0" result="BackgroundImageFix"/><feGaussianBlur in="BackgroundImageFix" stdDeviation="20"/><feComposite in2="SourceAlpha" operator="in" result="effect1_backgroundBlur_5_60"/><feColorMatrix in="SourceAlpha" values="0 0 0 0 0 0 0 0 0 0 0 0 0 0 0 0 0 0 127 0" result="hardAlpha"/><feOffset dx="-5" dy="14"/><feGaussianBlur stdDeviation="32"/><feComposite in2="hardAlpha" operator="out"/><feColorMatrix values="0 0 0 0 0.294477 0 0 0 0 0.294477 0 0 0 0 0.781136 0 0 0 0.16 0"/><feBlend in2="effect1_backgroundBlur_5_60" result="effect2_dropShadow_5_60"/><feBlend in="SourceGraphic" in2="effect2_dropShadow_5_60" result="shape"/></filter><filter id="m" x="76" y="284" width="326" height="108" filterUnits="userSpaceOnUse" color-interpolation-filters="sRGB"><feFlood flood-opacity="0" result="BackgroundImageFix"/><feGaussianBlur in="BackgroundImageFix" stdDeviation="10"/><feComposite in2="SourceAlpha" operator="in" result="effect1_backgroundBlur_5_60"/><feColorMatrix in="SourceAlpha" values="0 0 0 0 0 0 0 0 0 0 0 0 0 0 0 0 0 0 127 0" result="hardAlpha"/><feOffset dy="8"/><feGaussianBlur stdDeviation="12"/><feComposite in2="hardAlpha" operator="out"/><feColorMatrix values="0 0 0 0 0 0 0 0 0 0 0 0 0 0 0 0 0 0 0.12 0"/><feBlend in2="effect1_backgroundBlur_5_60" result="effect2_dropShadow_5_60"/><feBlend in="SourceGraphic" in2="effect2_dropShadow_5_60" result="shape"/><feColorMatrix in="SourceAlpha" values="0 0 0 0 0 0 0 0 0 0 0 0 0 0 0 0 0 0 127 0" result="hardAlpha"/><feOffset/><feGaussianBlur stdDeviation="4"/><feComposite in2="hardAlpha" operator="arithmetic" k2="-1" k3="1"/><feColorMatrix values="0 0 0 0 0.0630335 0 0 0 0 0.0844577 0 0 0 0 0.160417 0 0 0 0.32 0"/><feBlend in2="shape" result="effect3_innerShadow_5_60"/><feColorMatrix in="SourceAlpha" values="0 0 0 0 0 0 0 0 0 0 0 0 0 0 0 0 0 0 127 0" result="hardAlpha"/><feOffset dx="1" dy="1"/><feGaussianBlur stdDeviation=".5"/><feComposite in2="hardAlpha" operator="arithmetic" k2="-1" k3="1"/><feColorMatrix values="0 0 0 0 1 0 0 0 0 1 0 0 0 0 1 0 0 0 0.24 0"/><feBlend in2="effect3_innerShadow_5_60" result="effect4_innerShadow_5_60"/></filter><filter id="j" x="55" y="8" width="231" height="168" filterUnits="userSpaceOnUse" color-interpolation-filters="sRGB"><feFlood flood-opacity="0" result="BackgroundImageFix"/><feGaussianBlur in="BackgroundImageFix" stdDeviation="20"/><feComposite in2="SourceAlpha" operator="in" result="effect1_backgroundBlur_5_60"/><feColorMatrix in="SourceAlpha" values="0 0 0 0 0 0 0 0 0 0 0 0 0 0 0 0 0 0 127 0" result="hardAlpha"/><feOffset dx="-5" dy="14"/><feGaussianBlur stdDeviation="32"/><feComposite in2="hardAlpha" operator="out"/><feColorMatrix values="0 0 0 0 0.294477 0 0 0 0 0.294477 0 0 0 0 0.781136 0 0 0 0.16 0"/><feBlend in2="effect1_backgroundBlur_5_60" result="effect2_dropShadow_5_60"/><feBlend in="SourceGraphic" in2="effect2_dropShadow_5_60" result="shape"/></filter><filter id="g" x="29.281" y="93.861" width="325.438" height="248.278" filterUnits="userSpaceOnUse" color-interpolation-filters="sRGB"><feFlood flood-opacity="0" result="BackgroundImageFix"/><feColorMatrix in="SourceAlpha" values="0 0 0 0 0 0 0 0 0 0 0 0 0 0 0 0 0 0 127 0" result="hardAlpha"/><feOffset dy="16"/><feGaussianBlur stdDeviation="20"/><feComposite in2="hardAlpha" operator="out"/><feColorMatrix values="0 0 0 0 0 0 0 0 0 0 0 0 0 0 0 0 0 0 0.24 0"/><feBlend in2="BackgroundImageFix" result="effect1_dropShadow_5_60"/><feBlend in="SourceGraphic" in2="effect1_dropShadow_5_60" result="shape"/><feColorMatrix in="SourceAlpha" values="0 0 0 0 0 0 0 0 0 0 0 0 0 0 0 0 0 0 127 0" result="hardAlpha"/><feOffset dy="4"/><feGaussianBlur stdDeviation="4"/><feComposite in2="hardAlpha" operator="arithmetic" k2="-1" k3="1"/><feColorMatrix values="0 0 0 0 0.074145 0 0 0 0 0.125221 0 0 0 0 0.256559 0 0 0 0.24 0"/><feBlend in2="shape" result="effect2_innerShadow_5_60"/></filter><filter id="a" x=".281" y="0" width="436.719" height="438" filterUnits="userSpaceOnUse" color-interpolation-filters="sRGB"><feFlood flood-opacity="0" result="BackgroundImageFix"/><feGaussianBlur in="BackgroundImageFix" stdDeviation="20"/><feComposite in2="SourceAlpha" operator="in" result="effect1_backgroundBlur_5_60"/><feColorMatrix in="SourceAlpha" values="0 0 0 0 0 0 0 0 0 0 0 0 0 0 0 0 0 0 127 0" result="hardAlpha"/><feOffset dx="-5" dy="14"/><feGaussianBlur stdDeviation="32"/><feComposite in2="hardAlpha" operator="out"/><feColorMatrix values="0 0 0 0 0.294477 0 0 0 0 0.294477 0 0 0 0 0.781136 0 0 0 0.16 0"/><feBlend in2="effect1_backgroundBlur_5_60" result="effect2_dropShadow_5_60"/><feBlend in="SourceGraphic" in2="effect2_dropShadow_5_60" result="shape"/></filter></defs></svg>