<svg width="437" height="438" viewBox="0 0 437 438" fill="none" xmlns="http://www.w3.org/2000/svg">
<g filter="url(#filter0_bd_5_60)">
<rect x="116" y="50" width="246" height="294" rx="16" fill="url(#paint0_linear_5_60)" fill-opacity="0.04" shape-rendering="crispEdges"/>
<rect x="116.5" y="50.5" width="245" height="293" rx="15.5" stroke="url(#paint1_linear_5_60)" stroke-opacity="0.64" shape-rendering="crispEdges"/>
<g filter="url(#filter1_bd_5_60)">
<rect x="237" y="58" width="117" height="40" rx="20" fill="url(#paint2_linear_5_60)" fill-opacity="0.04" shape-rendering="crispEdges"/>
<rect x="237.5" y="58.5" width="116" height="39" rx="19.5" stroke="url(#paint3_linear_5_60)" stroke-opacity="0.64" shape-rendering="crispEdges"/>
<path d="M262.404 83L259.828 74.782V83H258.092V72.85H260.85L263.314 80.942L265.764 72.85H268.522V83H266.786V74.782L264.21 83H262.404ZM271.383 85.45L272.335 82.804L269.689 75.608H271.509L273.217 80.872L274.925 75.608H276.633L273.091 85.45H271.383ZM281.02 72.85H284.842C287.278 72.85 288.496 73.7133 288.496 75.44C288.496 75.8973 288.384 76.3267 288.16 76.728C287.945 77.1293 287.679 77.4233 287.362 77.61C288.379 78.0673 288.888 78.8607 288.888 79.99C288.888 81.0167 288.538 81.7773 287.838 82.272C287.138 82.7573 286.223 83 285.094 83H281.02V72.85ZM282.798 77.092H285.01C286.13 77.092 286.69 76.6067 286.69 75.636C286.69 75.1973 286.536 74.8613 286.228 74.628C285.929 74.3947 285.523 74.278 285.01 74.278H282.798V77.092ZM282.798 81.572H285.164C286.424 81.572 287.054 81.0447 287.054 79.99C287.054 78.9633 286.391 78.45 285.066 78.45H282.798V81.572ZM292.748 83.182C291.927 83.182 291.255 82.972 290.732 82.552C290.219 82.132 289.962 81.586 289.962 80.914C289.962 80.2047 290.247 79.668 290.816 79.304C291.386 78.94 292.212 78.688 293.294 78.548L294.176 78.422C294.503 78.366 294.727 78.282 294.848 78.17C294.97 78.0487 295.03 77.876 295.03 77.652C295.03 77.316 294.895 77.0593 294.624 76.882C294.363 76.7047 293.994 76.616 293.518 76.616C293.014 76.616 292.618 76.7327 292.328 76.966C292.039 77.19 291.885 77.526 291.866 77.974L290.242 77.806C290.345 77.078 290.69 76.4947 291.278 76.056C291.866 75.608 292.604 75.384 293.49 75.384C295.665 75.384 296.734 76.434 296.696 78.534C296.696 78.6367 296.692 78.9167 296.682 79.374C296.673 79.822 296.668 80.172 296.668 80.424C296.668 81.4693 296.743 82.328 296.892 83H295.352C295.278 82.5427 295.231 82.1833 295.212 81.922C294.755 82.762 293.934 83.182 292.748 83.182ZM295.058 79.724V79.374C294.928 79.4113 294.484 79.4953 293.728 79.626C293.028 79.7287 292.52 79.878 292.202 80.074C291.885 80.27 291.726 80.536 291.726 80.872C291.726 81.1893 291.852 81.446 292.104 81.642C292.356 81.838 292.692 81.936 293.112 81.936C294.41 81.936 295.058 81.1987 295.058 79.724ZM300.184 83H298.518V72.85H300.184V83ZM304.534 83.182C303.712 83.182 303.04 82.972 302.518 82.552C302.004 82.132 301.748 81.586 301.748 80.914C301.748 80.2047 302.032 79.668 302.602 79.304C303.171 78.94 303.997 78.688 305.08 78.548L305.962 78.422C306.288 78.366 306.512 78.282 306.634 78.17C306.755 78.0487 306.816 77.876 306.816 77.652C306.816 77.316 306.68 77.0593 306.41 76.882C306.148 76.7047 305.78 76.616 305.303 76.616C304.8 76.616 304.403 76.7327 304.114 76.966C303.824 77.19 303.67 77.526 303.652 77.974L302.028 77.806C302.13 77.078 302.476 76.4947 303.064 76.056C303.652 75.608 304.389 75.384 305.276 75.384C307.45 75.384 308.519 76.434 308.482 78.534C308.482 78.6367 308.477 78.9167 308.468 79.374C308.458 79.822 308.454 80.172 308.454 80.424C308.454 81.4693 308.528 82.328 308.678 83H307.138C307.063 82.5427 307.016 82.1833 306.998 81.922C306.54 82.762 305.719 83.182 304.534 83.182ZM306.844 79.724V79.374C306.713 79.4113 306.27 79.4953 305.514 79.626C304.814 79.7287 304.305 79.878 303.988 80.074C303.67 80.27 303.512 80.536 303.512 80.872C303.512 81.1893 303.638 81.446 303.89 81.642C304.142 81.838 304.478 81.936 304.898 81.936C306.195 81.936 306.844 81.1987 306.844 79.724ZM311.969 76.658C312.417 75.846 313.178 75.44 314.251 75.44C315.959 75.44 316.813 76.4293 316.813 78.408V83H315.147V78.814C315.147 78.5807 315.138 78.38 315.119 78.212C315.1 78.0347 315.063 77.8527 315.007 77.666C314.951 77.4793 314.872 77.33 314.769 77.218C314.676 77.0967 314.536 76.9987 314.349 76.924C314.172 76.84 313.962 76.798 313.719 76.798C312.552 76.798 311.969 77.5773 311.969 79.136V83H310.303V75.608H311.969V76.658ZM325.082 77.82L323.542 78.156C323.458 77.7547 323.266 77.4327 322.968 77.19C322.669 76.9473 322.277 76.826 321.792 76.826C321.232 76.826 320.774 77.0313 320.42 77.442C320.074 77.8527 319.902 78.4733 319.902 79.304C319.902 80.1347 320.074 80.76 320.42 81.18C320.774 81.5907 321.232 81.796 321.792 81.796C322.79 81.796 323.392 81.348 323.598 80.452L325.138 80.788C324.914 81.544 324.494 82.132 323.878 82.552C323.262 82.972 322.557 83.182 321.764 83.182C320.672 83.182 319.799 82.8227 319.146 82.104C318.502 81.376 318.18 80.4473 318.18 79.318C318.18 78.1887 318.506 77.26 319.16 76.532C319.822 75.804 320.714 75.44 321.834 75.44C322.618 75.44 323.304 75.6547 323.892 76.084C324.48 76.5133 324.876 77.092 325.082 77.82ZM329.832 75.44C330.989 75.44 331.89 75.8413 332.534 76.644C333.187 77.4373 333.476 78.4733 333.402 79.752H327.872C327.89 80.396 328.096 80.9 328.488 81.264C328.889 81.6187 329.365 81.796 329.916 81.796C330.849 81.796 331.46 81.4413 331.75 80.732L333.276 81.04C333.042 81.684 332.641 82.202 332.072 82.594C331.502 82.986 330.788 83.182 329.93 83.182C328.744 83.182 327.82 82.8087 327.158 82.062C326.504 81.306 326.178 80.368 326.178 79.248C326.178 78.128 326.514 77.2133 327.186 76.504C327.867 75.7947 328.749 75.44 329.832 75.44ZM327.872 78.534H331.708C331.689 77.9833 331.502 77.5493 331.148 77.232C330.793 76.9053 330.354 76.742 329.832 76.742C329.346 76.742 328.912 76.8913 328.53 77.19C328.147 77.4793 327.928 77.9273 327.872 78.534Z" fill="white"/>
</g>
<g filter="url(#filter2_di_5_60)">
<rect x="74.8653" y="117.861" width="240" height="160" rx="16" transform="rotate(2 74.8653 117.861)" fill="url(#paint4_linear_5_60)"/>
<rect x="75.3475" y="118.378" width="239" height="159" rx="15.5" transform="rotate(2 75.3475 118.378)" stroke="url(#paint5_linear_5_60)"/>
<path d="M109.607 139.074C104.962 138.911 101.364 142.196 101.207 146.713C101.049 151.231 104.463 154.754 109.146 154.918C110.91 154.98 112.592 154.569 114.018 153.719C115.344 152.925 116.395 151.794 117.061 150.437L113.572 150.315C112.671 151.522 111.044 152.224 109.308 152.163C106.838 152.077 104.975 150.506 104.547 148.161L104.509 147.985L117.376 148.435C117.436 148.098 117.475 147.625 117.486 147.309L117.496 147.309C117.655 142.776 114.269 139.236 109.612 139.074L109.607 139.074ZM104.618 145.49L104.679 145.307C105.364 143.116 107.259 141.752 109.516 141.831C111.774 141.91 113.644 143.443 114.132 145.637L114.18 145.824L104.623 145.49L104.618 145.49Z" fill="white"/>
<path d="M94.8292 142.48C94.1078 143.066 93.783 143.966 93.7512 144.876L93.4199 154.363L89.605 154.23L90.1574 138.411L93.8747 138.541L93.8033 140.584L94.1643 140.204C94.9146 139.412 96.4903 138.632 98.3136 138.696C99.8819 138.75 100.954 139.17 101.963 140.133L99.8947 143.208C99.2605 142.542 98.5177 142.031 97.5986 141.901C97.3282 141.864 97.0519 141.843 96.7747 141.845C96.0736 141.853 95.383 142.025 94.8292 142.48Z" fill="white"/>
<path d="M125.687 155.49C129.768 155.633 132.805 153.753 132.901 151.012C132.981 148.712 130.993 147.142 126.82 146.222C124.215 145.673 122.912 144.869 122.948 143.828C122.984 142.787 124.325 142.059 126.072 142.12C127.819 142.181 129.216 143.108 129.175 144.269L129.173 144.345L132.787 144.471L132.79 144.395C132.88 141.801 130.04 139.743 126.187 139.609C122.334 139.474 119.413 141.282 119.322 143.903C119.243 146.154 121.292 147.84 125.088 148.66C127.92 149.256 129.283 150.067 129.245 151.135C129.206 152.258 127.738 153.057 125.834 152.991C123.929 152.924 122.324 151.886 122.368 150.633L122.371 150.557L118.757 150.43L118.754 150.507C118.659 153.215 121.643 155.36 125.692 155.501" fill="white"/>
<path d="M153.455 153.486C152.418 153.45 151.582 153.301 151.694 151.493L152.075 140.557L148.706 140.439L148.6 143.452L148.357 143.122C147.044 141.341 145.043 140.311 142.725 140.23L142.715 140.23C138.129 140.07 134.548 143.349 134.39 147.867C134.233 152.384 137.576 155.911 142.161 156.071C144.549 156.154 146.735 155.167 148.151 153.377L148.333 153.144L148.399 153.43C148.781 155.074 150.171 156.345 152.44 156.424L153.34 156.456L153.444 153.486L153.455 153.486ZM142.623 153.108C139.812 153.01 137.765 150.805 137.864 147.982C137.962 145.16 140.158 143.109 142.969 143.207C145.78 143.305 147.795 145.508 147.697 148.326C147.598 151.143 145.424 153.206 142.623 153.108Z" fill="white"/>
<path d="M167.185 153.164C167.185 153.164 165.957 154.108 164.478 153.98C163.427 153.889 163.219 153.62 163.219 153.62C163.219 153.62 166.814 150.112 167.244 144.022C167.593 139.151 164.892 137.152 162.254 136.929C159.589 136.7 156.63 138.49 156.056 142.954C155.295 148.88 158.649 153.351 158.649 153.351C158.649 153.351 158.037 153.766 156.087 153.578L155.983 156.548C155.983 156.548 159.012 156.785 160.758 155.64C161.487 156.244 162.83 157.142 165.058 156.996C166.964 156.871 168.597 155.837 168.597 155.837L167.18 153.158L167.185 153.164ZM161.091 151.549C160.311 150.398 159.298 147.667 159.41 144.463C159.478 142.512 160.083 140.443 161.961 140.64C163.742 140.822 163.942 142.891 163.696 144.792C163.284 148.024 162.116 150.526 161.086 151.554L161.091 151.549Z" fill="white"/>
<path d="M98.48 222.599L99.9771 222.651L97.0904 232.707L95.3555 232.646L93.6879 224.239L91.4798 232.511L89.7449 232.45L87.5247 222.216L89.0917 222.271L90.753 230.86L92.9254 222.405L94.6044 222.464L96.3076 231.054L98.48 222.599ZM105.282 232.993C105.239 232.636 105.219 232.267 105.223 231.884C104.689 232.724 103.816 233.124 102.603 233.081C102.109 233.064 101.669 232.955 101.284 232.755C100.899 232.555 100.6 232.283 100.388 231.939C100.176 231.596 100.077 231.209 100.092 230.78C100.118 230.053 100.439 229.532 101.057 229.217C101.685 228.893 102.58 228.668 103.743 228.54L104.615 228.431C104.85 228.392 105.02 228.323 105.127 228.224C105.242 228.116 105.304 227.946 105.313 227.712C105.325 227.349 105.177 227.059 104.867 226.842C104.557 226.617 104.146 226.495 103.633 226.477C103.054 226.457 102.607 226.572 102.29 226.822C101.982 227.073 101.806 227.436 101.761 227.911L100.463 227.781C100.527 227.279 100.711 226.847 101.013 226.484C101.324 226.121 101.712 225.854 102.175 225.684C102.639 225.504 103.142 225.423 103.683 225.442C104.718 225.478 105.466 225.733 105.925 226.207C106.385 226.671 106.592 227.43 106.546 228.484L106.473 230.19C106.423 231.356 106.455 232.305 106.569 233.038L105.282 232.993ZM104.604 231.568C105.056 231.192 105.298 230.542 105.33 229.618L105.342 229.282C105.182 229.324 104.984 229.363 104.749 229.402C104.524 229.431 104.36 229.454 104.257 229.469L103.876 229.525C103.022 229.645 102.415 229.797 102.053 229.98C101.702 230.155 101.519 230.438 101.505 230.83C101.493 231.193 101.613 231.492 101.866 231.725C102.12 231.948 102.471 232.068 102.918 232.084C103.599 232.107 104.161 231.936 104.604 231.568ZM108.463 233.104L108.817 222.96L110.09 223.004L109.736 233.148L108.463 233.104ZM111.893 233.223L112.247 223.08L113.52 223.124L113.166 233.268L111.893 233.223ZM116.304 230.086C116.288 230.543 116.372 230.956 116.555 231.327C116.739 231.688 117.004 231.973 117.352 232.181C117.699 232.39 118.088 232.501 118.517 232.516C119.524 232.551 120.225 232.156 120.618 231.329L121.824 231.679C121.55 232.314 121.122 232.808 120.54 233.161C119.967 233.505 119.266 233.663 118.436 233.634C117.662 233.607 117.005 233.416 116.467 233.061C115.928 232.706 115.529 232.234 115.269 231.646C115.019 231.059 114.907 230.401 114.932 229.673C114.958 228.918 115.135 228.261 115.463 227.703C115.791 227.135 116.236 226.702 116.797 226.404C117.359 226.107 117.984 225.97 118.675 225.994C119.393 226.019 120.007 226.204 120.518 226.548C121.029 226.893 121.415 227.36 121.674 227.948C121.934 228.526 122.052 229.175 122.027 229.893C122.021 230.061 122.011 230.191 121.999 230.284L116.304 230.086ZM118.637 227.085C118.002 227.063 117.478 227.222 117.065 227.563C116.651 227.903 116.415 228.38 116.356 228.995L120.694 229.146C120.694 228.595 120.515 228.122 120.155 227.726C119.796 227.322 119.289 227.108 118.637 227.085ZM125.479 224.466L125.413 226.355L126.84 226.405L126.805 227.426L125.378 227.377L125.231 231.56C125.22 231.886 125.226 232.125 125.249 232.275C125.271 232.425 125.328 232.539 125.419 232.617C125.51 232.686 125.658 232.724 125.863 232.731C126.115 232.74 126.382 232.725 126.663 232.689L126.627 233.71C126.205 233.779 125.844 233.809 125.546 233.798C124.921 233.776 124.492 233.607 124.26 233.291C124.029 232.975 123.926 232.434 123.953 231.669L124.104 227.332L122.915 227.291L122.951 226.269L124.14 226.311L124.206 224.422L125.479 224.466ZM135.633 223.896C136.715 223.934 137.572 224.151 138.202 224.546C138.842 224.933 139.146 225.593 139.114 226.525C139.097 227.01 138.979 227.45 138.759 227.844C138.55 228.238 138.268 228.532 137.916 228.725C138.927 229.19 139.412 230.01 139.371 231.185C139.336 232.202 138.974 232.946 138.285 233.417C137.605 233.879 136.72 234.09 135.629 234.052L131.627 233.913L131.982 223.769L135.633 223.896ZM135.706 228.241C136.974 228.286 137.628 227.762 137.666 226.671C137.683 226.167 137.524 225.788 137.187 225.534C136.86 225.27 136.403 225.128 135.815 225.107L133.367 225.022L133.257 228.156L135.706 228.241ZM135.685 232.85C136.403 232.875 136.945 232.744 137.31 232.458C137.684 232.163 137.881 231.726 137.902 231.148C137.922 230.56 137.755 230.125 137.401 229.842C137.047 229.558 136.487 229.403 135.722 229.377L133.218 229.289L133.096 232.759L135.685 232.85ZM145.617 234.401C145.573 234.045 145.554 233.675 145.558 233.292C145.024 234.133 144.151 234.532 142.938 234.49C142.444 234.472 142.004 234.364 141.619 234.163C141.234 233.963 140.935 233.691 140.723 233.348C140.511 233.004 140.412 232.618 140.427 232.189C140.452 231.461 140.774 230.94 141.392 230.625C142.02 230.302 142.915 230.076 144.077 229.949L144.95 229.839C145.185 229.801 145.355 229.732 145.461 229.633C145.577 229.525 145.639 229.354 145.647 229.121C145.66 228.757 145.511 228.467 145.201 228.251C144.892 228.025 144.48 227.904 143.967 227.886C143.389 227.865 142.941 227.981 142.625 228.231C142.317 228.482 142.141 228.844 142.096 229.319L140.798 229.19C140.862 228.688 141.045 228.255 141.348 227.892C141.659 227.529 142.047 227.263 142.51 227.092C142.974 226.912 143.477 226.832 144.018 226.851C145.053 226.887 145.8 227.142 146.26 227.615C146.72 228.08 146.927 228.839 146.881 229.893L146.808 231.599C146.757 232.765 146.79 233.714 146.904 234.446L145.617 234.401ZM144.938 232.977C145.39 232.6 145.633 231.95 145.665 231.027L145.677 230.691C145.516 230.732 145.319 230.772 145.084 230.81C144.859 230.84 144.695 230.862 144.591 230.877L144.211 230.934C143.357 231.054 142.749 231.205 142.388 231.389C142.037 231.563 141.854 231.846 141.84 232.238C141.827 232.602 141.948 232.9 142.201 233.133C142.455 233.357 142.806 233.476 143.253 233.492C143.934 233.516 144.496 233.344 144.938 232.977ZM148.798 234.512L149.152 224.368L150.425 224.413L150.071 234.557L148.798 234.512ZM157.012 234.799C156.969 234.443 156.949 234.073 156.953 233.69C156.419 234.531 155.546 234.93 154.334 234.888C153.839 234.87 153.4 234.762 153.014 234.561C152.629 234.361 152.33 234.089 152.118 233.746C151.906 233.402 151.807 233.016 151.822 232.587C151.848 231.859 152.17 231.338 152.788 231.023C153.415 230.7 154.31 230.474 155.473 230.347L156.345 230.237C156.58 230.199 156.751 230.13 156.857 230.031C156.973 229.923 157.035 229.752 157.043 229.519C157.055 229.155 156.907 228.865 156.597 228.649C156.287 228.423 155.876 228.301 155.363 228.284C154.784 228.263 154.337 228.378 154.02 228.629C153.712 228.88 153.536 229.242 153.492 229.717L152.193 229.588C152.258 229.086 152.441 228.653 152.743 228.29C153.054 227.927 153.442 227.661 153.906 227.49C154.369 227.31 154.872 227.23 155.413 227.249C156.448 227.285 157.196 227.54 157.656 228.013C158.116 228.478 158.323 229.237 158.277 230.29L158.203 231.997C158.153 233.163 158.185 234.112 158.3 234.844L157.012 234.799ZM156.334 233.375C156.786 232.998 157.028 232.348 157.06 231.425L157.072 231.089C156.912 231.13 156.714 231.17 156.479 231.208C156.254 231.238 156.09 231.26 155.987 231.275L155.607 231.332C154.753 231.452 154.145 231.603 153.784 231.787C153.432 231.961 153.249 232.244 153.236 232.636C153.223 233 153.343 233.298 153.597 233.531C153.85 233.755 154.201 233.874 154.649 233.89C155.33 233.914 155.891 233.742 156.334 233.375ZM161.683 228.756C162.225 227.935 163.051 227.543 164.161 227.582C165.812 227.64 166.604 228.634 166.537 230.565L166.377 235.126L165.104 235.082L165.25 230.898C165.274 230.208 165.181 229.672 164.97 229.291C164.769 228.902 164.337 228.695 163.675 228.672C163.05 228.65 162.553 228.847 162.183 229.264C161.824 229.672 161.63 230.272 161.602 231.065L161.466 234.955L160.193 234.91L160.449 227.579L161.722 227.623L161.683 228.756ZM173.484 230.555C173.406 230.095 173.205 229.719 172.879 229.428C172.553 229.136 172.138 228.981 171.634 228.964C171.019 228.942 170.502 229.158 170.085 229.61C169.668 230.053 169.444 230.704 169.414 231.562C169.384 232.429 169.561 233.108 169.945 233.598C170.33 234.087 170.83 234.343 171.446 234.365C171.968 234.383 172.397 234.258 172.733 233.989C173.079 233.712 173.321 233.356 173.457 232.922L174.692 233.273C174.472 233.938 174.061 234.479 173.458 234.897C172.865 235.315 172.167 235.51 171.364 235.482C170.646 235.457 170.032 235.272 169.521 234.928C169.01 234.574 168.625 234.103 168.365 233.515C168.115 232.927 168.003 232.264 168.028 231.528C168.054 230.809 168.221 230.166 168.53 229.598C168.839 229.03 169.27 228.592 169.823 228.284C170.375 227.967 171.02 227.822 171.757 227.847C172.559 227.875 173.218 228.127 173.734 228.603C174.259 229.079 174.59 229.641 174.726 230.291L173.484 230.555ZM177.312 232.216C177.296 232.673 177.38 233.087 177.563 233.457C177.746 233.819 178.012 234.104 178.36 234.312C178.707 234.52 179.096 234.632 179.525 234.647C180.532 234.682 181.232 234.286 181.625 233.459L182.832 233.81C182.558 234.444 182.129 234.938 181.547 235.292C180.975 235.636 180.274 235.793 179.444 235.765C178.669 235.737 178.013 235.546 177.474 235.191C176.936 234.836 176.537 234.365 176.277 233.777C176.027 233.189 175.914 232.531 175.94 231.804C175.966 231.048 176.143 230.391 176.471 229.833C176.799 229.266 177.243 228.833 177.805 228.535C178.366 228.237 178.992 228.1 179.682 228.124C180.401 228.149 181.015 228.334 181.526 228.679C182.037 229.024 182.422 229.49 182.682 230.078C182.942 230.657 183.059 231.305 183.034 232.024C183.028 232.191 183.019 232.322 183.007 232.415L177.312 232.216ZM179.644 229.216C179.01 229.193 178.486 229.353 178.073 229.693C177.659 230.033 177.423 230.511 177.364 231.125L181.702 231.277C181.702 230.726 181.523 230.252 181.163 229.857C180.803 229.452 180.297 229.238 179.644 229.216Z" fill="#E5E5EB"/>
<path d="M100.361 243.035C100.3 244.778 99.5473 246.385 98.1031 247.855C96.6749 249.326 94.566 250.805 91.7764 252.293L100.099 252.584L99.9863 255.822L86.6264 255.355L86.7395 252.117L88.0913 251.228C90.0102 249.918 91.4956 248.873 92.5474 248.093C93.5999 247.298 94.4929 246.48 95.2266 245.641C95.9609 244.786 96.3423 243.951 96.3708 243.136C96.3959 242.416 96.183 241.864 95.7322 241.48C95.2978 241.081 94.7289 240.869 94.0253 240.845C93.2098 240.816 92.5202 241.08 91.9564 241.637C91.3932 242.177 91.1132 243.088 91.1165 244.369L87.2237 243.753C87.2992 242.507 87.6487 241.438 88.2722 240.548C88.8962 239.641 89.7203 238.965 90.7444 238.521C91.7846 238.077 92.9522 237.877 94.2474 237.922C95.4627 237.965 96.5351 238.202 97.4645 238.635C98.4105 239.052 99.1345 239.638 99.6365 240.392C100.155 241.147 100.396 242.028 100.361 243.035ZM102.146 247.156C102.245 244.342 102.961 242.173 104.295 240.651C105.629 239.112 107.504 238.385 109.918 238.47C112.317 238.553 114.128 239.409 115.352 241.037C116.577 242.649 117.14 244.862 117.041 247.676C116.943 250.506 116.226 252.699 114.891 254.253C113.555 255.807 111.689 256.543 109.29 256.459C106.876 256.374 105.057 255.51 103.833 253.867C102.61 252.223 102.048 249.986 102.146 247.156ZM112.988 247.534C113.058 245.52 112.807 244.006 112.234 242.993C111.677 241.965 110.871 241.433 109.816 241.396C108.761 241.359 107.912 241.834 107.269 242.82C106.627 243.79 106.27 245.283 106.2 247.297C106.129 249.344 106.379 250.89 106.951 251.934C107.523 252.963 108.337 253.496 109.392 253.533C110.448 253.569 111.289 253.094 111.916 252.108C112.559 251.106 112.916 249.581 112.988 247.534ZM119.316 247.755C119.414 244.941 120.13 242.773 121.464 241.25C122.799 239.712 124.673 238.985 127.088 239.069C129.486 239.153 131.297 240.009 132.521 241.636C133.746 243.248 134.309 245.461 134.211 248.275C134.112 251.106 133.395 253.298 132.06 254.852C130.725 256.407 128.858 257.142 126.459 257.058C124.045 256.974 122.226 256.11 121.002 254.466C119.779 252.823 119.217 250.586 119.316 247.755ZM130.157 248.134C130.227 246.119 129.976 244.605 129.403 243.593C128.847 242.565 128.041 242.032 126.985 241.996C125.93 241.959 125.081 242.433 124.438 243.419C123.796 244.39 123.44 245.882 123.369 247.897C123.298 249.944 123.548 251.489 124.12 252.534C124.692 253.563 125.506 254.095 126.562 254.132C127.617 254.169 128.458 253.694 129.085 252.707C129.728 251.705 130.086 250.181 130.157 248.134ZM146.494 250.89L146.265 257.438L142.164 257.295L142.771 239.905L149.463 240.139C151.973 240.226 153.902 240.686 155.25 241.518C156.598 242.349 157.237 243.772 157.166 245.787C157.085 248.106 155.894 249.665 153.593 250.465L157.634 257.835L152.813 257.666L149.276 250.987L146.494 250.89ZM146.614 247.436L149.325 247.531C150.428 247.569 151.28 247.463 151.881 247.212C152.483 246.944 152.797 246.435 152.823 245.683C152.85 244.932 152.564 244.41 151.965 244.117C151.384 243.808 150.549 243.635 149.462 243.597L146.752 243.502L146.614 247.436ZM163.736 243.807L159.779 243.669L159.889 240.503L163.847 240.641L163.736 243.807ZM163.264 258.031L159.282 257.892L159.724 245.228L163.706 245.367L163.264 258.031ZM169.507 258.177L165.125 245.417L169.467 245.568L171.567 253.494L174.384 245.74L178.629 245.888L171.324 262.515L167.679 262.388L169.507 258.177ZM187.115 249.931C187.149 248.955 186.463 248.443 185.056 248.394C184.368 248.37 183.811 248.511 183.384 248.816C182.973 249.122 182.725 249.585 182.639 250.207L178.979 249.791C179.118 249.011 179.463 248.303 180.014 247.666C180.58 247.029 181.318 246.534 182.227 246.182C183.152 245.83 184.206 245.675 185.389 245.716C187.308 245.783 188.732 246.257 189.662 247.138C190.593 248.003 191.009 249.386 190.91 251.288L190.771 253.901C190.722 254.844 190.704 255.804 190.718 256.781C190.733 257.742 190.787 258.48 190.881 258.996L186.995 258.86L187.002 257.299C186.079 258.516 184.61 259.089 182.595 259.019C181.796 258.991 181.058 258.797 180.382 258.437C179.706 258.077 179.179 257.595 178.8 256.989C178.421 256.367 178.245 255.681 178.271 254.929C178.345 252.819 180.014 251.572 183.277 251.19L186.169 250.882C186.507 250.846 186.742 250.75 186.876 250.595C187.025 250.44 187.105 250.219 187.115 249.931ZM184.789 253.284C184.017 253.369 183.42 253.516 182.996 253.725C182.589 253.935 182.376 254.288 182.359 254.784C182.344 255.2 182.508 255.565 182.849 255.882C183.19 256.198 183.617 256.365 184.128 256.383C185.008 256.413 185.695 256.213 186.19 255.782C186.702 255.336 186.978 254.553 187.017 253.434L187.034 252.93C186.453 253.07 185.705 253.188 184.789 253.284ZM193.152 259.075L193.759 241.686L197.717 241.824L197.11 259.213L193.152 259.075ZM208.233 250.956C208.107 250.456 207.816 250.077 207.361 249.821C206.922 249.55 206.375 249.403 205.719 249.38C205.063 249.357 204.549 249.427 204.175 249.59C203.817 249.738 203.634 249.955 203.624 250.243C203.613 250.531 203.726 250.759 203.96 250.927C204.194 251.096 204.597 251.238 205.17 251.354L207.553 251.869C209.174 252.214 210.327 252.671 211.011 253.239C211.712 253.808 212.043 254.644 212.005 255.747C211.955 257.154 211.342 258.205 210.165 258.901C209.005 259.581 207.489 259.888 205.618 259.823C203.987 259.766 202.64 259.39 201.575 258.697C200.511 257.987 199.834 256.979 199.544 255.672L203.071 255.051C203.208 255.728 203.503 256.211 203.957 256.499C204.412 256.771 205.015 256.92 205.767 256.946C206.486 256.971 207.065 256.903 207.503 256.743C207.957 256.566 208.191 256.302 208.203 255.95C208.213 255.663 208.069 255.425 207.772 255.239C207.474 255.052 206.96 254.882 206.229 254.729L203.939 254.265C202.635 254.011 201.619 253.551 200.89 252.885C200.177 252.204 199.84 251.312 199.878 250.208C199.907 249.393 200.195 248.699 200.744 248.125C201.292 247.552 202.019 247.129 202.925 246.857C203.831 246.584 204.828 246.467 205.915 246.505C207.355 246.555 208.607 246.911 209.672 247.573C210.739 248.218 211.435 249.139 211.761 250.335L208.233 250.956Z" fill="white"/>
</g>
<g filter="url(#filter3_bd_5_60)">
<rect x="124" y="58" width="103" height="40" rx="20" fill="url(#paint6_linear_5_60)" fill-opacity="0.04" shape-rendering="crispEdges"/>
<rect x="124.5" y="58.5" width="102" height="39" rx="19.5" stroke="url(#paint7_linear_5_60)" stroke-opacity="0.64" shape-rendering="crispEdges"/>
<path d="M149.404 83L146.828 74.782V83H145.092V72.85H147.85L150.314 80.942L152.764 72.85H155.522V83H153.786V74.782L151.21 83H149.404ZM158.383 85.45L159.335 82.804L156.689 75.608H158.509L160.217 80.872L161.925 75.608H163.633L160.091 85.45H158.383ZM176.602 79.99C176.34 81.0073 175.836 81.796 175.09 82.356C174.343 82.9067 173.414 83.182 172.304 83.182C170.838 83.182 169.69 82.7013 168.86 81.74C168.029 80.7787 167.614 79.4953 167.614 77.89C167.614 76.294 168.043 75.0247 168.902 74.082C169.76 73.1393 170.922 72.668 172.388 72.668C173.461 72.668 174.366 72.948 175.104 73.508C175.841 74.0587 176.336 74.8427 176.588 75.86L174.95 76.224C174.8 75.552 174.492 75.034 174.026 74.67C173.568 74.306 173.004 74.124 172.332 74.124C171.492 74.124 170.801 74.4553 170.26 75.118C169.718 75.7807 169.448 76.7047 169.448 77.89C169.448 79.0847 169.714 80.0227 170.246 80.704C170.787 81.3853 171.478 81.726 172.318 81.726C173.018 81.726 173.596 81.5487 174.054 81.194C174.52 80.83 174.828 80.3073 174.978 79.626L176.602 79.99ZM180.446 83.182C179.624 83.182 178.952 82.972 178.43 82.552C177.916 82.132 177.66 81.586 177.66 80.914C177.66 80.2047 177.944 79.668 178.514 79.304C179.083 78.94 179.909 78.688 180.992 78.548L181.874 78.422C182.2 78.366 182.424 78.282 182.546 78.17C182.667 78.0487 182.728 77.876 182.728 77.652C182.728 77.316 182.592 77.0593 182.322 76.882C182.06 76.7047 181.692 76.616 181.216 76.616C180.712 76.616 180.315 76.7327 180.026 76.966C179.736 77.19 179.582 77.526 179.564 77.974L177.94 77.806C178.042 77.078 178.388 76.4947 178.976 76.056C179.564 75.608 180.301 75.384 181.188 75.384C183.362 75.384 184.431 76.434 184.394 78.534C184.394 78.6367 184.389 78.9167 184.38 79.374C184.37 79.822 184.366 80.172 184.366 80.424C184.366 81.4693 184.44 82.328 184.59 83H183.05C182.975 82.5427 182.928 82.1833 182.91 81.922C182.452 82.762 181.631 83.182 180.446 83.182ZM182.756 79.724V79.374C182.625 79.4113 182.182 79.4953 181.426 79.626C180.726 79.7287 180.217 79.878 179.9 80.074C179.582 80.27 179.424 80.536 179.424 80.872C179.424 81.1893 179.55 81.446 179.802 81.642C180.054 81.838 180.39 81.936 180.81 81.936C182.107 81.936 182.756 81.1987 182.756 79.724ZM190.331 77.302C190.051 77.274 189.785 77.26 189.533 77.26C188.973 77.26 188.558 77.4047 188.287 77.694C188.016 77.974 187.881 78.4733 187.881 79.192V83H186.215V75.608H187.853V76.952C188.282 76.0653 188.964 75.6127 189.897 75.594C190.018 75.594 190.163 75.6033 190.331 75.622V77.302ZM196.312 72.85H197.978V83H196.312V82.006C195.836 82.79 195.089 83.182 194.072 83.182C193.129 83.182 192.354 82.832 191.748 82.132C191.141 81.432 190.838 80.4893 190.838 79.304C190.838 78.128 191.141 77.19 191.748 76.49C192.354 75.79 193.129 75.44 194.072 75.44C195.089 75.44 195.836 75.832 196.312 76.616V72.85ZM195.836 77.428C195.481 77.008 195.014 76.798 194.436 76.798C193.857 76.798 193.4 77.0173 193.064 77.456C192.737 77.8947 192.574 78.5107 192.574 79.304C192.574 80.0973 192.737 80.718 193.064 81.166C193.4 81.6047 193.857 81.824 194.436 81.824C195.014 81.824 195.481 81.614 195.836 81.194C196.2 80.7647 196.382 80.1347 196.382 79.304C196.382 78.4733 196.2 77.848 195.836 77.428ZM204.35 77.806C204.173 77.078 203.594 76.714 202.614 76.714C202.222 76.714 201.891 76.784 201.62 76.924C201.35 77.064 201.214 77.2507 201.214 77.484C201.214 77.932 201.578 78.2307 202.306 78.38L203.328 78.59C204.206 78.7673 204.873 79.0147 205.33 79.332C205.797 79.6493 206.03 80.1347 206.03 80.788C206.03 81.5347 205.722 82.1227 205.106 82.552C204.49 82.972 203.725 83.182 202.81 83.182C201.914 83.182 201.172 82.9673 200.584 82.538C199.996 82.0993 199.632 81.5347 199.492 80.844L201.046 80.522C201.214 81.4553 201.821 81.922 202.866 81.922C203.333 81.922 203.706 81.838 203.986 81.67C204.266 81.502 204.406 81.2733 204.406 80.984C204.406 80.4987 203.958 80.1627 203.062 79.976L201.928 79.738C201.21 79.5887 200.65 79.3507 200.248 79.024C199.847 78.688 199.646 78.2027 199.646 77.568C199.646 76.9333 199.94 76.42 200.528 76.028C201.126 75.636 201.858 75.44 202.726 75.44C203.473 75.44 204.136 75.622 204.714 75.986C205.293 76.35 205.676 76.854 205.862 77.498L204.35 77.806Z" fill="white"/>
</g>
<g filter="url(#filter4_bdii_5_60)">
<rect x="100" y="304" width="278" height="56" rx="28" fill="url(#paint8_linear_5_60)" fill-opacity="0.4" shape-rendering="crispEdges"/>
<rect x="100.5" y="304.5" width="277" height="55" rx="27.5" stroke="#516EB0" shape-rendering="crispEdges"/>
<path d="M173 337.75C173.414 337.75 173.75 337.414 173.75 337C173.75 336.586 173.414 336.25 173 336.25V337.75ZM181.25 329C181.25 329.414 181.586 329.75 182 329.75C182.414 329.75 182.75 329.414 182.75 329H181.25ZM163.218 335.908L163.886 335.567L163.886 335.567L163.218 335.908ZM164.092 336.782L164.433 336.114L164.433 336.114L164.092 336.782ZM180.908 324.218L181.248 323.55L181.248 323.55L180.908 324.218ZM181.782 325.092L181.114 325.433L181.114 325.433L181.782 325.092ZM164.092 324.218L163.752 323.55L163.752 323.55L164.092 324.218ZM163.218 325.092L162.55 324.752L162.55 324.752L163.218 325.092ZM177.75 336C177.75 335.586 177.414 335.25 177 335.25C176.586 335.25 176.25 335.586 176.25 336H177.75ZM177.724 340.638L178.059 341.309L178.059 341.309L177.724 340.638ZM178.776 340.112L179.112 340.783L179.112 340.783L178.776 340.112ZM179.224 340.112L178.888 340.783L178.888 340.783L179.224 340.112ZM180.276 340.638L179.941 341.309L179.941 341.309L180.276 340.638ZM181.75 336C181.75 335.586 181.414 335.25 181 335.25C180.586 335.25 180.25 335.586 180.25 336H181.75ZM167 328.25C166.586 328.25 166.25 328.586 166.25 329C166.25 329.414 166.586 329.75 167 329.75V328.25ZM172 329.75C172.414 329.75 172.75 329.414 172.75 329C172.75 328.586 172.414 328.25 172 328.25V329.75ZM167 331.25C166.586 331.25 166.25 331.586 166.25 332C166.25 332.414 166.586 332.75 167 332.75V331.25ZM169 332.75C169.414 332.75 169.75 332.414 169.75 332C169.75 331.586 169.414 331.25 169 331.25V332.75ZM166.2 324.75H178.8V323.25H166.2V324.75ZM163.75 333.8V327.2H162.25V333.8H163.75ZM173 336.25H166.2V337.75H173V336.25ZM181.25 327.2V329H182.75V327.2H181.25ZM162.25 333.8C162.25 334.348 162.249 334.804 162.28 335.175C162.311 335.555 162.378 335.911 162.55 336.248L163.886 335.567C163.84 335.477 163.798 335.34 163.775 335.053C163.751 334.757 163.75 334.372 163.75 333.8H162.25ZM166.2 336.25C165.628 336.25 165.243 336.249 164.947 336.225C164.66 336.202 164.523 336.16 164.433 336.114L163.752 337.45C164.089 337.622 164.445 337.689 164.825 337.72C165.196 337.751 165.652 337.75 166.2 337.75V336.25ZM162.55 336.248C162.813 336.766 163.234 337.187 163.752 337.45L164.433 336.114C164.197 335.994 164.006 335.803 163.886 335.567L162.55 336.248ZM178.8 324.75C179.372 324.75 179.757 324.751 180.053 324.775C180.34 324.798 180.477 324.84 180.567 324.886L181.248 323.55C180.911 323.378 180.555 323.311 180.175 323.28C179.804 323.249 179.348 323.25 178.8 323.25V324.75ZM182.75 327.2C182.75 326.652 182.751 326.196 182.72 325.825C182.689 325.445 182.622 325.089 182.45 324.752L181.114 325.433C181.16 325.523 181.202 325.66 181.225 325.947C181.249 326.243 181.25 326.628 181.25 327.2H182.75ZM180.567 324.886C180.803 325.006 180.994 325.197 181.114 325.433L182.45 324.752C182.187 324.234 181.766 323.813 181.248 323.55L180.567 324.886ZM166.2 323.25C165.652 323.25 165.196 323.249 164.825 323.28C164.445 323.311 164.089 323.378 163.752 323.55L164.433 324.886C164.523 324.84 164.66 324.798 164.947 324.775C165.243 324.751 165.628 324.75 166.2 324.75V323.25ZM163.75 327.2C163.75 326.628 163.751 326.243 163.775 325.947C163.798 325.66 163.84 325.523 163.886 325.433L162.55 324.752C162.378 325.089 162.311 325.445 162.28 325.825C162.249 326.196 162.25 326.652 162.25 327.2H163.75ZM163.752 323.55C163.234 323.813 162.813 324.234 162.55 324.752L163.886 325.433C164.006 325.197 164.197 325.006 164.433 324.886L163.752 323.55ZM182.25 332C182.25 333.795 180.795 335.25 179 335.25V336.75C181.623 336.75 183.75 334.623 183.75 332H182.25ZM179 335.25C177.205 335.25 175.75 333.795 175.75 332H174.25C174.25 334.623 176.377 336.75 179 336.75V335.25ZM175.75 332C175.75 330.205 177.205 328.75 179 328.75V327.25C176.377 327.25 174.25 329.377 174.25 332H175.75ZM179 328.75C180.795 328.75 182.25 330.205 182.25 332H183.75C183.75 329.377 181.623 327.25 179 327.25V328.75ZM176.25 336V340.191H177.75V336H176.25ZM178.059 341.309L179.112 340.783L178.441 339.441L177.388 339.967L178.059 341.309ZM178.888 340.783L179.941 341.309L180.612 339.967L179.559 339.441L178.888 340.783ZM181.75 340.191V336H180.25V340.191H181.75ZM179.941 341.309C180.772 341.725 181.75 341.12 181.75 340.191H180.25C180.25 340.005 180.446 339.884 180.612 339.967L179.941 341.309ZM179.112 340.783C179.041 340.818 178.959 340.818 178.888 340.783L179.559 339.441C179.207 339.265 178.793 339.265 178.441 339.441L179.112 340.783ZM176.25 340.191C176.25 341.12 177.228 341.725 178.059 341.309L177.388 339.967C177.554 339.884 177.75 340.005 177.75 340.191H176.25ZM167 329.75H172V328.25H167V329.75ZM167 332.75H169V331.25H167V332.75Z" fill="white"/>
<path d="M206.856 332.104C206.728 332.115 206.525 332.12 206.248 332.12H204.28V337H202.248V325.4H205.944C207.736 325.4 209.043 325.645 209.864 326.136C210.696 326.627 211.112 327.496 211.112 328.744C211.112 330.237 210.387 331.235 208.936 331.736L211.592 337H209.304L206.856 332.104ZM204.28 327.032V330.504H206.296C207.224 330.504 207.912 330.381 208.36 330.136C208.808 329.88 209.032 329.421 209.032 328.76C209.032 328.067 208.797 327.608 208.328 327.384C207.859 327.149 207.16 327.032 206.232 327.032H204.28ZM216.627 328.36C217.95 328.36 218.979 328.819 219.715 329.736C220.462 330.643 220.792 331.827 220.707 333.288H214.387C214.408 334.024 214.643 334.6 215.091 335.016C215.55 335.421 216.094 335.624 216.723 335.624C217.79 335.624 218.488 335.219 218.819 334.408L220.563 334.76C220.296 335.496 219.838 336.088 219.187 336.536C218.536 336.984 217.72 337.208 216.739 337.208C215.384 337.208 214.328 336.781 213.571 335.928C212.824 335.064 212.451 333.992 212.451 332.712C212.451 331.432 212.835 330.387 213.603 329.576C214.382 328.765 215.39 328.36 216.627 328.36ZM214.387 331.896H218.771C218.75 331.267 218.536 330.771 218.131 330.408C217.726 330.035 217.224 329.848 216.627 329.848C216.072 329.848 215.576 330.019 215.139 330.36C214.702 330.691 214.451 331.203 214.387 331.896ZM228.207 325.4H230.111V337H228.207V335.864C227.663 336.76 226.809 337.208 225.647 337.208C224.569 337.208 223.684 336.808 222.991 336.008C222.297 335.208 221.951 334.131 221.951 332.776C221.951 331.432 222.297 330.36 222.991 329.56C223.684 328.76 224.569 328.36 225.647 328.36C226.809 328.36 227.663 328.808 228.207 329.704V325.4ZM227.663 330.632C227.257 330.152 226.724 329.912 226.063 329.912C225.401 329.912 224.879 330.163 224.495 330.664C224.121 331.165 223.935 331.869 223.935 332.776C223.935 333.683 224.121 334.392 224.495 334.904C224.879 335.405 225.401 335.656 226.063 335.656C226.724 335.656 227.257 335.416 227.663 334.936C228.079 334.445 228.287 333.725 228.287 332.776C228.287 331.827 228.079 331.112 227.663 330.632ZM236.018 328.36C237.34 328.36 238.37 328.819 239.106 329.736C239.852 330.643 240.183 331.827 240.098 333.288H233.778C233.799 334.024 234.034 334.6 234.482 335.016C234.94 335.421 235.484 335.624 236.114 335.624C237.18 335.624 237.879 335.219 238.21 334.408L239.954 334.76C239.687 335.496 239.228 336.088 238.578 336.536C237.927 336.984 237.111 337.208 236.13 337.208C234.775 337.208 233.719 336.781 232.962 335.928C232.215 335.064 231.842 333.992 231.842 332.712C231.842 331.432 232.226 330.387 232.994 329.576C233.772 328.765 234.78 328.36 236.018 328.36ZM233.778 331.896H238.162C238.14 331.267 237.927 330.771 237.522 330.408C237.116 330.035 236.615 329.848 236.018 329.848C235.463 329.848 234.967 330.019 234.53 330.36C234.092 330.691 233.842 331.203 233.778 331.896ZM245.533 328.36C246.856 328.36 247.885 328.819 248.621 329.736C249.368 330.643 249.699 331.827 249.613 333.288H243.293C243.315 334.024 243.549 334.6 243.997 335.016C244.456 335.421 245 335.624 245.629 335.624C246.696 335.624 247.395 335.219 247.725 334.408L249.469 334.76C249.203 335.496 248.744 336.088 248.093 336.536C247.443 336.984 246.627 337.208 245.645 337.208C244.291 337.208 243.235 336.781 242.477 335.928C241.731 335.064 241.357 333.992 241.357 332.712C241.357 331.432 241.741 330.387 242.509 329.576C243.288 328.765 244.296 328.36 245.533 328.36ZM243.293 331.896H247.677C247.656 331.267 247.443 330.771 247.037 330.408C246.632 330.035 246.131 329.848 245.533 329.848C244.979 329.848 244.483 330.019 244.045 330.36C243.608 330.691 243.357 331.203 243.293 331.896ZM253.259 337H251.355V328.552H253.259V329.752C253.771 328.824 254.603 328.36 255.755 328.36C257.003 328.36 257.84 328.867 258.267 329.88C258.95 328.867 259.883 328.36 261.067 328.36C262.944 328.36 263.883 329.491 263.883 331.752V337H261.979V332.216C261.979 331.864 261.963 331.576 261.931 331.352C261.91 331.117 261.851 330.883 261.755 330.648C261.659 330.403 261.504 330.221 261.291 330.104C261.078 329.976 260.8 329.912 260.459 329.912C259.2 329.912 258.571 330.803 258.571 332.584V337H256.667V332.216C256.667 331.864 256.651 331.576 256.619 331.352C256.598 331.117 256.539 330.883 256.443 330.648C256.347 330.403 256.192 330.221 255.979 330.104C255.766 329.976 255.488 329.912 255.147 329.912C253.888 329.912 253.259 330.803 253.259 332.584V337ZM273.635 325.4C274.211 325.4 274.712 325.421 275.139 325.464C275.565 325.507 276.003 325.603 276.451 325.752C276.909 325.901 277.283 326.104 277.571 326.36C277.859 326.616 278.093 326.973 278.275 327.432C278.467 327.88 278.562 328.419 278.562 329.048C278.562 329.752 278.44 330.349 278.195 330.84C277.949 331.32 277.592 331.688 277.123 331.944C276.653 332.189 276.141 332.365 275.587 332.472C275.043 332.568 274.403 332.616 273.667 332.616H271.843V337H269.811V325.4H273.635ZM271.843 327.032V330.952H273.731C274.627 330.952 275.304 330.829 275.763 330.584C276.221 330.328 276.451 329.821 276.451 329.064C276.451 328.616 276.376 328.248 276.227 327.96C276.077 327.672 275.853 327.464 275.555 327.336C275.256 327.208 274.968 327.128 274.691 327.096C274.413 327.053 274.061 327.032 273.635 327.032H271.843ZM286.416 329.496C287.237 330.253 287.648 331.352 287.648 332.792C287.648 334.232 287.237 335.331 286.416 336.088C285.594 336.835 284.608 337.208 283.456 337.208C282.304 337.208 281.317 336.835 280.496 336.088C279.674 335.331 279.264 334.232 279.264 332.792C279.264 331.352 279.674 330.253 280.496 329.496C281.317 328.739 282.304 328.36 283.456 328.36C284.608 328.36 285.594 328.739 286.416 329.496ZM285.04 334.92C285.466 334.429 285.68 333.72 285.68 332.792C285.68 331.864 285.466 331.155 285.04 330.664C284.624 330.163 284.096 329.912 283.456 329.912C282.816 329.912 282.282 330.163 281.856 330.664C281.44 331.155 281.232 331.864 281.232 332.792C281.232 333.72 281.44 334.429 281.856 334.92C282.282 335.411 282.816 335.656 283.456 335.656C284.096 335.656 284.624 335.411 285.04 334.92ZM291.275 325.4V327.32H289.371V325.4H291.275ZM291.275 328.552V337H289.371V328.552H291.275ZM295.478 329.752C295.99 328.824 296.859 328.36 298.086 328.36C300.038 328.36 301.014 329.491 301.014 331.752V337H299.11V332.216C299.11 331.949 299.099 331.72 299.078 331.528C299.057 331.325 299.014 331.117 298.95 330.904C298.886 330.691 298.795 330.52 298.678 330.392C298.571 330.253 298.411 330.141 298.198 330.056C297.995 329.96 297.755 329.912 297.478 329.912C296.145 329.912 295.478 330.803 295.478 332.584V337H293.574V328.552H295.478V329.752ZM305.328 334.696C305.328 335.048 305.397 335.293 305.536 335.432C305.685 335.571 305.904 335.64 306.192 335.64C306.405 335.64 306.635 335.619 306.88 335.576L307.008 337C306.624 337.064 306.245 337.096 305.872 337.096C305.051 337.096 304.437 336.915 304.032 336.552C303.627 336.179 303.424 335.592 303.424 334.792V329.928H302.144V328.552H303.424V326.28H305.328V328.552H307.056V329.928H305.328V334.696ZM313.722 331.064C313.519 330.232 312.858 329.816 311.738 329.816C311.29 329.816 310.911 329.896 310.602 330.056C310.292 330.216 310.138 330.429 310.138 330.696C310.138 331.208 310.554 331.549 311.386 331.72L312.554 331.96C313.556 332.163 314.319 332.445 314.842 332.808C315.375 333.171 315.642 333.725 315.642 334.472C315.642 335.325 315.29 335.997 314.586 336.488C313.882 336.968 313.007 337.208 311.962 337.208C310.938 337.208 310.09 336.963 309.418 336.472C308.746 335.971 308.33 335.325 308.17 334.536L309.946 334.168C310.138 335.235 310.831 335.768 312.026 335.768C312.559 335.768 312.986 335.672 313.306 335.48C313.626 335.288 313.786 335.027 313.786 334.696C313.786 334.141 313.274 333.757 312.25 333.544L310.954 333.272C310.132 333.101 309.492 332.829 309.034 332.456C308.575 332.072 308.346 331.517 308.346 330.792C308.346 330.067 308.682 329.48 309.354 329.032C310.036 328.584 310.874 328.36 311.866 328.36C312.719 328.36 313.476 328.568 314.138 328.984C314.799 329.4 315.236 329.976 315.45 330.712L313.722 331.064Z" fill="white"/>
</g>
</g>
<defs>
<filter id="filter0_bd_5_60" x="0.281372" y="0" width="436.719" height="438" filterUnits="userSpaceOnUse" color-interpolation-filters="sRGB">
<feFlood flood-opacity="0" result="BackgroundImageFix"/>
<feGaussianBlur in="BackgroundImageFix" stdDeviation="20"/>
<feComposite in2="SourceAlpha" operator="in" result="effect1_backgroundBlur_5_60"/>
<feColorMatrix in="SourceAlpha" type="matrix" values="0 0 0 0 0 0 0 0 0 0 0 0 0 0 0 0 0 0 127 0" result="hardAlpha"/>
<feOffset dx="-5" dy="14"/>
<feGaussianBlur stdDeviation="32"/>
<feComposite in2="hardAlpha" operator="out"/>
<feColorMatrix type="matrix" values="0 0 0 0 0.294477 0 0 0 0 0.294477 0 0 0 0 0.781136 0 0 0 0.16 0"/>
<feBlend mode="normal" in2="effect1_backgroundBlur_5_60" result="effect2_dropShadow_5_60"/>
<feBlend mode="normal" in="SourceGraphic" in2="effect2_dropShadow_5_60" result="shape"/>
</filter>
<filter id="filter1_bd_5_60" x="168" y="8" width="245" height="168" filterUnits="userSpaceOnUse" color-interpolation-filters="sRGB">
<feFlood flood-opacity="0" result="BackgroundImageFix"/>
<feGaussianBlur in="BackgroundImageFix" stdDeviation="20"/>
<feComposite in2="SourceAlpha" operator="in" result="effect1_backgroundBlur_5_60"/>
<feColorMatrix in="SourceAlpha" type="matrix" values="0 0 0 0 0 0 0 0 0 0 0 0 0 0 0 0 0 0 127 0" result="hardAlpha"/>
<feOffset dx="-5" dy="14"/>
<feGaussianBlur stdDeviation="32"/>
<feComposite in2="hardAlpha" operator="out"/>
<feColorMatrix type="matrix" values="0 0 0 0 0.294477 0 0 0 0 0.294477 0 0 0 0 0.781136 0 0 0 0.16 0"/>
<feBlend mode="normal" in2="effect1_backgroundBlur_5_60" result="effect2_dropShadow_5_60"/>
<feBlend mode="normal" in="SourceGraphic" in2="effect2_dropShadow_5_60" result="shape"/>
</filter>
<filter id="filter2_di_5_60" x="29.2814" y="93.8609" width="325.438" height="248.278" filterUnits="userSpaceOnUse" color-interpolation-filters="sRGB">
<feFlood flood-opacity="0" result="BackgroundImageFix"/>
<feColorMatrix in="SourceAlpha" type="matrix" values="0 0 0 0 0 0 0 0 0 0 0 0 0 0 0 0 0 0 127 0" result="hardAlpha"/>
<feOffset dy="16"/>
<feGaussianBlur stdDeviation="20"/>
<feComposite in2="hardAlpha" operator="out"/>
<feColorMatrix type="matrix" values="0 0 0 0 0 0 0 0 0 0 0 0 0 0 0 0 0 0 0.24 0"/>
<feBlend mode="normal" in2="BackgroundImageFix" result="effect1_dropShadow_5_60"/>
<feBlend mode="normal" in="SourceGraphic" in2="effect1_dropShadow_5_60" result="shape"/>
<feColorMatrix in="SourceAlpha" type="matrix" values="0 0 0 0 0 0 0 0 0 0 0 0 0 0 0 0 0 0 127 0" result="hardAlpha"/>
<feOffset dy="4"/>
<feGaussianBlur stdDeviation="4"/>
<feComposite in2="hardAlpha" operator="arithmetic" k2="-1" k3="1"/>
<feColorMatrix type="matrix" values="0 0 0 0 0.074145 0 0 0 0 0.125221 0 0 0 0 0.256559 0 0 0 0.24 0"/>
<feBlend mode="normal" in2="shape" result="effect2_innerShadow_5_60"/>
</filter>
<filter id="filter3_bd_5_60" x="55" y="8" width="231" height="168" filterUnits="userSpaceOnUse" color-interpolation-filters="sRGB">
<feFlood flood-opacity="0" result="BackgroundImageFix"/>
<feGaussianBlur in="BackgroundImageFix" stdDeviation="20"/>
<feComposite in2="SourceAlpha" operator="in" result="effect1_backgroundBlur_5_60"/>
<feColorMatrix in="SourceAlpha" type="matrix" values="0 0 0 0 0 0 0 0 0 0 0 0 0 0 0 0 0 0 127 0" result="hardAlpha"/>
<feOffset dx="-5" dy="14"/>
<feGaussianBlur stdDeviation="32"/>
<feComposite in2="hardAlpha" operator="out"/>
<feColorMatrix type="matrix" values="0 0 0 0 0.294477 0 0 0 0 0.294477 0 0 0 0 0.781136 0 0 0 0.16 0"/>
<feBlend mode="normal" in2="effect1_backgroundBlur_5_60" result="effect2_dropShadow_5_60"/>
<feBlend mode="normal" in="SourceGraphic" in2="effect2_dropShadow_5_60" result="shape"/>
</filter>
<filter id="filter4_bdii_5_60" x="76" y="284" width="326" height="108" filterUnits="userSpaceOnUse" color-interpolation-filters="sRGB">
<feFlood flood-opacity="0" result="BackgroundImageFix"/>
<feGaussianBlur in="BackgroundImageFix" stdDeviation="10"/>
<feComposite in2="SourceAlpha" operator="in" result="effect1_backgroundBlur_5_60"/>
<feColorMatrix in="SourceAlpha" type="matrix" values="0 0 0 0 0 0 0 0 0 0 0 0 0 0 0 0 0 0 127 0" result="hardAlpha"/>
<feOffset dy="8"/>
<feGaussianBlur stdDeviation="12"/>
<feComposite in2="hardAlpha" operator="out"/>
<feColorMatrix type="matrix" values="0 0 0 0 0 0 0 0 0 0 0 0 0 0 0 0 0 0 0.12 0"/>
<feBlend mode="normal" in2="effect1_backgroundBlur_5_60" result="effect2_dropShadow_5_60"/>
<feBlend mode="normal" in="SourceGraphic" in2="effect2_dropShadow_5_60" result="shape"/>
<feColorMatrix in="SourceAlpha" type="matrix" values="0 0 0 0 0 0 0 0 0 0 0 0 0 0 0 0 0 0 127 0" result="hardAlpha"/>
<feOffset/>
<feGaussianBlur stdDeviation="4"/>
<feComposite in2="hardAlpha" operator="arithmetic" k2="-1" k3="1"/>
<feColorMatrix type="matrix" values="0 0 0 0 0.0630335 0 0 0 0 0.0844577 0 0 0 0 0.160417 0 0 0 0.32 0"/>
<feBlend mode="normal" in2="shape" result="effect3_innerShadow_5_60"/>
<feColorMatrix in="SourceAlpha" type="matrix" values="0 0 0 0 0 0 0 0 0 0 0 0 0 0 0 0 0 0 127 0" result="hardAlpha"/>
<feOffset dx="1" dy="1"/>
<feGaussianBlur stdDeviation="0.5"/>
<feComposite in2="hardAlpha" operator="arithmetic" k2="-1" k3="1"/>
<feColorMatrix type="matrix" values="0 0 0 0 1 0 0 0 0 1 0 0 0 0 1 0 0 0 0.24 0"/>
<feBlend mode="normal" in2="effect3_innerShadow_5_60" result="effect4_innerShadow_5_60"/>
</filter>
<linearGradient id="paint0_linear_5_60" x1="84.5667" y1="344" x2="320.364" y2="381.406" gradientUnits="userSpaceOnUse">
<stop stop-color="#111111"/>
<stop offset="1" stop-color="#A8ABEF"/>
</linearGradient>
<linearGradient id="paint1_linear_5_60" x1="140.6" y1="-57.8" x2="495.219" y2="107.907" gradientUnits="userSpaceOnUse">
<stop stop-color="white"/>
<stop offset="1" stop-color="#E3E3E3" stop-opacity="0"/>
</linearGradient>
<linearGradient id="paint2_linear_5_60" x1="222.05" y1="98" x2="309.979" y2="146.761" gradientUnits="userSpaceOnUse">
<stop stop-color="#111111"/>
<stop offset="1" stop-color="#A8ABEF"/>
</linearGradient>
<linearGradient id="paint3_linear_5_60" x1="248.7" y1="43.3333" x2="304.717" y2="134.837" gradientUnits="userSpaceOnUse">
<stop stop-color="white"/>
<stop offset="1" stop-color="#E3E3E3" stop-opacity="0"/>
</linearGradient>
<linearGradient id="paint4_linear_5_60" x1="110.865" y1="266.661" x2="327.023" y2="129.655" gradientUnits="userSpaceOnUse">
<stop stop-color="#5D6799"/>
<stop offset="1" stop-color="white"/>
</linearGradient>
<linearGradient id="paint5_linear_5_60" x1="148.148" y1="104.528" x2="340.92" y2="275.079" gradientUnits="userSpaceOnUse">
<stop stop-color="white"/>
<stop offset="1" stop-opacity="0"/>
</linearGradient>
<linearGradient id="paint6_linear_5_60" x1="110.839" y1="98" x2="192.572" y2="137.901" gradientUnits="userSpaceOnUse">
<stop stop-color="#111111"/>
<stop offset="1" stop-color="#A8ABEF"/>
</linearGradient>
<linearGradient id="paint7_linear_5_60" x1="134.3" y1="43.3333" x2="193.264" y2="128.126" gradientUnits="userSpaceOnUse">
<stop stop-color="white"/>
<stop offset="1" stop-color="#E3E3E3" stop-opacity="0"/>
</linearGradient>
<linearGradient id="paint8_linear_5_60" x1="227.058" y1="239.178" x2="278.015" y2="419.975" gradientUnits="userSpaceOnUse">
<stop stop-color="#C9DCFF"/>
<stop offset="1" stop-color="#1F50A5" stop-opacity="0.4"/>
</linearGradient>
</defs>
</svg>
