<svg width="24" height="24" fill="none" xmlns="http://www.w3.org/2000/svg"><mask id="a" style="mask-type:luminance" maskUnits="userSpaceOnUse" x="0" y="0" width="24" height="24"><path d="M12 24c6.627 0 12-5.373 12-12S18.627 0 12 0 0 5.373 0 12s5.373 12 12 12Z" fill="#fff"/></mask><g mask="url(#a)"><path d="m0 0 .375 1.031L0 2.11v1.079l1.5 2.53L0 8.25v1.5L1.5 12 0 14.25v1.5l1.5 2.531L0 20.813V24l1.031-.375L2.11 24h1.079l2.53-1.5L8.25 24h1.5L12 22.5l2.25 1.5h1.5l2.531-1.5 2.532 1.5H24l-.375-1.031L24 21.89v-1.078l-1.5-2.532L24 15.75v-1.5L22.5 12 24 9.75v-1.5l-1.5-2.531L24 3.187V0l-1.031.375L21.89 0h-1.078L18.28 1.5 15.75 0h-1.5L12 1.5 9.75 0h-1.5L5.719 1.5 3.187 0H0Z" fill="#EEE"/><path d="M15.75 0v5.063L20.813 0H15.75ZM24 3.188 18.937 8.25H24V3.187ZM0 8.25h5.063L0 3.187V8.25ZM3.188 0 8.25 5.063V0H3.187ZM8.25 24v-5.063L3.187 24H8.25ZM0 20.812l5.063-5.062H0v5.063Zm24-5.062h-5.063L24 20.813V15.75ZM20.812 24l-5.062-5.063V24h5.063Z" fill="#0052B4"/><path d="M0 0v2.11l6.14 6.14h2.11L0 0Zm9.75 0v9.75H0v4.5h9.75V24h4.5v-9.75H24v-4.5h-9.75V0h-4.5Zm12.14 0-6.14 6.14v2.11L24 0h-2.11ZM8.25 15.75 0 24h2.11l6.14-6.14v-2.11Zm7.5 0L24 24v-2.11l-6.14-6.14h-2.11Z" fill="#D80027"/></g></svg>