<svg width="111" height="28" fill="none" xmlns="http://www.w3.org/2000/svg"><path d="M27.344 5.582c-6.53 0-11.421 4.771-11.421 11.1 0 6.328 4.967 11.091 11.55 11.091 2.48 0 4.822-.656 6.783-1.916 1.824-1.175 3.243-2.809 4.112-4.74h-4.905c-1.206 1.733-3.456 2.794-5.898 2.794-3.471 0-6.164-2.107-6.881-5.367l-.061-.244h18.089c.069-.473.099-1.137.099-1.58h.015c0-6.351-4.928-11.138-11.474-11.138h-.008Zm-6.69 9.222.075-.26c.855-3.1 3.449-5.1 6.623-5.1 3.174 0 5.874 2.054 6.668 5.1l.076.26H20.653ZM6.76 11.07c-.985.856-1.397 2.13-1.397 3.405v13.29H0V5.606h5.226v2.863l.488-.55c1.015-1.145 3.19-2.313 5.753-2.313 2.205 0 3.73.535 5.196 1.832l-2.755 4.405c-.923-.9-1.99-1.58-3.288-1.718a8.363 8.363 0 0 0-1.16-.038c-.984.046-1.945.32-2.7.985ZM50.728 27.765c5.738 0 9.91-2.778 9.91-6.618 0-3.221-2.868-5.32-8.773-6.404-3.685-.642-5.554-1.703-5.554-3.16 0-1.459 1.846-2.543 4.303-2.543s4.463 1.23 4.463 2.855v.107h5.081v-.107c0-3.634-4.09-6.374-9.506-6.374-5.417 0-9.43 2.672-9.43 6.344 0 3.152 2.96 5.412 8.331 6.374 4.006.694 5.959 1.763 5.959 3.26 0 1.572-2.022 2.763-4.7 2.763-2.678 0-4.982-1.374-4.982-3.13v-.107H40.75v.107c0 3.794 4.295 6.649 9.987 6.649M89.622 23.605c-1.457 0-2.64-.168-2.57-2.702V5.583h-4.739v4.22l-.358-.45c-1.93-2.427-4.791-3.77-8.05-3.77h-.014c-6.447 0-11.315 4.763-11.315 11.091 0 6.328 4.868 11.1 11.315 11.1 3.356 0 6.378-1.49 8.277-4.062l.245-.336.106.397c.618 2.283 2.633 3.993 5.822 3.993h1.266v-4.16h.015Zm-15.228 0c-3.952 0-6.935-2.984-6.935-6.939 0-3.954 2.983-6.931 6.935-6.931 3.952 0 6.89 2.985 6.89 6.931 0 3.947-2.953 6.94-6.89 6.94ZM108.887 22.483s-1.679 1.382-3.762 1.275c-1.48-.076-1.785-.443-1.785-.443s4.875-5.084 5.18-13.626c.252-6.832-3.639-9.496-7.354-9.68-3.754-.19-7.82 2.459-8.408 8.733-.778 8.329 4.15 14.42 4.15 14.42s-.839.611-3.585.443v4.16s4.265.184 6.66-1.503c1.053.809 2.983 2 6.104 1.687 2.67-.267 4.913-1.794 4.913-1.794l-2.121-3.68.008.008Zm-8.637-1.962c-1.152-1.572-2.708-5.343-2.708-9.832 0-2.733.747-5.656 3.395-5.473 2.51.168 2.891 3.053 2.64 5.725-.42 4.542-1.938 8.1-3.334 9.588l.007-.008Z" fill="#fff"/></svg>