<svg width="124" height="130" viewBox="0 0 124 130" fill="none" xmlns="http://www.w3.org/2000/svg">
<path d="M46.8605 88.3232V97.0899C46.8605 103.574 43.2812 109.221 37.9901 112.155" stroke="white" stroke-width="3" stroke-miterlimit="10"/>
<path d="M27.4376 128.325C33.769 128.325 38.9017 123.193 38.9017 116.861C38.9017 110.53 33.769 105.397 27.4376 105.397C21.1062 105.397 15.9735 110.53 15.9735 116.861C15.9735 123.193 21.1062 128.325 27.4376 128.325Z" stroke="white" stroke-width="3" stroke-miterlimit="10"/>
<path d="M77.332 88.3232V97.0899C77.332 103.574 80.9113 109.221 86.2024 112.155" stroke="white" stroke-width="3" stroke-miterlimit="10"/>
<path d="M96.7561 128.325C103.088 128.325 108.22 123.193 108.22 116.861C108.22 110.53 103.088 105.397 96.7561 105.397C90.4246 105.397 85.292 110.53 85.292 116.861C85.292 123.193 90.4246 128.325 96.7561 128.325Z" stroke="white" stroke-width="3" stroke-miterlimit="10"/>
<path d="M80.9191 79.6825H25.681C12.557 79.6825 1.92285 69.0484 1.92285 55.9244C1.92285 45.5126 8.62197 36.6718 17.9444 33.4631C17.9296 33.0333 17.9148 32.6035 17.9148 32.1662C17.9074 15.7371 31.2315 2.41296 47.6606 2.41296C57.9094 2.41296 66.9428 7.59292 72.2932 15.4777C74.7239 14.6996 77.3101 14.2698 80.0002 14.2698C91.6199 14.2698 101.394 22.162 104.27 32.8702C114.607 35.4491 122.262 44.7864 122.262 55.9244C122.262 69.0484 111.628 79.6825 98.5043 79.6825H76.4728" stroke="white" stroke-width="3" stroke-miterlimit="10"/>
<path d="M48.6314 64.9282H33.4472L30.5794 57.288H1.92285" stroke="white" stroke-width="3" stroke-miterlimit="10"/>
<path d="M39.6943 34.5302H54.8785L57.7464 29.7949H103.225" stroke="white" stroke-width="3" stroke-miterlimit="10"/>
<path d="M57.413 130V119.885L62.0965 113.838V88.3232" stroke="white" stroke-width="3" stroke-miterlimit="10"/>
</svg>
