
<svg xmlns="http://www.w3.org/2000/svg" width="65" height="64" viewBox="0 0 65 64" fill="none">
<path d="M48.1505 48.1697V52.9508C48.1505 54.6339 46.7844 56 45.1013 56H18.0492C16.366 56 15 54.6339 15 52.9508V34.9608C15 33.2776 16.366 31.9116 18.0492 31.9116H45.1013C46.7844 31.9116 48.1505 33.2776 48.1505 34.9608V41.0042" stroke="white" stroke-width="2" stroke-miterlimit="10"/>
<path d="M38.8192 41.0043H50.9427V48.1698H38.8192C36.8434 48.1698 35.2334 46.5659 35.2334 44.584C35.2334 42.6081 36.8373 40.9982 38.8192 40.9982V41.0043Z" stroke="white" stroke-width="2" stroke-miterlimit="10"/>
<path d="M15 44.8706H21.9094L24.3975 41.3336H28.1724" stroke="white" stroke-width="2" stroke-miterlimit="10"/>
<path d="M21.5312 21.1786V26.2707" stroke="white" stroke-width="2" stroke-miterlimit="10"/>
<path d="M26.9033 21.1786V29.454" stroke="white" stroke-width="2" stroke-miterlimit="10"/>
<path d="M34.8612 31.9178C34.0868 30.9664 33.6172 29.759 33.6172 28.4356C33.6172 25.3987 36.0809 22.9349 39.1179 22.9349C42.1548 22.9349 44.6186 25.3987 44.6186 28.4356C44.6186 29.759 44.1551 30.9664 43.3745 31.9178" stroke="white" stroke-width="2" stroke-miterlimit="10"/>
<mask id="path-7-inside-1_600_6798" fill="white">
<path d="M40.7402 27.6062V26.3256C40.6975 26.3256 40.6304 26.3195 40.5389 26.3195C39.9718 26.3378 39.5815 26.6244 39.3681 27.161V26.3499H38.0996V30.5578H39.4107V28.4844C39.4107 28.1611 39.49 27.9294 39.6486 27.7892C39.8071 27.6489 40.0511 27.5818 40.3743 27.5818C40.4719 27.5818 40.5877 27.5879 40.7341 27.6062H40.7402Z"/>
</mask>
<path d="M40.7402 27.6062V29.6062H42.7402V27.6062H40.7402ZM40.7402 26.3256H42.7402V24.3256H40.7402V26.3256ZM40.5389 26.3195V24.3195H40.5067L40.4745 24.3205L40.5389 26.3195ZM39.3681 27.161H37.3681V37.6013L41.2265 27.9002L39.3681 27.161ZM39.3681 26.3499H41.3681V24.3499H39.3681V26.3499ZM38.0996 26.3499V24.3499H36.0996V26.3499H38.0996ZM38.0996 30.5578H36.0996V32.5578H38.0996V30.5578ZM39.4107 30.5578V32.5578H41.4107V30.5578H39.4107ZM40.7341 27.6062L40.486 29.5908L40.6096 29.6062H40.7341V27.6062ZM42.7402 27.6062V26.3256H38.7402V27.6062H42.7402ZM40.7402 24.3256C40.7719 24.3256 40.7929 24.3266 40.7868 24.3263C40.7855 24.3263 40.7827 24.3262 40.7755 24.3258C40.7698 24.3256 40.7589 24.325 40.7487 24.3246C40.7034 24.3225 40.6291 24.3195 40.5389 24.3195V28.3195C40.5403 28.3195 40.5452 28.3195 40.5671 28.3204C40.5735 28.3207 40.5787 28.321 40.5882 28.3214C40.5963 28.3218 40.6079 28.3224 40.6203 28.3229C40.6417 28.3238 40.6871 28.3256 40.7402 28.3256V24.3256ZM40.4745 24.3205C39.8586 24.3404 39.2174 24.5144 38.6494 24.9248C38.0867 25.3315 37.7271 25.8752 37.5097 26.4219L41.2265 27.9002C41.2225 27.9102 41.1647 28.0423 40.9923 28.1669C40.8146 28.2953 40.6522 28.3168 40.6034 28.3184L40.4745 24.3205ZM41.3681 27.161V26.3499H37.3681V27.161H41.3681ZM39.3681 24.3499H38.0996V28.3499H39.3681V24.3499ZM36.0996 26.3499V30.5578H40.0996V26.3499H36.0996ZM38.0996 32.5578H39.4107V28.5578H38.0996V32.5578ZM41.4107 30.5578V28.4844H37.4107V30.5578H41.4107ZM41.4107 28.4844C41.4107 28.4847 41.4107 28.4898 41.4101 28.4991C41.4095 28.5085 41.4082 28.523 41.4055 28.542C41.4002 28.5792 41.3886 28.6394 41.3625 28.7155C41.3078 28.8755 41.1923 29.0938 40.9737 29.2871L38.3234 26.2912C37.5522 26.9734 37.4107 27.8901 37.4107 28.4844H41.4107ZM40.9737 29.2871C40.7851 29.454 40.6011 29.5271 40.4943 29.5573C40.3932 29.5859 40.3431 29.5818 40.3743 29.5818V25.5818C39.8368 25.5818 39.0108 25.6831 38.3234 26.2912L40.9737 29.2871ZM40.3743 29.5818C40.3841 29.5818 40.417 29.5821 40.486 29.5908L40.9822 25.6216C40.7585 25.5937 40.5596 25.5818 40.3743 25.5818V29.5818ZM40.7341 29.6062H40.7402V25.6062H40.7341V29.6062Z" fill="white" mask="url(#path-7-inside-1_600_6798)"/>
<path d="M24.031 18.0075C20.994 18.0075 18.5303 15.5437 18.5303 12.5068C18.5303 9.46982 20.9879 7 24.031 7C27.074 7 29.5316 9.46372 29.5316 12.5007" stroke="white" stroke-width="2" stroke-miterlimit="10"/>
<path d="M24.1673 11.4211L24.5558 11.8603L24.1673 11.4211ZM24.1673 11.4211H24.2753V11.2322L24.1673 11.4211Z" stroke="white" stroke-width="2" stroke-miterlimit="10"/>
</svg>