
<svg xmlns="http://www.w3.org/2000/svg" width="64" height="64" viewBox="0 0 64 64" fill="none">
<path d="M49.7616 9.18322C50.1449 9.71544 50.6091 10.1838 51.1365 10.5704C50.6094 10.9567 50.1454 11.4244 49.762 11.9561C49.3786 11.4239 48.9145 10.9556 48.387 10.569C48.9141 10.1827 49.3782 9.71497 49.7616 9.18322Z" stroke="white" stroke-width="2" stroke-miterlimit="10"/>
<path d="M14.1318 33.9313C14.515 34.4629 14.9787 34.9307 15.5057 35.3169C14.9781 35.7036 14.5137 36.1718 14.1302 36.7041C13.7467 36.1728 13.2825 35.7053 12.7553 35.3192C13.2833 34.9324 13.748 34.464 14.1318 33.9313Z" stroke="white" stroke-width="2" stroke-miterlimit="10"/>
<path d="M35.2877 6.73206L41.2142 18.8796L54.4698 20.8289L44.8787 30.2828L47.1438 43.6353L35.2877 37.3328L23.4315 43.6353L25.6966 30.2828L16.1055 20.8289L29.3611 18.8796L35.2877 6.73206Z" stroke="white" stroke-width="2" stroke-miterlimit="10"/>
<path d="M35.2881 43.6353V57" stroke="white" stroke-width="2" stroke-miterlimit="10"/>
<path d="M40.8984 45.7433V52.9305" stroke="white" stroke-width="2" stroke-miterlimit="10"/>
<path d="M29.5791 49.2118V54.8097" stroke="white" stroke-width="2" stroke-miterlimit="10"/>
</svg>