
<svg xmlns="http://www.w3.org/2000/svg" width="64" height="64" viewBox="0 0 64 64" fill="none">
<path d="M23.4551 38.4913V10.2252C23.4551 8.60347 24.7706 7.28796 26.3923 7.28796H46.8941C48.5159 7.28796 49.8314 8.60347 49.8314 10.2252V38.4913" stroke="white" stroke-width="2" stroke-miterlimit="10"/>
<path d="M41.2881 43.7672L52.4421 37.5621C53.9281 36.6746 55.8527 37.1305 56.7819 38.5922C57.732 40.0887 57.283 42.0759 55.7796 43.0155L37.2372 54.2217C36.2279 54.8307 35.0482 55.0917 33.8788 54.963L22.3768 53.7066C21.204 53.5779 20.0242 53.8389 19.015 54.4514L16.457 56.0001" stroke="white" stroke-width="2" stroke-miterlimit="10"/>
<path d="M6.34668 50.1396L17.0587 39.4276C18.2454 38.6168 19.7071 38.314 21.1166 38.5924L35.7577 41.4531C37.1915 41.735 38.1938 43.0401 38.0894 44.4983C37.9711 46.1513 36.4955 47.3659 34.8528 47.1676L25.8775 46.0713" stroke="white" stroke-width="2" stroke-miterlimit="10"/>
<path d="M36.6482 34.2455C36.6482 34.2455 44.5308 32.2479 44.5308 25.4859C44.5308 22.9036 42.4393 20.812 39.857 20.812C38.6145 20.812 37.4835 21.2992 36.6482 22.0892C35.8095 21.2958 34.6819 20.812 33.4395 20.812C30.8572 20.812 28.7656 22.9036 28.7656 25.4859C28.7656 32.2479 36.6482 34.2455 36.6482 34.2455Z" stroke="white" stroke-width="2" stroke-miterlimit="10"/>
<path d="M39.5617 11.6068H33.7324" stroke="white" stroke-width="2" stroke-miterlimit="10"/>
</svg>