<svg xmlns="http://www.w3.org/2000/svg" width="65" height="64" viewBox="0 0 65 64" fill="none">
<path d="M23.3533 7.62024H13.6045C10.4947 7.62024 7.97363 10.1413 7.97363 13.2511V22.9999C7.97363 26.1097 10.4947 28.6308 13.6045 28.6308H23.3533C26.4631 28.6308 28.9841 26.1097 28.9841 22.9999V13.2511C28.9841 10.1413 26.4631 7.62024 23.3533 7.62024Z" stroke="white" stroke-width="2" stroke-miterlimit="10"/>
<path d="M51.3083 7.62024H41.5596C38.4497 7.62024 35.9287 10.1413 35.9287 13.2511V22.9999C35.9287 26.1097 38.4497 28.6308 41.5596 28.6308H51.3083C54.4182 28.6308 56.9392 26.1097 56.9392 22.9999V13.2511C56.9392 10.1413 54.4182 7.62024 51.3083 7.62024Z" stroke="white" stroke-width="2" stroke-miterlimit="10"/>
<path d="M23.3533 34.9894H13.6045C10.4947 34.9894 7.97363 37.5105 7.97363 40.6203V50.3691C7.97363 53.4789 10.4947 56 13.6045 56H23.3533C26.4631 56 28.9841 53.4789 28.9841 50.3691V40.6203C28.9841 37.5105 26.4631 34.9894 23.3533 34.9894Z" stroke="white" stroke-width="2" stroke-miterlimit="10"/>
<path d="M46.4326 53.6378V37.358" stroke="white" stroke-width="2" stroke-miterlimit="10"/>
<path d="M38.292 45.4979H54.5718" stroke="white" stroke-width="2" stroke-miterlimit="10"/>
</svg>