<svg xmlns="http://www.w3.org/2000/svg" width="64" height="64" viewBox="0 0 64 64" fill="none">
<path d="M23.9638 42.4999C29.9424 42.4999 34.789 37.6533 34.789 31.6747C34.789 25.6962 29.9424 20.8496 23.9638 20.8496C17.9853 20.8496 13.1387 25.6962 13.1387 31.6747C13.1387 37.6533 17.9853 42.4999 23.9638 42.4999Z" stroke="white" stroke-width="2" stroke-miterlimit="10"/>
<path d="M32.0635 39.2074L35.159 42.1152" stroke="white" stroke-width="2" stroke-miterlimit="10"/>
<path d="M36.5276 41.8558L34.9815 43.5022C34.5511 43.9606 34.5737 44.6811 35.0321 45.1115L44.7335 54.2217C45.1918 54.6522 45.9124 54.6295 46.3428 54.1712L47.8889 52.5247C48.3193 52.0664 48.2967 51.3458 47.8383 50.9154L38.1369 41.8052C37.6786 41.3748 36.9581 41.3974 36.5276 41.8558Z" stroke="white" stroke-width="2" stroke-miterlimit="10"/>
<path d="M23.9637 35.9519C26.3259 35.9519 28.2408 34.0369 28.2408 31.6747C28.2408 29.3125 26.3259 27.3976 23.9637 27.3976C21.6015 27.3976 19.6865 29.3125 19.6865 31.6747C19.6865 34.0369 21.6015 35.9519 23.9637 35.9519Z" stroke="white" stroke-width="2" stroke-miterlimit="10"/>
<path d="M7.27714 22.5543C9.63934 22.5543 11.5543 20.6393 11.5543 18.2771C11.5543 15.9149 9.63934 14 7.27714 14C4.91494 14 3 15.9149 3 18.2771C3 20.6393 4.91494 22.5543 7.27714 22.5543Z" stroke="white" stroke-width="2" stroke-miterlimit="10"/>
<path d="M40.6482 22.5543C43.0104 22.5543 44.9254 20.6393 44.9254 18.2771C44.9254 15.9149 43.0104 14 40.6482 14C38.286 14 36.3711 15.9149 36.3711 18.2771C36.3711 20.6393 38.286 22.5543 40.6482 22.5543Z" stroke="white" stroke-width="2" stroke-miterlimit="10"/>
<path d="M27.4473 29.1977L37.7863 20.8496" stroke="white" stroke-width="2" stroke-miterlimit="10"/>
<path d="M20.8017 29.1977L10.4658 20.8496" stroke="white" stroke-width="2" stroke-miterlimit="10"/>
<path d="M57.2498 35.9519C59.612 35.9519 61.5269 34.0369 61.5269 31.6747C61.5269 29.3125 59.612 27.3976 57.2498 27.3976C54.8876 27.3976 52.9727 29.3125 52.9727 31.6747C52.9727 34.0369 54.8876 35.9519 57.2498 35.9519Z" stroke="white" stroke-width="2" stroke-miterlimit="10"/>
<path d="M54.0859 29.1977L43.75 20.8496" stroke="white" stroke-width="2" stroke-miterlimit="10"/>
</svg>