<svg xmlns="http://www.w3.org/2000/svg" width="64" height="64" viewBox="0 0 64 64" fill="none">
<path d="M25.9975 47.5626C31.8868 47.5626 36.661 45.3997 36.661 42.7317C36.661 40.0637 31.8868 37.9009 25.9975 37.9009C20.1082 37.9009 15.334 40.0637 15.334 42.7317C15.334 45.3997 20.1082 47.5626 25.9975 47.5626Z" stroke="white" stroke-width="2" stroke-miterlimit="10"/>
<path d="M17.9704 45.9089C16.3294 46.758 15.334 47.8711 15.334 49.0892C15.334 51.7574 20.1076 53.92 25.9975 53.92C31.8874 53.92 36.661 51.7574 36.661 49.0892C36.661 47.8711 35.6656 46.758 34.0245 45.9089" stroke="white" stroke-width="2" stroke-miterlimit="10"/>
<path d="M17.9704 52.1995C16.3294 53.0486 15.334 54.1617 15.334 55.3798C15.334 58.048 20.1076 60.2106 25.9975 60.2106C31.8874 60.2106 36.661 58.048 36.661 55.3798C36.661 54.1617 35.6656 53.0486 34.0245 52.1995" stroke="white" stroke-width="2" stroke-miterlimit="10"/>
<path d="M37.6381 39.4878C43.5274 39.4878 48.3016 37.325 48.3016 34.657C48.3016 31.989 43.5274 29.8261 37.6381 29.8261C31.7488 29.8261 26.9746 31.989 26.9746 34.657C26.9746 37.325 31.7488 39.4878 37.6381 39.4878Z" stroke="white" stroke-width="2" stroke-miterlimit="10"/>
<path d="M35.9229 44.7385C36.4826 44.7799 37.055 44.8021 37.637 44.8021C43.5269 44.8021 48.3005 42.6395 48.3005 39.9713C48.3005 39.0045 47.674 38.1013 46.5927 37.3475" stroke="white" stroke-width="2" stroke-miterlimit="10"/>
<path d="M36.1719 51.2008C36.6521 51.2294 37.1419 51.2453 37.6412 51.2453C43.5311 51.2453 48.3047 49.0827 48.3047 46.4145C48.3047 45.1964 47.3092 44.0833 45.6682 43.2342" stroke="white" stroke-width="2" stroke-miterlimit="10"/>
<path d="M35.7734 57.6187C36.3777 57.6664 37.001 57.6918 37.6371 57.6918C43.527 57.6918 48.3006 55.5292 48.3006 52.861C48.3006 51.6429 47.3052 50.5298 45.6641 49.6807" stroke="white" stroke-width="2" stroke-miterlimit="10"/>
<path d="M21.8027 13.702V26.5122" stroke="white" stroke-width="2" stroke-miterlimit="10"/>
<path d="M15.334 22.2984L20.4034 26.7985C21.1666 27.5904 22.4228 27.6222 23.2243 26.8685L28.0838 22.2984" stroke="white" stroke-width="2" stroke-miterlimit="10"/>
<path d="M42.1309 1V19.4775" stroke="white" stroke-width="2" stroke-miterlimit="10"/>
<path d="M35.6621 15.2636L40.7315 19.7637C41.4948 20.5556 42.751 20.5874 43.5524 19.8337L48.4119 15.2636" stroke="white" stroke-width="2" stroke-miterlimit="10"/>
</svg>