<svg xmlns="http://www.w3.org/2000/svg" width="66" height="64" viewBox="0 0 66 64" fill="none">
<path d="M54.6922 16.6589V42.4579C54.6922 44.7952 52.7979 46.6926 50.4575 46.6926H12.9017C10.5643 46.6926 8.66699 44.7983 8.66699 42.4579V17.4838C8.66699 15.1465 10.5613 13.2491 12.9017 13.2491H48.0071" stroke="white" stroke-width="2" stroke-miterlimit="10"/>
<path d="M40.7467 47.0103H22.6104V52.8918H40.7467V47.0103Z" stroke="white" stroke-width="2" stroke-miterlimit="10"/>
<path d="M48.0067 53.1179H15.3516" stroke="white" stroke-width="2" stroke-miterlimit="10"/>
<path d="M8.66699 40.7775H54.6922" stroke="white" stroke-width="2" stroke-miterlimit="10"/>
<path d="M54.6219 17.2974C51.9118 19.6866 49.0979 21.6573 46.397 23.1391C44.7135 24.0619 43.0728 24.7921 41.5207 25.3237C40.7661 25.5803 40.0695 24.7921 40.4208 24.0741C41.1388 22.5984 42.0737 21.0676 43.1981 19.5125C45.0099 17.0163 47.3136 14.4743 50.0237 12.082C54.4203 8.2048 59.0827 5.43058 63.1248 4.04958C63.8795 3.79293 64.573 4.5812 64.2247 5.2992C62.3518 9.13972 59.0215 13.4202 54.625 17.3005L54.6219 17.2974Z" stroke="white" stroke-width="2" stroke-miterlimit="10"/>
<path d="M39.4894 27.1049C38.8844 25.9897 37.2132 25.5926 36.1347 26.1792C35.3525 26.6039 35.0684 27.3127 34.7109 28.0735C33.611 30.4077 30.3418 30.7621 30.3418 30.7621C30.3418 30.7621 32.4744 33.2583 36.2233 32.2042C38.3162 31.6146 40.7268 29.3903 39.4894 27.1049Z" stroke="white" stroke-width="2" stroke-miterlimit="10"/>
</svg>