<svg xmlns="http://www.w3.org/2000/svg" width="65" height="64" viewBox="0 0 65 64" fill="none">
<path d="M31.3064 34.7864L34.8745 28.9457M32.4748 24.1421L35.1802 19.7113L40.2728 19.737L49.2309 5.08192M28.513 39.5514L22.9346 49.7029L26.3227 55.9077L24.0779 60M29.4301 50.2556L32.257 45.1092M22.0007 38.9858L19.1738 44.1322M50.659 5.99466L46.6679 50.5985C46.5171 52.2868 44.3896 52.8696 43.4389 51.4812L31.9848 34.8292C31.7084 34.4264 31.2854 34.1565 30.8122 34.0793L11.1663 30.8398C9.52884 30.5698 9.11005 28.3587 10.5256 27.4802L47.962 4.26775C49.21 3.49215 50.793 4.50343 50.659 5.99466Z" stroke="white" stroke-width="2" stroke-miterlimit="10"/>
</svg>