<svg width="104" height="104" viewBox="0 0 104 104" fill="none" xmlns="http://www.w3.org/2000/svg">
<rect width="104" height="104" rx="52" fill="#14451B"/>
<mask id="mask0_1746_7864" style="mask-type:alpha" maskUnits="userSpaceOnUse" x="8" y="8" width="88" height="88">
<rect x="8" y="8" width="88" height="88" fill="#D9D9D9"/>
</mask>
<g mask="url(#mask0_1746_7864)">
<path d="M46.8663 68.8673L72.7163 43.0173L67.583 37.884L46.8663 58.6007L36.4163 48.1507L31.283 53.284L46.8663 68.8673ZM51.9997 88.6673C46.9275 88.6673 42.1608 87.7042 37.6997 85.778C33.2386 83.8542 29.358 81.2423 26.058 77.9423C22.758 74.6423 20.1461 70.7618 18.2223 66.3006C16.2961 61.8395 15.333 57.0729 15.333 52.0006C15.333 46.9284 16.2961 42.1618 18.2223 37.7007C20.1461 33.2395 22.758 29.359 26.058 26.059C29.358 22.759 33.2386 20.1459 37.6997 18.2197C42.1608 16.2959 46.9275 15.334 51.9997 15.334C57.0719 15.334 61.8386 16.2959 66.2997 18.2197C70.7608 20.1459 74.6413 22.759 77.9413 26.059C81.2413 29.359 83.8532 33.2395 85.777 37.7007C87.7032 42.1618 88.6663 46.9284 88.6663 52.0006C88.6663 57.0729 87.7032 61.8395 85.777 66.3006C83.8532 70.7618 81.2413 74.6423 77.9413 77.9423C74.6413 81.2423 70.7608 83.8542 66.2997 85.778C61.8386 87.7042 57.0719 88.6673 51.9997 88.6673Z" fill="#00D222"/>
</g>
</svg>
