<svg width="31" height="31" viewBox="0 0 31 31" fill="none" xmlns="http://www.w3.org/2000/svg">
<rect x="0.424805" y="0.251465" width="29.9033" height="29.9033" rx="10.6054" fill="#111111"/>
<rect x="0.604825" y="0.431486" width="29.5433" height="29.5433" rx="10.4253" stroke="url(#paint0_linear_677_4737)" stroke-opacity="0.4" stroke-width="0.360042"/>
<path d="M16.0748 7.17556C15.8449 7.15481 15.6135 7.14523 15.3789 7.14523C10.9287 7.14523 7.32125 10.7526 7.32125 15.2028C7.32125 19.653 10.9287 23.2604 15.3789 23.2604C15.6135 23.2604 15.8449 23.2508 16.0748 23.2301C20.1994 22.8773 23.4364 19.4184 23.4364 15.2028C23.4364 10.9873 20.1994 7.52832 16.0748 7.17556ZM15.3789 27.6627C8.49765 27.6627 2.91895 22.084 2.91895 15.2028C2.91895 8.32162 8.49765 2.74292 15.3789 2.74292C22.2601 2.74292 27.8388 8.32162 27.8388 15.2028C27.8388 22.084 22.2601 27.6627 15.3789 27.6627Z" stroke="white" stroke-width="1.28825" stroke-miterlimit="10"/>
<path d="M18.3417 13.7663V11.5412C18.2682 11.5316 18.1533 11.5269 17.9969 11.5269C17.0104 11.5636 16.3336 12.052 15.9649 12.9922V11.5827H13.7686V18.8789H16.0479V15.2859C16.0479 14.724 16.1868 14.3234 16.4629 14.084C16.7391 13.8445 17.1589 13.7248 17.7207 13.7248C17.8867 13.7248 18.0942 13.7392 18.3433 13.7663H18.3417Z" fill="white"/>
<defs>
<linearGradient id="paint0_linear_677_4737" x1="9.55559" y1="-2.24048" x2="41.3235" y2="16.4969" gradientUnits="userSpaceOnUse">
<stop stop-color="white"/>
<stop offset="1" stop-color="#E3E3E3" stop-opacity="0"/>
</linearGradient>
</defs>
</svg>
