<svg width="56" height="73" viewBox="0 0 56 73" fill="none" xmlns="http://www.w3.org/2000/svg">
<path d="M29.4414 40.4844L33.9689 33.1814M30.9267 27.1787L34.3609 21.6397L40.8222 21.6701L52.1804 3.34617M25.9054 46.434L18.8334 59.1276L23.1309 66.8868L20.281 72M27.0665 59.8195L30.6515 53.3872M17.6422 45.7345L14.0572 52.1668M53.9899 4.49047L48.9309 60.2453C48.7387 62.3552 46.0433 63.0813 44.8332 61.3478L30.3085 40.5338C29.9579 40.032 29.4226 39.6937 28.8194 39.5948L3.90155 35.5461C1.82443 35.2077 1.2929 32.4477 3.09106 31.3491L50.5708 2.33494C52.1578 1.36552 54.1595 2.62766 53.9899 4.49047Z" stroke="white" stroke-width="4" stroke-miterlimit="10"/>
</svg>
