<svg xmlns="http://www.w3.org/2000/svg" width="80" height="80" viewBox="0 0 80 80" fill="none">
<path d="M57.2449 34.4617H62.3572C65.1349 34.4617 67.3897 36.7128 67.3897 39.4941V69.1732C67.3897 71.9509 65.1385 74.2057 62.3572 74.2057H17.7224C14.9447 74.2057 12.6899 71.9545 12.6899 69.1732V39.4941C12.6899 36.7165 14.9411 34.4617 17.7224 34.4617H22.8347" stroke="white" stroke-width="2" stroke-miterlimit="10"/>
<path d="M40.0402 51.6648C49.5413 51.6648 57.2435 43.9627 57.2435 34.4616C57.2435 24.9605 49.5413 17.2583 40.0402 17.2583C30.5391 17.2583 22.8369 24.9605 22.8369 34.4616C22.8369 43.9627 30.5391 51.6648 40.0402 51.6648Z" stroke="white" stroke-width="2" stroke-miterlimit="10"/>
<path d="M41.0386 24.6726L43.1118 28.8736C43.2752 29.2004 43.5875 29.4291 43.947 29.4799L48.5836 30.1553C49.495 30.286 49.8581 31.4043 49.1973 32.047L45.8423 35.3184C45.5809 35.5726 45.461 35.9393 45.5228 36.2988L46.3143 40.9173C46.4704 41.825 45.5191 42.5149 44.7058 42.0865L40.5593 39.9079C40.2362 39.7373 39.8513 39.7373 39.5281 39.9079L35.3816 42.0865C34.5683 42.5149 33.617 41.8214 33.7731 40.9173L34.5647 36.2988C34.6264 35.9393 34.5066 35.5726 34.2451 35.3184L30.8902 32.047C30.233 31.4043 30.5961 30.286 31.5038 30.1553L36.1405 29.4799C36.5036 29.4291 36.8158 29.2004 36.9756 28.8736L39.0488 24.6726C39.4555 23.8484 40.6319 23.8484 41.0386 24.6726Z" stroke="white" stroke-width="2" stroke-miterlimit="10"/>
<path d="M40.0415 11.4817V1.33325" stroke="white" stroke-width="2" stroke-miterlimit="10"/>
<path d="M48.2759 13.0104L51.3948 4.8772" stroke="white" stroke-width="2" stroke-miterlimit="10"/>
<path d="M55.4136 17.3854L58.9065 13.5076" stroke="white" stroke-width="2" stroke-miterlimit="10"/>
<path d="M60.5181 24.03L69.559 19.4224" stroke="white" stroke-width="2" stroke-miterlimit="10"/>
<path d="M31.9476 13.0101L28.9775 5.26538" stroke="white" stroke-width="2" stroke-miterlimit="10"/>
<path d="M24.8106 17.3858L21.4121 13.6133" stroke="white" stroke-width="2" stroke-miterlimit="10"/>
<path d="M19.7075 24.03L10.6665 19.4224" stroke="white" stroke-width="2" stroke-miterlimit="10"/>
<path d="M67.7562 60.187H42.0929L37.9899 66.0255H12.6934" stroke="white" stroke-width="2" stroke-miterlimit="10"/>
</svg>