<svg xmlns="http://www.w3.org/2000/svg" width="80" height="80" viewBox="0 0 80 80" fill="none">
<path d="M41.869 18.5243C41.2541 18.4688 40.6349 18.4432 40.0072 18.4432C28.1016 18.4432 18.4508 28.0941 18.4508 39.9996C18.4508 51.9051 28.1016 61.556 40.0072 61.556C40.6349 61.556 41.2541 61.5304 41.869 61.4749C52.9034 60.5311 61.5636 51.2774 61.5636 39.9996C61.5636 28.7218 52.9034 19.4681 41.869 18.5243ZM40.0072 73.3334C21.598 73.3334 6.67334 58.4088 6.67334 39.9996C6.67334 21.5904 21.598 6.66577 40.0072 6.66577C58.4164 6.66577 73.341 21.5904 73.341 39.9996C73.341 58.4088 58.4164 73.3334 40.0072 73.3334Z" stroke="white" stroke-width="2.06786" stroke-miterlimit="10"/>
<path d="M47.935 36.1567V30.204C47.7386 30.1783 47.4312 30.1655 47.0127 30.1655C44.3736 30.2637 42.563 31.5705 41.5766 34.0856V30.315H35.7007V49.8345H41.7987V40.222C41.7987 38.7189 42.1702 37.6471 42.9089 37.0065C43.6477 36.366 44.7708 36.0457 46.2739 36.0457C46.718 36.0457 47.2732 36.0841 47.9393 36.1567H47.935Z" fill="white"/>
</svg>