<svg xmlns="http://www.w3.org/2000/svg" width="24" height="24" viewBox="0 0 24 24" fill="none">
<path d="M11.9997 16.1666C14.3009 16.1666 16.1663 14.3011 16.1663 11.9999C16.1663 9.69873 14.3009 7.83325 11.9997 7.83325C9.69849 7.83325 7.83301 9.69873 7.83301 11.9999C7.83301 14.3011 9.69849 16.1666 11.9997 16.1666Z" stroke="white" stroke-width="1.5" stroke-linecap="round"/>
<path d="M17 2H7C4.23858 2 2 4.23858 2 7V17C2 19.7614 4.23858 22 7 22H17C19.7614 22 22 19.7614 22 17V7C22 4.23858 19.7614 2 17 2Z" stroke="white" stroke-width="1.5" stroke-linecap="round"/>
<path d="M17.417 7.83325C18.1073 7.83325 18.667 7.27361 18.667 6.58325C18.667 5.8929 18.1073 5.33325 17.417 5.33325C16.7266 5.33325 16.167 5.8929 16.167 6.58325C16.167 7.27361 16.7266 7.83325 17.417 7.83325Z" stroke="white" stroke-width="1.5" stroke-linecap="round"/>
</svg>