<svg xmlns="http://www.w3.org/2000/svg" width="24" height="24" viewBox="0 0 24 24" fill="none">
<path d="M21.1667 2H2.83333C2.3731 2 2 2.3731 2 2.83333V21.1667C2 21.6269 2.3731 22 2.83333 22H21.1667C21.6269 22 22 21.6269 22 21.1667V2.83333C22 2.3731 21.6269 2 21.1667 2Z" stroke="white" stroke-width="1.5" stroke-linecap="round"/>
<path d="M11.167 10.3333V16.9999" stroke="white" stroke-width="1.5" stroke-linecap="round"/>
<path d="M7.83301 10.3333V16.9999" stroke="white" stroke-width="1.5" stroke-linecap="round"/>
<path d="M11.167 13.2499C11.167 12.4764 11.4743 11.7345 12.0213 11.1875C12.5682 10.6405 13.3101 10.3333 14.0837 10.3333C14.8572 10.3333 15.5991 10.6405 16.1461 11.1875C16.693 11.7345 17.0003 12.4764 17.0003 13.2499V16.9999" stroke="white" stroke-width="1.5" stroke-linecap="round"/>
<path d="M7.83301 8.66675C8.52336 8.66675 9.08301 8.1071 9.08301 7.41675C9.08301 6.72639 8.52336 6.16675 7.83301 6.16675C7.14265 6.16675 6.58301 6.72639 6.58301 7.41675C6.58301 8.1071 7.14265 8.66675 7.83301 8.66675Z" stroke="white" stroke-width="1.5" stroke-linecap="round"/>
</svg>