<svg xmlns="http://www.w3.org/2000/svg" width="65" height="64" viewBox="0 0 65 64" fill="none">
<path d="M8.76098 19.4644C8.96695 19.29 9.15806 19.0985 9.3322 18.8921C9.50633 19.0985 9.69744 19.29 9.90341 19.4644C9.69744 19.6387 9.50633 19.8302 9.3322 20.0366C9.15806 19.8302 8.96695 19.6387 8.76098 19.4644Z" stroke="white" stroke-width="2" stroke-miterlimit="10"/>
<path d="M26.7375 46.8669C26.9435 46.6925 27.1346 46.501 27.3088 46.2946C27.4829 46.501 27.674 46.6925 27.88 46.8669C27.674 47.0413 27.4829 47.2327 27.3088 47.4392C27.1346 47.2327 26.9435 47.0413 26.7375 46.8669Z" stroke="white" stroke-width="2" stroke-miterlimit="10"/>
<path d="M45.3396 13.6338C45.5456 13.4595 45.7367 13.268 45.9108 13.0616C46.0849 13.268 46.2761 13.4595 46.482 13.6338C46.2761 13.8082 46.0849 13.9997 45.9108 14.2061C45.7367 13.9997 45.5456 13.8082 45.3396 13.6338Z" stroke="white" stroke-width="2" stroke-miterlimit="10"/>
<path d="M9.44296 40.1654H4.06641V29.3838L11.7301 26.7426L19.0825 15.9638H29.039L29.0418 26.7426H36.6998" stroke="white" stroke-width="2" stroke-miterlimit="10"/>
<path d="M36.6994 40.1654H21.5806" stroke="white" stroke-width="2" stroke-miterlimit="10"/>
<path d="M21.7209 41.4759C21.7209 44.9052 18.9398 47.6862 15.5106 47.6862C12.0814 47.6862 9.30029 44.9052 9.30029 41.4759C9.30029 41.0276 9.34598 40.5851 9.4402 40.1653C10.0427 37.3643 12.5297 35.2656 15.5106 35.2656C18.4915 35.2656 20.9785 37.3614 21.581 40.1653C21.6724 40.5851 21.7209 41.0276 21.7209 41.4759Z" stroke="white" stroke-width="2" stroke-miterlimit="10"/>
<path d="M56.5413 38.4694C56.764 38.5465 56.9838 38.6293 57.2037 38.7149C59.1367 39.4687 61.0898 37.6642 60.4873 35.6769C59.1253 31.1883 59.1253 26.3971 60.4873 21.9086C61.0898 19.9241 59.1367 18.1167 57.2037 18.8705C52.6923 20.6322 47.6841 20.6322 43.1755 18.8705C41.2425 18.1167 39.2895 19.9213 39.8919 21.9086C41.2539 26.3971 41.2539 31.1883 39.8919 35.6769C39.2895 37.6613 41.2425 39.4687 43.1755 38.7149C43.5239 38.5779 43.8751 38.4522 44.2292 38.338" stroke="white" stroke-width="2" stroke-miterlimit="10"/>
<path d="M53.5273 42.0614V38.4865C53.5273 37.6442 54.2098 36.9618 55.0521 36.9618C55.8944 36.9618 56.5768 37.6442 56.5768 38.4865V42.0614V45.502C56.5768 46.6127 56.1171 47.6721 55.3062 48.4316L54.7694 48.9341V52.6403" stroke="white" stroke-width="2" stroke-miterlimit="10"/>
<path d="M53.528 42.0614V35.183C53.528 34.3407 52.8456 33.6583 52.0033 33.6583C51.1609 33.6583 50.4785 34.3407 50.4785 35.183V42.0614" stroke="white" stroke-width="2" stroke-miterlimit="10"/>
<path d="M50.4811 42.0614V34.0266C50.4811 33.1842 49.7987 32.5018 48.9564 32.5018C48.1141 32.5018 47.4316 33.1842 47.4316 34.0266V42.0614" stroke="white" stroke-width="2" stroke-miterlimit="10"/>
<path d="M47.4323 42.0614V35.5598C47.4323 34.7175 46.7499 34.0351 45.9075 34.0351C45.0652 34.0351 44.3828 34.7175 44.3828 35.5598V45.2879" stroke="white" stroke-width="2" stroke-miterlimit="10"/>
<path d="M45.4643 53.0002V50.0592L43.3571 48.8514C42.1093 48.1347 41.3384 46.807 41.3384 45.3679V43.5833C41.3384 42.741 42.0208 42.0586 42.8631 42.0586C43.7054 42.0586 44.3879 42.741 44.3879 43.5833V45.2851" stroke="white" stroke-width="2" stroke-miterlimit="10"/>
</svg>