<svg xmlns="http://www.w3.org/2000/svg" width="65" height="64" viewBox="0 0 65 64" fill="none">
<path d="M43.9397 5H27.628C25.3367 5 23.5152 6.92704 23.6479 9.21497L25.9903 47.194H45.5808L47.9232 9.21497C48.0526 6.92704 46.2345 5 43.9431 5H43.9397Z" stroke="white" stroke-width="2" stroke-miterlimit="10"/>
<path d="M25.9858 49.7373V54.1463C25.9858 56.3491 27.7699 58.1332 29.9727 58.1332H41.5894C43.7922 58.1332 45.5763 56.3491 45.5763 54.1463V47.194H25.9858V49.7373Z" stroke="white" stroke-width="2" stroke-miterlimit="10"/>
<path d="M49.706 43.8949H59.9983V54.7149C59.9983 56.3968 58.6331 57.7621 56.9512 57.7621H52.7498C51.0679 57.7621 49.7026 56.3968 49.7026 54.7149V43.8949H49.706Z" stroke="white" stroke-width="2" stroke-miterlimit="10"/>
<path d="M57.6563 43.8949V33.6128C57.6563 33.2008 57.3226 32.8672 56.9106 32.8672H52.5322C52.1203 32.8672 51.7866 33.2008 51.7866 33.6128V40.8613" stroke="white" stroke-width="2" stroke-miterlimit="10"/>
<path d="M56.9071 32.8638V24.6177L52.7466 28.1415V32.8638" stroke="white" stroke-width="2" stroke-miterlimit="10"/>
<path d="M24.4785 22.6668C23.1405 22.1697 21.6935 21.8973 20.1818 21.8973C13.3759 21.8973 7.85693 27.4163 7.85693 34.2222C7.85693 41.0281 13.3759 46.5471 20.1818 46.5471C22.2314 46.5471 24.1653 46.0466 25.8642 45.1614" stroke="white" stroke-width="2" stroke-miterlimit="10"/>
<path d="M24.2671 19.2485C22.9666 18.8945 21.5945 18.7038 20.1816 18.7038C11.612 18.7038 4.6665 25.6493 4.6665 34.2188C4.6665 42.7884 11.612 49.7339 20.1816 49.7339C22.1358 49.7339 24.005 49.373 25.7278 48.7125" stroke="white" stroke-width="2" stroke-miterlimit="10"/>
<path d="M25.9865 52.6619H4.6665L5.19763 54.6605C5.73897 56.7067 7.59111 58.1298 9.70881 58.1298H29.9768V55.1814C29.9768 54.211 30.7632 53.428 31.7302 53.428H38.9038C39.8741 53.428 40.6572 54.2145 40.6572 55.1814V57.7553" stroke="white" stroke-width="2" stroke-miterlimit="10"/>
<path d="M13.3589 48.1575V52.6618" stroke="white" stroke-width="2" stroke-miterlimit="10"/>
<path d="M23.6479 9.21497H47.9198" stroke="white" stroke-width="2" stroke-miterlimit="10"/>
</svg>