<svg xmlns="http://www.w3.org/2000/svg" width="65" height="64" viewBox="0 0 65 64" fill="none">
  <path d="M61.1276 53.9999H3.5415" stroke="white" stroke-width="2" stroke-miterlimit="10"/>
  <path d="M39.6177 54V42.0767" stroke="white" stroke-width="2" stroke-miterlimit="10"/>
  <path d="M44.9966 54V42.0767" stroke="white" stroke-width="2" stroke-miterlimit="10"/>
  <path d="M50.3726 54V42.0767" stroke="white" stroke-width="2" stroke-miterlimit="10"/>
  <path d="M55.7524 54V42.0767" stroke="white" stroke-width="2" stroke-miterlimit="10"/>
  <path d="M61.127 54V42.0767" stroke="white" stroke-width="2" stroke-miterlimit="10"/>
  <path d="M11.8413 46.1923C14.3342 46.1923 16.355 44.1715 16.355 41.6786C16.355 39.1858 14.3342 37.1649 11.8413 37.1649C9.34849 37.1649 7.32764 39.1858 7.32764 41.6786C7.32764 44.1715 9.34849 46.1923 11.8413 46.1923Z" stroke="white" stroke-width="2" stroke-miterlimit="10"/>
  <path d="M31.5148 10.2799L16.356 41.6785" stroke="white" stroke-width="2" stroke-miterlimit="10"/>
  <path d="M28.44 46.1922C30.9328 46.1922 32.9537 44.1714 32.9537 41.6785C32.9537 39.1857 30.9328 37.1649 28.44 37.1649C25.9471 37.1649 23.9263 39.1857 23.9263 41.6785C23.9263 44.1714 25.9471 46.1922 28.44 46.1922Z" stroke="white" stroke-width="2" stroke-miterlimit="10"/>
  <path d="M8.76709 10.2799L23.9259 41.6785" stroke="white" stroke-width="2" stroke-miterlimit="10"/>
</svg>