<svg xmlns="http://www.w3.org/2000/svg" width="64" height="64" viewBox="0 0 64 64" fill="none">
  <path d="M54.7026 5.12378V14.8739C54.7026 16.2428 53.8698 17.4194 52.6901 17.9273C52.2895 18.0913 51.8542 18.1859 51.3968 18.1859C49.5704 18.1859 48.0879 16.7065 48.0879 14.877V5.12378H54.7026Z" stroke="white" stroke-width="2" stroke-miterlimit="10"/>
  <path d="M52.6878 17.9273V53.9467H10.6025V17.9967C10.9464 18.1197 11.3154 18.1859 11.7003 18.1859C13.5266 18.1859 15.006 16.7065 15.006 14.877C15.006 16.7065 16.4854 18.1859 18.3149 18.1859C20.1444 18.1859 21.6207 16.7065 21.6207 14.877C21.6207 16.7065 23.1001 18.1859 24.9296 18.1859C26.7591 18.1859 28.2353 16.7065 28.2353 14.877C28.2353 16.7065 29.7147 18.1859 31.5442 18.1859C33.3738 18.1859 34.85 16.7065 34.85 14.877C34.85 16.7065 36.3294 18.1859 38.1589 18.1859C39.9884 18.1859 41.4647 16.7065 41.4647 14.877C41.4647 16.7065 42.944 18.1859 44.7736 18.1859C46.6031 18.1859 48.0793 16.7065 48.0793 14.877C48.0793 16.7065 49.565 18.1859 51.3882 18.1859C51.8425 18.1859 52.2809 18.0944 52.6815 17.9273H52.6878Z" stroke="white" stroke-width="2" stroke-miterlimit="10"/>
  <path d="M15.0092 5.12378V14.8739C15.0092 16.7034 13.5298 18.1828 11.7034 18.1828C11.3186 18.1828 10.9496 18.1197 10.6057 17.9935C9.31875 17.5424 8.39453 16.3154 8.39453 14.8707V5.12378H15.0092Z" stroke="white" stroke-width="2" stroke-miterlimit="10"/>
  <path d="M21.6235 5.12378V14.8739C21.6235 16.7034 20.1441 18.1828 18.3177 18.1828C16.4913 18.1828 15.0088 16.7034 15.0088 14.8739V5.12378H21.6235Z" stroke="white" stroke-width="2" stroke-miterlimit="10"/>
  <path d="M28.2387 5.12378V14.8739C28.2387 16.7034 26.7593 18.1828 24.9329 18.1828C23.1066 18.1828 21.624 16.7034 21.624 14.8739V5.12378H28.2387Z" stroke="white" stroke-width="2" stroke-miterlimit="10"/>
  <path d="M34.8549 5.12378V14.8739C34.8549 16.7034 33.3755 18.1828 31.5491 18.1828C29.7228 18.1828 28.2402 16.7034 28.2402 14.8739V5.12378H34.8549Z" stroke="white" stroke-width="2" stroke-miterlimit="10"/>
  <path d="M41.4711 5.12378V14.8739C41.4711 16.7034 39.9917 18.1828 38.1654 18.1828C36.339 18.1828 34.8564 16.7034 34.8564 14.8739V5.12378H41.4711Z" stroke="white" stroke-width="2" stroke-miterlimit="10"/>
  <path d="M48.0854 5.12378V14.8739C48.0854 16.7034 46.606 18.1828 44.7796 18.1828C42.9532 18.1828 41.4707 16.7034 41.4707 14.8739V5.12378H48.0854Z" stroke="white" stroke-width="2" stroke-miterlimit="10"/>
  <path d="M10.6055 34.639H52.6876" stroke="white" stroke-width="2" stroke-miterlimit="10"/>
  <path d="M48.0879 14.877V34.639" stroke="white" stroke-width="2" stroke-miterlimit="10"/>
  <path d="M15.0088 16.4858V34.639" stroke="white" stroke-width="2" stroke-miterlimit="10"/>
  <path d="M23.2959 38.7334H37.0488V44.8591C37.0488 47.5372 34.8755 49.7074 32.2006 49.7074H28.1473C25.4692 49.7074 23.2991 47.534 23.2991 44.8591V38.7334H23.2959Z" stroke="white" stroke-width="2" stroke-miterlimit="10"/>
  <path d="M37.4212 39.9542H39.6829C41.1402 39.9542 42.1969 41.1055 41.8026 42.2663L40.6197 45.7455C40.257 46.8086 39.0804 47.5467 37.743 47.5467H36.4434" stroke="white" stroke-width="2" stroke-miterlimit="10"/>
  <path d="M57.4317 53.9467H5.86133V59H57.4317V53.9467Z" stroke="white" stroke-width="2" stroke-miterlimit="10"/>
</svg>