<svg xmlns="http://www.w3.org/2000/svg" width="65" height="64" viewBox="0 0 65 64" fill="none">
<path d="M59.2991 8.00006V55.088H22.8873C23.9471 55.088 24.8068 54.2284 24.8068 53.1685V52.672C24.8068 51.6121 23.9471 50.7525 22.8873 50.7525C23.9471 50.7525 24.8068 49.8928 24.8068 48.8329V48.3364C24.8068 47.2738 23.9471 46.4142 22.8873 46.4142C23.9471 46.4142 24.8068 45.5546 24.8068 44.4947V43.9981C24.8068 42.9383 23.9471 42.0786 22.8873 42.0786H20.6768V8.00006H59.2991Z" stroke="white" stroke-width="2" stroke-miterlimit="10"/>
<path d="M39.9865 46.3768C45.0055 46.3768 49.0742 42.3082 49.0742 37.2892C49.0742 32.2703 45.0055 28.2016 39.9865 28.2016C34.9676 28.2016 30.8989 32.2703 30.8989 37.2892C30.8989 42.3082 34.9676 46.3768 39.9865 46.3768Z" stroke="white" stroke-width="2" stroke-miterlimit="10"/>
<path d="M39.9863 51.4733C47.8199 51.4733 54.1704 45.1229 54.1704 37.2892C54.1704 29.4556 47.8199 23.1052 39.9863 23.1052C32.1527 23.1052 25.8022 29.4556 25.8022 37.2892C25.8022 45.1229 32.1527 51.4733 39.9863 51.4733Z" stroke="white" stroke-width="2" stroke-miterlimit="10"/>
<path d="M20.6768 18.3237H59.2991" stroke="white" stroke-width="2" stroke-miterlimit="10"/>
<path d="M22.887 50.7524H8.58552C7.52541 50.7524 6.66602 51.6118 6.66602 52.6719V53.1685C6.66602 54.2286 7.52541 55.088 8.58552 55.088H22.887C23.9472 55.088 24.8065 54.2286 24.8065 53.1685V52.6719C24.8065 51.6118 23.9472 50.7524 22.887 50.7524Z" stroke="white" stroke-width="2" stroke-miterlimit="10"/>
<path d="M24.8065 48.3364V48.8329C24.8065 49.8928 23.9469 50.7524 22.887 50.7524H8.58552C7.52566 50.7524 6.66602 49.8928 6.66602 48.8329V48.3364C6.66602 47.2738 7.52566 46.4142 8.58552 46.4142H22.887C23.9469 46.4142 24.8065 47.2738 24.8065 48.3364Z" stroke="white" stroke-width="2" stroke-miterlimit="10"/>
<path d="M22.887 42.0786H8.58552C7.52541 42.0786 6.66602 42.938 6.66602 43.9981V44.4947C6.66602 45.5548 7.52541 46.4142 8.58552 46.4142H22.887C23.9472 46.4142 24.8065 45.5548 24.8065 44.4947V43.9981C24.8065 42.938 23.9472 42.0786 22.887 42.0786Z" stroke="white" stroke-width="2" stroke-miterlimit="10"/>
<path d="M25.8023 13.8413C26.3641 13.8413 26.8195 13.3859 26.8195 12.8242C26.8195 12.2624 26.3641 11.807 25.8023 11.807C25.2405 11.807 24.7852 12.2624 24.7852 12.8242C24.7852 13.3859 25.2405 13.8413 25.8023 13.8413Z" stroke="white" stroke-width="2" stroke-miterlimit="10"/>
<path d="M30.9898 13.8414C31.5516 13.8414 32.007 13.386 32.007 12.8242C32.007 12.2625 31.5516 11.8071 30.9898 11.8071C30.4281 11.8071 29.9727 12.2625 29.9727 12.8242C29.9727 13.386 30.4281 13.8414 30.9898 13.8414Z" stroke="white" stroke-width="2" stroke-miterlimit="10"/>
<path d="M36.1802 13.8414C36.742 13.8414 37.1974 13.386 37.1974 12.8242C37.1974 12.2625 36.742 11.8071 36.1802 11.8071C35.6185 11.8071 35.1631 12.2625 35.1631 12.8242C35.1631 13.386 35.6185 13.8414 36.1802 13.8414Z" stroke="white" stroke-width="2" stroke-miterlimit="10"/>
</svg>