<svg xmlns="http://www.w3.org/2000/svg" width="66" height="64" viewBox="0 0 66 64" fill="none">
<path d="M55.0252 16.6589V42.4579C55.0252 44.7952 53.1309 46.6926 50.7905 46.6926H13.2347C10.8973 46.6926 9 44.7983 9 42.4579V17.4838C9 15.1465 10.8943 13.2491 13.2347 13.2491H48.3402" stroke="white" stroke-width="2" stroke-miterlimit="10"/>
<path d="M41.0797 47.0103H22.9434V52.8918H41.0797V47.0103Z" stroke="white" stroke-width="2" stroke-miterlimit="10"/>
<path d="M48.3397 53.1179H15.6846" stroke="white" stroke-width="2" stroke-miterlimit="10"/>
<path d="M9 40.7775H55.0252" stroke="white" stroke-width="2" stroke-miterlimit="10"/>
<path d="M54.9549 17.2974C52.2449 19.6866 49.4309 21.6573 46.73 23.1391C45.0465 24.0619 43.4058 24.7921 41.8537 25.3237C41.0991 25.5803 40.4025 24.7921 40.7538 24.0741C41.4718 22.5984 42.4068 21.0676 43.5311 19.5125C45.3429 17.0163 47.6466 14.4743 50.3567 12.082C54.7533 8.2048 59.4157 5.43058 63.4578 4.04958C64.2125 3.79293 64.9061 4.5812 64.5577 5.2992C62.6848 9.13972 59.3546 13.4202 54.958 17.3005L54.9549 17.2974Z" stroke="white" stroke-width="2" stroke-miterlimit="10"/>
<path d="M39.8224 27.1049C39.2174 25.9897 37.5462 25.5925 36.4677 26.1791C35.6855 26.6038 35.4014 27.3127 35.0439 28.0734C33.944 30.4077 30.6748 30.7621 30.6748 30.7621C30.6748 30.7621 32.8074 33.2583 36.5563 32.2042C38.6492 31.6145 41.0598 29.3903 39.8224 27.1049Z" stroke="white" stroke-width="2" stroke-miterlimit="10"/>
</svg>