<svg xmlns="http://www.w3.org/2000/svg" width="64" height="64" viewBox="0 0 64 64" fill="none">
<path d="M49.2049 47.4223C52.4692 47.4223 55.1155 44.776 55.1155 41.5117C55.1155 38.2475 52.4692 35.6012 49.2049 35.6012C45.9407 35.6012 43.2944 38.2475 43.2944 41.5117C43.2944 44.776 45.9407 47.4223 49.2049 47.4223Z" stroke="white" stroke-width="2" stroke-miterlimit="10"/>
<path d="M58.586 57C58.586 51.7922 54.3646 47.5707 49.1568 47.5707C43.949 47.5707 39.7275 51.7922 39.7275 57" stroke="white" stroke-width="2" stroke-miterlimit="10"/>
<path d="M16.6288 47.4223C19.8931 47.4223 22.5393 44.776 22.5393 41.5117C22.5393 38.2475 19.8931 35.6012 16.6288 35.6012C13.3645 35.6012 10.7183 38.2475 10.7183 41.5117C10.7183 44.776 13.3645 47.4223 16.6288 47.4223Z" stroke="white" stroke-width="2" stroke-miterlimit="10"/>
<path d="M26.0128 57C26.0128 51.7922 21.7914 47.5707 16.5835 47.5707C11.3757 47.5707 7.1543 51.7922 7.1543 57" stroke="white" stroke-width="2" stroke-miterlimit="10"/>
<path d="M29.8109 10.8958H34.4248C35.5517 10.8958 36.4639 11.808 36.4639 12.935V27.23C36.4639 28.3569 35.5517 29.2691 34.4248 29.2691H18.3956C17.9474 29.2691 17.5099 29.4176 17.1546 29.6907L11.9362 33.692L11.9494 29.2691H8.1231C6.99615 29.2691 6.08398 28.3569 6.08398 27.23V12.9323C6.08398 11.8054 6.99615 10.8932 8.1231 10.8932H24.6031" stroke="white" stroke-width="2" stroke-miterlimit="10"/>
<path d="M39.0441 24.5147H45.9278C46.3759 24.5147 46.8134 24.6632 47.1687 24.9363L52.3872 28.9376L52.3739 24.5147H55.5771C56.7041 24.5147 57.6162 23.6025 57.6162 22.4756V8.18322C57.6162 7.05627 56.7041 6.1441 55.5771 6.1441H29.2754C28.1485 6.1441 27.2363 7.05627 27.2363 8.18322V22.4782C27.2363 23.6052 28.1485 24.5174 29.2754 24.5174H33.8018" stroke="white" stroke-width="2" stroke-miterlimit="10"/>
<path d="M27.5703 46.2741H28.7927" stroke="white" stroke-width="2" stroke-miterlimit="10"/>
<path d="M32.5391 46.2741H33.7615" stroke="white" stroke-width="2" stroke-miterlimit="10"/>
<path d="M37.3281 46.2741H38.5505" stroke="white" stroke-width="2" stroke-miterlimit="10"/>
</svg>