<svg xmlns="http://www.w3.org/2000/svg" width="64" height="64" viewBox="0 0 64 64" fill="none">
<path d="M23.0193 7.62024H13.2705C10.1607 7.62024 7.63965 10.1413 7.63965 13.2511V22.9999C7.63965 26.1097 10.1607 28.6308 13.2705 28.6308H23.0193C26.1291 28.6308 28.6502 26.1097 28.6502 22.9999V13.2511C28.6502 10.1413 26.1291 7.62024 23.0193 7.62024Z" stroke="white" stroke-width="2" stroke-miterlimit="10"/>
<path d="M50.9743 7.62024H41.2256C38.1158 7.62024 35.5947 10.1413 35.5947 13.2511V22.9999C35.5947 26.1097 38.1158 28.6308 41.2256 28.6308H50.9743C54.0842 28.6308 56.6052 26.1097 56.6052 22.9999V13.2511C56.6052 10.1413 54.0842 7.62024 50.9743 7.62024Z" stroke="white" stroke-width="2" stroke-miterlimit="10"/>
<path d="M23.0193 34.9894H13.2705C10.1607 34.9894 7.63965 37.5105 7.63965 40.6203V50.3691C7.63965 53.4789 10.1607 56 13.2705 56H23.0193C26.1291 56 28.6502 53.4789 28.6502 50.3691V40.6203C28.6502 37.5105 26.1291 34.9894 23.0193 34.9894Z" stroke="white" stroke-width="2" stroke-miterlimit="10"/>
<path d="M46.0986 53.6378V37.358" stroke="white" stroke-width="2" stroke-miterlimit="10"/>
<path d="M37.958 45.4979H54.2378" stroke="white" stroke-width="2" stroke-miterlimit="10"/>
</svg>