<svg xmlns="http://www.w3.org/2000/svg" width="65" height="64" viewBox="0 0 65 64" fill="none">
<path d="M56.0842 6H8.53481C7.1346 6 5.99951 7.13509 5.99951 8.5353V56.0847C5.99951 57.4849 7.1346 58.62 8.53481 58.62H56.0842C57.4844 58.62 58.6195 57.4849 58.6195 56.0847V8.5353C58.6195 7.13509 57.4844 6 56.0842 6Z" stroke="white" stroke-width="2" stroke-miterlimit="10"/>
<path d="M27.5601 23.3417H13.6915C12.2913 23.3417 11.1562 24.4768 11.1562 25.877V52.1774C11.1562 53.5776 12.2913 54.7127 13.6915 54.7127H27.5601C28.9603 54.7127 30.0954 53.5776 30.0954 52.1774V25.877C30.0954 24.4768 28.9603 23.3417 27.5601 23.3417Z" stroke="white" stroke-width="2" stroke-miterlimit="10"/>
<path d="M27.5601 9.9097H13.6915C12.2913 9.9097 11.1562 11.0448 11.1562 12.445V16.5897C11.1562 17.9899 12.2913 19.125 13.6915 19.125H27.5601C28.9603 19.125 30.0954 17.9899 30.0954 16.5897V12.445C30.0954 11.0448 28.9603 9.9097 27.5601 9.9097Z" stroke="white" stroke-width="2" stroke-miterlimit="10"/>
<path d="M50.9294 45.0728H37.3966C35.9964 45.0728 34.8613 46.2079 34.8613 47.6081V52.175C34.8613 53.5752 35.9964 54.7103 37.3966 54.7103H50.9294C52.3296 54.7103 53.4647 53.5752 53.4647 52.175V47.6081C53.4647 46.2079 52.3296 45.0728 50.9294 45.0728Z" stroke="white" stroke-width="2" stroke-miterlimit="10"/>
<path d="M50.9294 9.9097H37.3966C35.9964 9.9097 34.8613 11.0448 34.8613 12.445V38.3209C34.8613 39.7211 35.9964 40.8562 37.3966 40.8562H50.9294C52.3296 40.8562 53.4647 39.7211 53.4647 38.3209V12.445C53.4647 11.0448 52.3296 9.9097 50.9294 9.9097Z" stroke="white" stroke-width="2" stroke-miterlimit="10"/>
</svg>