<svg xmlns="http://www.w3.org/2000/svg" width="65" height="64" viewBox="0 0 65 64" fill="none">
<path d="M46.1303 27.5695H50.2202C52.4423 27.5695 54.2461 29.3704 54.2461 31.5954V55.3387C54.2461 57.5608 52.4452 59.3647 50.2202 59.3647H14.5123C12.2902 59.3647 10.4863 57.5637 10.4863 55.3387V31.5954C10.4863 29.3733 12.2873 27.5695 14.5123 27.5695H18.6021" stroke="white" stroke-width="2" stroke-miterlimit="10"/>
<path d="M32.3661 41.3319C39.967 41.3319 46.1287 35.1701 46.1287 27.5693C46.1287 19.9684 39.967 13.8066 32.3661 13.8066C24.7652 13.8066 18.6035 19.9684 18.6035 27.5693C18.6035 35.1701 24.7652 41.3319 32.3661 41.3319Z" stroke="white" stroke-width="2" stroke-miterlimit="10"/>
<path d="M33.1645 19.7382L34.8231 23.099C34.9538 23.3604 35.2036 23.5434 35.4912 23.584L39.2005 24.1243C39.9296 24.2289 40.2201 25.1236 39.6914 25.6377L37.0074 28.2549C36.7983 28.4582 36.7024 28.7516 36.7518 29.0391L37.385 32.734C37.5099 33.4601 36.7489 34.012 36.0982 33.6693L32.781 31.9264C32.5225 31.7899 32.2146 31.7899 31.9561 31.9264L28.6389 33.6693C27.9882 34.012 27.2272 33.4572 27.3521 32.734L27.9853 29.0391C28.0347 28.7516 27.9389 28.4582 27.7297 28.2549L25.0457 25.6377C24.52 25.1236 24.8105 24.2289 25.5366 24.1243L29.246 23.584C29.5365 23.5434 29.7863 23.3604 29.9141 23.099L31.5727 19.7382C31.898 19.0788 32.8391 19.0788 33.1645 19.7382Z" stroke="white" stroke-width="2" stroke-miterlimit="10"/>
<path d="M32.3672 9.18538V1.06665" stroke="white" stroke-width="2" stroke-miterlimit="10"/>
<path d="M38.9551 10.4085L41.4502 3.90186" stroke="white" stroke-width="2" stroke-miterlimit="10"/>
<path d="M44.665 13.9084L47.4594 10.8062" stroke="white" stroke-width="2" stroke-miterlimit="10"/>
<path d="M48.748 19.2239L55.9808 15.5378" stroke="white" stroke-width="2" stroke-miterlimit="10"/>
<path d="M25.8917 10.4081L23.5156 4.21228" stroke="white" stroke-width="2" stroke-miterlimit="10"/>
<path d="M20.1827 13.9086L17.4639 10.8906" stroke="white" stroke-width="2" stroke-miterlimit="10"/>
<path d="M16.1 19.2239L8.86719 15.5378" stroke="white" stroke-width="2" stroke-miterlimit="10"/>
<path d="M54.5385 48.1495H34.0079L30.7255 52.8203H10.4883" stroke="white" stroke-width="2" stroke-miterlimit="10"/>
</svg>