<svg xmlns="http://www.w3.org/2000/svg" width="64" height="64" viewBox="0 0 64 64" fill="none">
<path d="M41.8892 11.1963C38.6321 9.60883 34.9645 8.71472 31.0961 8.71472C17.4838 8.71472 6.45349 19.7451 6.45349 33.3573C6.45349 46.9696 17.4838 57.9999 31.0961 57.9999C44.7084 57.9999 55.7387 46.9696 55.7387 33.3573C55.7387 28.978 54.5983 24.8725 52.6002 21.3052" stroke="white" stroke-width="2" stroke-miterlimit="10"/>
<path d="M37.1163 18.6504C35.2642 17.8932 33.2296 17.4735 31.0947 17.4735C22.3179 17.4735 15.2107 24.5899 15.2107 33.3576C15.2107 42.1252 22.327 49.2416 31.0947 49.2416C39.8624 49.2416 46.9788 42.1252 46.9788 33.3576C46.9788 30.9489 46.4405 28.6681 45.4916 26.6244" stroke="white" stroke-width="2" stroke-miterlimit="10"/>
<path d="M31.0958 40.9392C35.283 40.9392 38.6774 37.5447 38.6774 33.3575C38.6774 29.1703 35.283 25.7759 31.0958 25.7759C26.9086 25.7759 23.5142 29.1703 23.5142 33.3575C23.5142 37.5447 26.9086 40.9392 31.0958 40.9392Z" stroke="white" stroke-width="2" stroke-miterlimit="10"/>
<path d="M30.8582 33.7868L41.852 21.9263" stroke="white" stroke-width="2" stroke-miterlimit="10"/>
<path d="M46.7421 22.1998L41.8519 21.9261L41.2771 17.0633L51.1852 6.51648L51.76 11.3793L56.6502 11.6439L46.7421 22.1998Z" stroke="white" stroke-width="2" stroke-miterlimit="10"/>
</svg>