<svg xmlns="http://www.w3.org/2000/svg" width="56" height="56" viewBox="0 0 56 56" fill="none">
<path d="M25.8317 32.5017L25.1246 31.7946L25.8317 32.5017ZM35.7071 24.0405C36.0976 23.6499 36.0976 23.0168 35.7071 22.6262C35.3166 22.2357 34.6834 22.2357 34.2929 22.6262L35.7071 24.0405ZM25.5017 32.5017L26.2088 31.7946V31.7946L25.5017 32.5017ZM21.7071 27.2929C21.3166 26.9024 20.6834 26.9024 20.2929 27.2929C19.9024 27.6834 19.9024 28.3166 20.2929 28.7071L21.7071 27.2929ZM20.5141 7.1465L20.763 6.17798L20.5141 7.1465ZM21.9911 7.41274L22.0475 8.41115L21.9911 7.41274ZM24.0563 6.19738L24.7561 6.91167L24.0563 6.19738ZM22.9103 7.16645L23.3606 8.0593L22.9103 7.16645ZM14.1839 9.29539L13.2207 9.02672V9.02672L14.1839 9.29539ZM15.0724 7.03266L15.8128 7.70482L15.0724 7.03266ZM18.7094 6.68263L18.4604 7.65114L18.7094 6.68263ZM16.3056 6.32069L16.0937 5.3434L16.3056 6.32069ZM11.0903 13.6833L10.8216 12.7201L11.0903 13.6833ZM12.5025 13.1754L13.0506 14.0118L12.5025 13.1754ZM13.6833 11.0903L14.6465 11.3589V11.3589L13.6833 11.0903ZM13.1754 12.5025L14.0118 13.0506L13.1754 12.5025ZM6.68263 18.7094L7.65115 18.4604L6.68263 18.7094ZM6.32069 16.3056L5.3434 16.0937L6.32069 16.3056ZM9.2954 14.1839L9.56407 15.1472H9.56407L9.2954 14.1839ZM7.03266 15.0724L7.70482 15.8128L7.03266 15.0724ZM6.19738 24.0563L6.91167 24.7561H6.91167L6.19738 24.0563ZM7.16645 22.9103L8.0593 23.3606L7.16645 22.9103ZM7.1465 20.5141L6.17798 20.763L7.1465 20.5141ZM7.41274 21.9911L8.41115 22.0475L7.41274 21.9911ZM4.8933 30.6128L4.179 31.3126L4.8933 30.6128ZM3.37794 28.712L2.42563 29.0171L3.37794 28.712ZM4.8933 25.3872L4.17901 24.6874H4.17901L4.8933 25.3872ZM3.37794 27.288L2.42563 26.9829L3.37794 27.288ZM7.1465 35.4859L8.11502 35.7349L7.1465 35.4859ZM7.41274 34.0089L8.41115 33.9525L7.41274 34.0089ZM6.19738 31.9438L6.91167 31.2439L6.19738 31.9438ZM7.16645 33.0898L8.0593 32.6394L7.16645 33.0898ZM9.29539 41.8161L9.56406 40.8529H9.56406L9.29539 41.8161ZM7.03266 40.9276L7.70482 40.1872L7.03266 40.9276ZM6.68263 37.2906L5.71411 37.0417L6.68263 37.2906ZM6.32069 39.6945L5.3434 39.9064L6.32069 39.6945ZM13.6833 44.9098L14.6465 44.6411L13.6833 44.9098ZM13.1754 43.4975L14.0118 42.9495L13.1754 43.4975ZM11.0903 42.3167L10.8216 43.28H10.8216L11.0903 42.3167ZM12.5025 42.8247L13.0506 41.9882L12.5025 42.8247ZM18.7094 49.3174L18.4604 48.3489L18.7094 49.3174ZM16.3056 49.6793L16.5175 48.7021L16.3056 49.6793ZM14.1839 46.7046L13.2207 46.9733H13.2207L14.1839 46.7046ZM15.0724 48.9674L14.332 49.6395L15.0724 48.9674ZM24.0563 49.8026L24.7561 49.0884V49.0884L24.0563 49.8026ZM22.9103 48.8336L22.4599 49.7264L22.9103 48.8336ZM20.5141 48.8535L20.763 49.8221L20.5141 48.8535ZM21.9911 48.5873L22.0475 47.5889L21.9911 48.5873ZM30.6128 51.1067L29.9129 50.3924L30.6128 51.1067ZM28.712 52.6221L28.4069 51.6698L28.712 52.6221ZM25.3872 51.1067L24.6874 51.821H24.6874L25.3872 51.1067ZM27.288 52.6221L27.5932 51.6698L27.288 52.6221ZM35.4859 48.8535L35.237 49.8221L35.4859 48.8535ZM34.0089 48.5873L33.9525 47.5889L34.0089 48.5873ZM31.9438 49.8027L32.6436 50.5169L31.9438 49.8027ZM33.0898 48.8336L33.5401 49.7264L33.0898 48.8336ZM41.8161 46.7046L40.8529 46.436V46.436L41.8161 46.7046ZM40.9276 48.9674L41.668 49.6395L40.9276 48.9674ZM37.2906 49.3174L37.5396 48.3489L37.2906 49.3174ZM39.6945 49.6793L39.4826 48.7021L39.6945 49.6793ZM44.9098 42.3167L45.1784 43.28L44.9098 42.3167ZM43.4975 42.8247L42.9495 41.9882L43.4975 42.8247ZM42.3167 44.9098L43.28 45.1784V45.1784L42.3167 44.9098ZM42.8247 43.4975L41.9882 42.9495L42.8247 43.4975ZM49.3174 37.2907L48.3489 37.5396L49.3174 37.2907ZM49.6793 39.6945L48.7021 39.4826L49.6793 39.6945ZM46.7046 41.8161L46.436 40.8529H46.436L46.7046 41.8161ZM48.9674 40.9276L49.6395 41.668L48.9674 40.9276ZM49.8026 31.9438L49.0884 31.2439L49.0884 31.2439L49.8026 31.9438ZM48.8336 33.0898L49.7264 33.5401L48.8336 33.0898ZM48.8535 35.4859L49.8221 35.237V35.237L48.8535 35.4859ZM48.5873 34.0089L47.5889 33.9525L48.5873 34.0089ZM51.1067 25.3872L50.3924 26.0871L51.1067 25.3872ZM52.6221 27.288L51.6698 27.5932L52.6221 27.288ZM51.1067 30.6128L51.821 31.3126V31.3126L51.1067 30.6128ZM52.6221 28.712L51.6698 28.4069L52.6221 28.712ZM48.8535 20.5141L49.8221 20.763L48.8535 20.5141ZM48.5873 21.9911L47.5889 22.0475L48.5873 21.9911ZM49.8027 24.0563L50.5169 23.3564L49.8027 24.0563ZM48.8336 22.9103L49.7264 22.4599L48.8336 22.9103ZM46.7046 14.1839L46.436 15.1472L46.7046 14.1839ZM48.9674 15.0724L49.6395 14.332L48.9674 15.0724ZM49.3174 18.7094L48.3489 18.4604L49.3174 18.7094ZM49.6793 16.3056L48.7021 16.5175L49.6793 16.3056ZM42.3167 11.0903L43.28 10.8216V10.8216L42.3167 11.0903ZM42.8247 12.5025L41.9882 13.0506L42.8247 12.5025ZM44.9098 13.6833L45.1784 12.7201H45.1784L44.9098 13.6833ZM43.4975 13.1754L42.9495 14.0118L43.4975 13.1754ZM37.2906 6.68263L37.5396 7.65115L37.2906 6.68263ZM39.6945 6.32069L39.9064 5.3434L39.6945 6.32069ZM41.8161 9.2954L40.8529 9.56407V9.56407L41.8161 9.2954ZM40.9276 7.03266L40.1872 7.70482L40.9276 7.03266ZM31.9438 6.19738L31.2439 6.91167V6.91167L31.9438 6.19738ZM33.0898 7.16645L32.6394 8.0593L33.0898 7.16645ZM35.4859 7.1465L35.237 6.17798L35.4859 7.1465ZM34.0089 7.41274L33.9525 8.41115L34.0089 7.41274ZM30.6128 4.8933L31.3126 4.17901V4.17901L30.6128 4.8933ZM28.712 3.37794L29.0171 2.42563L28.712 3.37794ZM25.3872 4.8933L24.6874 4.179L25.3872 4.8933ZM27.288 3.37794L26.9829 2.42563L27.288 3.37794ZM26.5388 33.2088L35.7071 24.0405L34.2929 22.6262L25.1246 31.7946L26.5388 33.2088ZM26.2088 31.7946L21.7071 27.2929L20.2929 28.7071L24.7946 33.2088L26.2088 31.7946ZM25.1246 31.7946C25.424 31.4952 25.9094 31.4952 26.2088 31.7946L24.7946 33.2088C25.2762 33.6904 26.0571 33.6904 26.5388 33.2088L25.1246 31.7946ZM29.9129 5.60759L31.2439 6.91167L32.6436 5.48309L31.3126 4.17901L29.9129 5.60759ZM35.7349 8.11502L37.5396 7.65115L37.0417 5.71411L35.237 6.17798L35.7349 8.11502ZM40.8529 9.56407L41.3535 11.3589L43.28 10.8216L42.7793 9.02673L40.8529 9.56407ZM44.6411 14.6465L46.436 15.1472L46.9733 13.2207L45.1784 12.7201L44.6411 14.6465ZM48.3489 18.4604L47.885 20.2652L49.8221 20.763L50.2859 18.9583L48.3489 18.4604ZM49.0884 24.7561L50.3924 26.0871L51.821 24.6874L50.5169 23.3564L49.0884 24.7561ZM50.3924 29.9129L49.0884 31.2439L50.5169 32.6436L51.821 31.3126L50.3924 29.9129ZM47.885 35.7349L48.3489 37.5396L50.2859 37.0417L49.8221 35.237L47.885 35.7349ZM46.436 40.8529L44.6411 41.3535L45.1784 43.28L46.9733 42.7793L46.436 40.8529ZM41.3535 44.6411L40.8529 46.436L42.7793 46.9733L43.28 45.1784L41.3535 44.6411ZM37.5396 48.3489L35.7349 47.885L35.237 49.8221L37.0417 50.2859L37.5396 48.3489ZM31.2439 49.0884L29.9129 50.3924L31.3126 51.821L32.6436 50.5169L31.2439 49.0884ZM26.0871 50.3924L24.7561 49.0884L23.3564 50.5169L24.6874 51.821L26.0871 50.3924ZM20.2652 47.885L18.4604 48.3489L18.9583 50.2859L20.763 49.8221L20.2652 47.885ZM15.1472 46.436L14.6465 44.6411L12.7201 45.1784L13.2207 46.9733L15.1472 46.436ZM11.3589 41.3535L9.56406 40.8529L9.02672 42.7793L10.8216 43.28L11.3589 41.3535ZM7.65114 37.5396L8.11502 35.7349L6.17798 35.237L5.71411 37.0417L7.65114 37.5396ZM6.91167 31.2439L5.60759 29.9129L4.179 31.3126L5.48309 32.6436L6.91167 31.2439ZM5.60759 26.0871L6.91167 24.7561L5.48309 23.3564L4.17901 24.6874L5.60759 26.0871ZM8.11502 20.2652L7.65115 18.4604L5.71411 18.9583L6.17798 20.763L8.11502 20.2652ZM9.56407 15.1472L11.3589 14.6465L10.8216 12.7201L9.02673 13.2207L9.56407 15.1472ZM14.6465 11.3589L15.1472 9.56406L13.2207 9.02672L12.7201 10.8216L14.6465 11.3589ZM18.4604 7.65114L20.2652 8.11502L20.763 6.17798L18.9583 5.71411L18.4604 7.65114ZM24.7561 6.91167L26.0871 5.60759L24.6874 4.179L23.3564 5.48309L24.7561 6.91167ZM20.2652 8.11502C20.945 8.28976 21.4941 8.44242 22.0475 8.41115L21.9347 6.41433C21.7647 6.42393 21.5703 6.38548 20.763 6.17798L20.2652 8.11502ZM23.3564 5.48309C22.761 6.06642 22.6119 6.19694 22.4599 6.27359L23.3606 8.0593C23.8555 7.80968 24.2547 7.40292 24.7561 6.91167L23.3564 5.48309ZM22.0475 8.41115C22.5047 8.38531 22.9517 8.26554 23.3606 8.0593L22.4599 6.27359C22.2964 6.35609 22.1176 6.404 21.9347 6.41433L22.0475 8.41115ZM15.1472 9.56406C15.3239 8.93048 15.4412 8.51289 15.5565 8.19964C15.6678 7.89755 15.7491 7.77494 15.8128 7.70482L14.332 6.36049C14.0242 6.69954 13.8337 7.09045 13.6797 7.5085C13.5299 7.9154 13.3886 8.4246 13.2207 9.02672L15.1472 9.56406ZM18.9583 5.71411C18.3529 5.55849 17.8413 5.42621 17.414 5.35252C16.975 5.27682 16.5412 5.24636 16.0937 5.3434L16.5175 7.29798C16.61 7.27791 16.7569 7.26873 17.0741 7.32344C17.4031 7.38016 17.8234 7.4874 18.4604 7.65114L18.9583 5.71411ZM15.8128 7.70482C15.9996 7.49909 16.2459 7.35685 16.5175 7.29798L16.0937 5.3434C15.4148 5.49059 14.7989 5.84619 14.332 6.36049L15.8128 7.70482ZM11.3589 14.6465C12.0351 14.4579 12.5869 14.3156 13.0506 14.0118L11.9544 12.3389C11.8121 12.4322 11.6245 12.4961 10.8216 12.7201L11.3589 14.6465ZM12.7201 10.8216C12.4961 11.6245 12.4322 11.8121 12.3389 11.9544L14.0118 13.0506C14.3156 12.5869 14.4579 12.0351 14.6465 11.3589L12.7201 10.8216ZM13.0506 14.0118C13.4336 13.7608 13.7608 13.4336 14.0118 13.0506L12.3389 11.9544C12.2385 12.1077 12.1077 12.2385 11.9544 12.3389L13.0506 14.0118ZM7.65115 18.4604C7.4874 17.8234 7.38016 17.4031 7.32344 17.0741C7.26873 16.7569 7.27791 16.61 7.29798 16.5175L5.3434 16.0937C5.24636 16.5412 5.27682 16.975 5.35252 17.414C5.42621 17.8413 5.55849 18.3529 5.71411 18.9583L7.65115 18.4604ZM9.02673 13.2207C8.4246 13.3886 7.9154 13.5299 7.5085 13.6797C7.09045 13.8337 6.69954 14.0242 6.36049 14.332L7.70482 15.8128C7.77494 15.7491 7.89755 15.6678 8.19964 15.5565C8.51289 15.4412 8.93048 15.3239 9.56407 15.1472L9.02673 13.2207ZM7.29798 16.5175C7.35685 16.2459 7.49909 15.9996 7.70482 15.8128L6.36049 14.332C5.84619 14.7989 5.49059 15.4148 5.3434 16.0937L7.29798 16.5175ZM6.91167 24.7561C7.40292 24.2547 7.80969 23.8555 8.0593 23.3606L6.27359 22.4599C6.19694 22.6119 6.06642 22.761 5.48309 23.3564L6.91167 24.7561ZM6.17798 20.763C6.38548 21.5703 6.42393 21.7647 6.41433 21.9347L8.41115 22.0475C8.44242 21.4941 8.28976 20.945 8.11502 20.2652L6.17798 20.763ZM8.0593 23.3606C8.26554 22.9517 8.38531 22.5047 8.41115 22.0475L6.41433 21.9347C6.404 22.1176 6.35609 22.2964 6.27359 22.4599L8.0593 23.3606ZM5.60759 29.9129C5.14725 29.4431 4.84424 29.1327 4.63064 28.8762C4.42464 28.6288 4.35915 28.4971 4.33025 28.4069L2.42563 29.0171C2.56535 29.4532 2.80863 29.8136 3.0937 30.156C3.37116 30.4892 3.74152 30.8661 4.179 31.3126L5.60759 29.9129ZM4.17901 24.6874C3.74152 25.1339 3.37116 25.5108 3.0937 25.844C2.80863 26.1864 2.56535 26.5468 2.42563 26.9829L4.33025 27.5932C4.35915 27.503 4.42464 27.3712 4.63064 27.1238C4.84424 26.8673 5.14725 26.5569 5.60759 26.0871L4.17901 24.6874ZM4.33025 28.4069C4.24547 28.1423 4.24547 27.8578 4.33025 27.5932L2.42563 26.9829C2.21367 27.6444 2.21367 28.3556 2.42563 29.0171L4.33025 28.4069ZM8.11502 35.7349C8.28976 35.055 8.44242 34.5059 8.41115 33.9525L6.41433 34.0654C6.42393 34.2353 6.38548 34.4297 6.17798 35.237L8.11502 35.7349ZM5.48309 32.6436C6.06642 33.239 6.19694 33.3882 6.27359 33.5401L8.0593 32.6394C7.80969 32.1445 7.40292 31.7453 6.91167 31.2439L5.48309 32.6436ZM8.41115 33.9525C8.38531 33.4953 8.26554 33.0483 8.0593 32.6394L6.27359 33.5401C6.35609 33.7037 6.404 33.8825 6.41433 34.0654L8.41115 33.9525ZM9.56406 40.8529C8.93048 40.6761 8.51289 40.5589 8.19964 40.4435C7.89755 40.3323 7.77494 40.2509 7.70482 40.1872L6.36049 41.668C6.69954 41.9758 7.09044 42.1664 7.5085 42.3203C7.9154 42.4702 8.42459 42.6114 9.02672 42.7793L9.56406 40.8529ZM5.71411 37.0417C5.55849 37.6471 5.42621 38.1587 5.35252 38.586C5.27682 39.0251 5.24636 39.4589 5.3434 39.9064L7.29798 39.4826C7.27791 39.39 7.26873 39.2431 7.32344 38.9259C7.38016 38.5969 7.4874 38.1767 7.65114 37.5396L5.71411 37.0417ZM7.70482 40.1872C7.49909 40.0005 7.35685 39.7541 7.29798 39.4826L5.3434 39.9064C5.49059 40.5852 5.84619 41.2011 6.36049 41.668L7.70482 40.1872ZM14.6465 44.6411C14.4579 43.965 14.3156 43.4131 14.0118 42.9495L12.3389 44.0456C12.4322 44.188 12.4961 44.3756 12.7201 45.1784L14.6465 44.6411ZM10.8216 43.28C11.6245 43.5039 11.8121 43.5678 11.9544 43.6611L13.0506 41.9882C12.5869 41.6844 12.0351 41.5421 11.3589 41.3535L10.8216 43.28ZM14.0118 42.9495C13.7608 42.5664 13.4336 42.2392 13.0506 41.9882L11.9544 43.6611C12.1077 43.7615 12.2385 43.8924 12.3389 44.0456L14.0118 42.9495ZM18.4604 48.3489C17.8234 48.5126 17.4031 48.6199 17.0741 48.6766C16.7569 48.7313 16.61 48.7221 16.5175 48.7021L16.0937 50.6566C16.5412 50.7537 16.975 50.7232 17.414 50.6475C17.8413 50.5738 18.3529 50.4415 18.9583 50.2859L18.4604 48.3489ZM13.2207 46.9733C13.3886 47.5754 13.5299 48.0846 13.6797 48.4915C13.8337 48.9096 14.0242 49.3005 14.332 49.6395L15.8128 48.2952C15.7491 48.2251 15.6678 48.1025 15.5565 47.8004C15.4412 47.4871 15.3239 47.0696 15.1472 46.436L13.2207 46.9733ZM16.5175 48.7021C16.2459 48.6432 15.9996 48.5009 15.8128 48.2952L14.332 49.6395C14.7989 50.1538 15.4148 50.5094 16.0937 50.6566L16.5175 48.7021ZM24.7561 49.0884C24.2547 48.5971 23.8555 48.1903 23.3606 47.9407L22.4599 49.7264C22.6119 49.8031 22.761 49.9336 23.3564 50.5169L24.7561 49.0884ZM20.763 49.8221C21.5703 49.6146 21.7647 49.5761 21.9347 49.5857L22.0475 47.5889C21.4941 47.5576 20.945 47.7103 20.2652 47.885L20.763 49.8221ZM23.3606 47.9407C22.9517 47.7345 22.5047 47.6147 22.0475 47.5889L21.9347 49.5857C22.1176 49.596 22.2964 49.6439 22.4599 49.7264L23.3606 47.9407ZM29.9129 50.3924C29.4431 50.8528 29.1327 51.1558 28.8762 51.3694C28.6288 51.5754 28.4971 51.6409 28.4069 51.6698L29.0171 53.5744C29.4532 53.4347 29.8136 53.1914 30.156 52.9063C30.4892 52.6289 30.8661 52.2585 31.3126 51.821L29.9129 50.3924ZM24.6874 51.821C25.1339 52.2585 25.5108 52.6289 25.844 52.9063C26.1864 53.1914 26.5468 53.4347 26.9829 53.5744L27.5932 51.6698C27.503 51.6409 27.3712 51.5754 27.1238 51.3694C26.8673 51.1558 26.5569 50.8528 26.0871 50.3924L24.6874 51.821ZM28.4069 51.6698C28.1423 51.7546 27.8578 51.7546 27.5932 51.6698L26.9829 53.5744C27.6444 53.7864 28.3556 53.7864 29.0171 53.5744L28.4069 51.6698ZM35.7349 47.885C35.055 47.7103 34.5059 47.5576 33.9525 47.5889L34.0654 49.5857C34.2353 49.5761 34.4297 49.6146 35.237 49.8221L35.7349 47.885ZM32.6436 50.5169C33.239 49.9336 33.3881 49.8031 33.5401 49.7264L32.6394 47.9407C32.1445 48.1903 31.7453 48.5971 31.2439 49.0884L32.6436 50.5169ZM33.9525 47.5889C33.4953 47.6147 33.0483 47.7345 32.6394 47.9407L33.5401 49.7264C33.7037 49.6439 33.8825 49.596 34.0654 49.5857L33.9525 47.5889ZM40.8529 46.436C40.6761 47.0696 40.5589 47.4871 40.4435 47.8004C40.3323 48.1025 40.2509 48.2251 40.1872 48.2952L41.668 49.6395C41.9758 49.3005 42.1664 48.9096 42.3203 48.4915C42.4702 48.0846 42.6114 47.5754 42.7793 46.9733L40.8529 46.436ZM37.0417 50.2859C37.6471 50.4415 38.1587 50.5738 38.586 50.6475C39.0251 50.7232 39.4589 50.7537 39.9064 50.6566L39.4826 48.7021C39.39 48.7221 39.2431 48.7313 38.9259 48.6766C38.5969 48.6199 38.1767 48.5126 37.5396 48.3489L37.0417 50.2859ZM40.1872 48.2952C40.0005 48.5009 39.7541 48.6432 39.4826 48.7021L39.9064 50.6566C40.5852 50.5094 41.2011 50.1538 41.668 49.6395L40.1872 48.2952ZM44.6411 41.3535C43.965 41.5421 43.4131 41.6844 42.9495 41.9882L44.0456 43.6611C44.188 43.5678 44.3756 43.5039 45.1784 43.28L44.6411 41.3535ZM43.28 45.1784C43.5039 44.3756 43.5678 44.188 43.6611 44.0456L41.9882 42.9495C41.6844 43.4131 41.5421 43.965 41.3535 44.6411L43.28 45.1784ZM42.9495 41.9882C42.5664 42.2392 42.2392 42.5664 41.9882 42.9495L43.6611 44.0456C43.7615 43.8924 43.8924 43.7615 44.0456 43.6611L42.9495 41.9882ZM48.3489 37.5396C48.5126 38.1767 48.6199 38.5969 48.6766 38.9259C48.7313 39.2431 48.7221 39.39 48.7021 39.4826L50.6566 39.9064C50.7537 39.4589 50.7232 39.0251 50.6475 38.586C50.5738 38.1587 50.4415 37.6471 50.2859 37.0417L48.3489 37.5396ZM46.9733 42.7793C47.5754 42.6114 48.0846 42.4701 48.4915 42.3203C48.9096 42.1664 49.3005 41.9758 49.6395 41.668L48.2952 40.1872C48.2251 40.2509 48.1025 40.3323 47.8004 40.4435C47.4871 40.5589 47.0696 40.6761 46.436 40.8529L46.9733 42.7793ZM48.7021 39.4826C48.6432 39.7541 48.5009 40.0005 48.2952 40.1872L49.6395 41.668C50.1538 41.2011 50.5094 40.5852 50.6566 39.9064L48.7021 39.4826ZM49.0884 31.2439C48.5971 31.7453 48.1903 32.1445 47.9407 32.6394L49.7264 33.5401C49.8031 33.3881 49.9336 33.239 50.5169 32.6436L49.0884 31.2439ZM49.8221 35.237C49.6146 34.4297 49.5761 34.2353 49.5857 34.0654L47.5889 33.9525C47.5576 34.5059 47.7103 35.055 47.885 35.7349L49.8221 35.237ZM47.9407 32.6394C47.7345 33.0483 47.6147 33.4953 47.5889 33.9525L49.5857 34.0654C49.596 33.8825 49.6439 33.7037 49.7264 33.5401L47.9407 32.6394ZM50.3924 26.0871C50.8528 26.5569 51.1558 26.8673 51.3694 27.1238C51.5754 27.3712 51.6409 27.503 51.6698 27.5932L53.5744 26.9829C53.4347 26.5468 53.1914 26.1864 52.9063 25.844C52.6289 25.5108 52.2585 25.1339 51.821 24.6874L50.3924 26.0871ZM51.821 31.3126C52.2585 30.8661 52.6289 30.4892 52.9063 30.156C53.1914 29.8136 53.4347 29.4532 53.5744 29.0171L51.6698 28.4069C51.6409 28.4971 51.5754 28.6288 51.3694 28.8762C51.1558 29.1327 50.8528 29.4431 50.3924 29.9129L51.821 31.3126ZM51.6698 27.5932C51.7546 27.8578 51.7546 28.1423 51.6698 28.4069L53.5744 29.0171C53.7864 28.3556 53.7864 27.6444 53.5744 26.9829L51.6698 27.5932ZM47.885 20.2652C47.7103 20.945 47.5576 21.4941 47.5889 22.0475L49.5857 21.9347C49.5761 21.7647 49.6146 21.5703 49.8221 20.763L47.885 20.2652ZM50.5169 23.3564C49.9336 22.761 49.8031 22.6119 49.7264 22.4599L47.9407 23.3606C48.1903 23.8555 48.5971 24.2547 49.0884 24.7561L50.5169 23.3564ZM47.5889 22.0475C47.6147 22.5047 47.7345 22.9517 47.9407 23.3606L49.7264 22.4599C49.6439 22.2964 49.596 22.1176 49.5857 21.9347L47.5889 22.0475ZM46.436 15.1472C47.0696 15.3239 47.4871 15.4412 47.8004 15.5565C48.1025 15.6678 48.2251 15.7491 48.2952 15.8128L49.6395 14.332C49.3005 14.0242 48.9096 13.8337 48.4915 13.6797C48.0846 13.5299 47.5754 13.3886 46.9733 13.2207L46.436 15.1472ZM50.2859 18.9583C50.4415 18.3529 50.5738 17.8413 50.6475 17.414C50.7232 16.975 50.7537 16.5412 50.6566 16.0937L48.7021 16.5175C48.7221 16.61 48.7313 16.7569 48.6766 17.0741C48.6199 17.4031 48.5126 17.8234 48.3489 18.4604L50.2859 18.9583ZM48.2952 15.8128C48.5009 15.9996 48.6432 16.2459 48.7021 16.5175L50.6566 16.0937C50.5094 15.4148 50.1538 14.7989 49.6395 14.332L48.2952 15.8128ZM41.3535 11.3589C41.5421 12.0351 41.6844 12.5869 41.9882 13.0506L43.6611 11.9544C43.5678 11.8121 43.5039 11.6245 43.28 10.8216L41.3535 11.3589ZM45.1784 12.7201C44.3756 12.4961 44.188 12.4322 44.0456 12.3389L42.9495 14.0118C43.4131 14.3156 43.965 14.4579 44.6411 14.6465L45.1784 12.7201ZM41.9882 13.0506C42.2392 13.4336 42.5664 13.7608 42.9495 14.0118L44.0456 12.3389C43.8924 12.2385 43.7615 12.1077 43.6611 11.9544L41.9882 13.0506ZM37.5396 7.65115C38.1767 7.4874 38.5969 7.38016 38.9259 7.32344C39.2431 7.26873 39.39 7.27791 39.4826 7.29798L39.9064 5.3434C39.4589 5.24636 39.0251 5.27682 38.586 5.35252C38.1587 5.42621 37.6471 5.55849 37.0417 5.71411L37.5396 7.65115ZM42.7793 9.02673C42.6114 8.4246 42.4701 7.9154 42.3203 7.5085C42.1664 7.09045 41.9758 6.69954 41.668 6.36049L40.1872 7.70482C40.2509 7.77494 40.3323 7.89755 40.4435 8.19964C40.5589 8.51289 40.6761 8.93048 40.8529 9.56407L42.7793 9.02673ZM39.4826 7.29798C39.7541 7.35685 40.0005 7.49909 40.1872 7.70482L41.668 6.36049C41.2011 5.84619 40.5852 5.49059 39.9064 5.3434L39.4826 7.29798ZM31.2439 6.91167C31.7453 7.40292 32.1445 7.80969 32.6394 8.0593L33.5401 6.27359C33.3881 6.19694 33.239 6.06642 32.6436 5.48309L31.2439 6.91167ZM35.237 6.17798C34.4297 6.38548 34.2353 6.42393 34.0654 6.41433L33.9525 8.41115C34.5059 8.44242 35.055 8.28976 35.7349 8.11502L35.237 6.17798ZM32.6394 8.0593C33.0483 8.26554 33.4953 8.38531 33.9525 8.41115L34.0654 6.41433C33.8825 6.404 33.7037 6.35609 33.5401 6.27359L32.6394 8.0593ZM31.3126 4.17901C30.8661 3.74152 30.4892 3.37116 30.156 3.0937C29.8136 2.80863 29.4532 2.56535 29.0171 2.42563L28.4069 4.33025C28.4971 4.35915 28.6288 4.42464 28.8762 4.63064C29.1327 4.84424 29.4431 5.14725 29.9129 5.60759L31.3126 4.17901ZM26.0871 5.60759C26.5569 5.14725 26.8673 4.84424 27.1238 4.63064C27.3712 4.42464 27.503 4.35915 27.5932 4.33025L26.9829 2.42563C26.5468 2.56535 26.1864 2.80863 25.844 3.0937C25.5108 3.37116 25.1339 3.74152 24.6874 4.179L26.0871 5.60759ZM29.0171 2.42563C28.3556 2.21367 27.6444 2.21367 26.9829 2.42563L27.5932 4.33025C27.8578 4.24547 28.1423 4.24547 28.4069 4.33025L29.0171 2.42563Z" fill="white"/>
</svg>