<svg width="70" height="80" viewBox="0 0 70 80" fill="none" xmlns="http://www.w3.org/2000/svg">
<path d="M58.1414 5.35083L58.2353 5.6509C59.0306 8.15603 61.0055 10.0928 63.4987 10.8021C61.0055 11.5159 59.0306 13.4482 58.2353 15.9533L58.1414 16.2534L58.0476 15.9533C57.2523 13.4482 55.2774 11.5114 52.7842 10.8021C55.2774 10.0883 57.2523 8.15603 58.0476 5.6509L58.1414 5.35083Z" fill="white"/>
<path d="M5.35725 42.2317L5.45108 42.5318C6.2464 45.0369 8.2213 46.9737 10.7145 47.683C8.2213 48.3968 6.2464 50.329 5.45108 52.8342L5.35725 53.1342L5.26342 52.8342C4.4681 50.3336 2.4932 48.4013 0 47.6875C2.4932 46.9737 4.4681 45.0414 5.26342 42.5363L5.35725 42.2362V42.2317Z" fill="white"/>
<path d="M36.7003 5.08252L45.4801 23.1867L65.1174 26.092L50.9089 40.1816L54.2644 60.0817L36.7003 50.6886L19.1362 60.0817L22.4918 40.1816L8.2832 26.092L27.9205 23.1867L36.7003 5.08252Z" stroke="white" stroke-width="4" stroke-miterlimit="10"/>
<path d="M36.6982 60.0818V80.0001" stroke="white" stroke-width="4" stroke-miterlimit="10"/>
<path d="M45.0098 63.2234V73.935" stroke="white" stroke-width="4" stroke-miterlimit="10"/>
<path d="M28.2412 68.3928V76.7357" stroke="white" stroke-width="4" stroke-miterlimit="10"/>
</svg>
