<svg width="64" height="64" viewBox="0 0 64 64" fill="none" xmlns="http://www.w3.org/2000/svg">
<path d="M41.1714 20.6419L51.6481 17.7502L49.0706 8.40186L17.7108 17.0577L20.2883 26.3996L30.7651 23.5079" stroke="white" stroke-width="2" stroke-miterlimit="10"/>
<path d="M13.2054 26.8833L19.9178 25.0319L18.0937 18.4183L11.3812 20.2697L13.2054 26.8833Z" stroke="white" stroke-width="2" stroke-miterlimit="10"/>
<path d="M10.9976 18.9066L7.99988 19.7334L10.5776 29.079L13.5753 28.2521L10.9976 18.9066Z" stroke="white" stroke-width="2" stroke-miterlimit="10"/>
<path d="M52.2627 19.9622L56.5585 18.7773L52.7584 5.00005L48.4626 6.18491L52.2627 19.9622Z" stroke="white" stroke-width="2" stroke-miterlimit="10"/>
<path d="M35.9728 27.4771C38.9544 27.4771 41.3715 25.06 41.3715 22.0784C41.3715 19.0968 38.9544 16.6797 35.9728 16.6797C32.9912 16.6797 30.5741 19.0968 30.5741 22.0784C30.5741 25.06 32.9912 27.4771 35.9728 27.4771Z" stroke="white" stroke-width="2" stroke-miterlimit="10"/>
<path d="M35.9718 24.4505C37.282 24.4505 38.3442 23.3884 38.3442 22.0782C38.3442 20.7679 37.282 19.7058 35.9718 19.7058C34.6616 19.7058 33.5995 20.7679 33.5995 22.0782C33.5995 23.3884 34.6616 24.4505 35.9718 24.4505Z" stroke="white" stroke-width="2" stroke-miterlimit="10"/>
<path d="M35.9783 27.5862V59.4333" stroke="white" stroke-width="2" stroke-miterlimit="10"/>
<path d="M35.9772 27.5862L25.5389 59.4333" stroke="white" stroke-width="2" stroke-miterlimit="10"/>
<path d="M35.9783 27.5862L46.2563 59.4333" stroke="white" stroke-width="2" stroke-miterlimit="10"/>
<path d="M30.58 43.5128H41.0375" stroke="white" stroke-width="2" stroke-miterlimit="10"/>
</svg>
