<svg width="120" height="120" viewBox="0 0 120 120" fill="none" xmlns="http://www.w3.org/2000/svg">
<g id="Group 2446">
<circle id="Ellipse 87" cx="60" cy="60" r="60" fill="#282827"/>
<g id="Group 1698">
<path id="Path 1368" d="M112.693 42.966C103.351 14.1162 72.2267 -1.76318 43.1687 7.51149C26.1982 12.9217 12.9076 26.1311 7.45838 42.966L7.18945 43.8373H112.962L112.693 42.966ZM15.3563 42.5023C23.8628 17.9947 50.7552 4.96798 75.4396 13.3995C89.1972 18.1071 100.011 28.8432 104.752 42.5023H15.3563ZM106.196 42.5023C97.6188 17.2077 70.0187 3.60489 44.5416 12.1207C30.1188 16.9407 18.7957 28.1828 13.9409 42.5023H9.04361C18.64 14.5097 49.269 -0.456294 77.4636 9.07132C93.3019 14.4253 105.743 26.7775 111.136 42.5023H106.182H106.196Z" fill="#CAB37A"/>
<path id="Path 1369" d="M106.635 75.6243H7.2041L7.47302 76.4955C16.7863 105.345 47.8966 121.239 76.9546 111.992C93.9393 106.582 107.258 93.3586 112.707 76.4955L112.99 75.6243H106.635ZM104.795 76.9452C96.2889 101.453 69.3964 114.48 44.6978 106.034C30.9402 101.326 20.1266 90.6043 15.3992 76.9452H104.795ZM60.069 113.229C36.9698 113.285 16.4183 98.6704 9.0441 76.9452H13.9697C22.4337 102.24 49.9348 115.927 75.4118 107.538C89.962 102.746 101.384 91.4053 106.225 76.9452H111.15C103.762 98.6845 83.1965 113.285 60.0973 113.229" fill="#CAB37A"/>
<path id="Path 1370" d="M9.41241 55.9504C11.4789 55.9504 13.1632 57.6086 13.1632 59.6603C13.1632 61.712 11.493 63.3842 9.41241 63.3842C7.34594 63.3842 5.67578 61.726 5.67578 59.6744C5.67578 57.6227 7.34594 55.9504 9.41241 55.9504Z" fill="#CAB37A"/>
<path id="Path 1371" d="M110.768 55.9782C112.835 55.9782 114.519 57.6364 114.505 59.7021C114.505 61.7538 112.835 63.412 110.754 63.412C108.688 63.412 107.018 61.7538 107.018 59.688C107.018 57.6223 108.688 55.9641 110.768 55.9641" fill="#CAB37A"/>
<path id="Path 1372" d="M43.0005 94.0605C43.0005 93.9762 43.0288 93.8778 43.0854 93.8075L47.2891 89.114C47.4873 88.9032 47.6571 88.6643 47.7845 88.3973C47.8835 88.1584 47.9402 87.9055 47.9402 87.6525C47.9543 87.3434 47.8552 87.0483 47.6571 86.8234C47.4589 86.5986 47.1617 86.4862 46.8645 86.5002C46.5531 86.5002 46.2559 86.5986 46.0294 86.8094C45.8029 87.1045 45.6755 87.4558 45.6614 87.8211C45.6614 87.9617 45.5906 88.0038 45.4632 87.9757L43.1278 87.6104C43.0146 87.6104 42.9721 87.526 42.9863 87.3996C43.0004 86.9499 43.1137 86.5002 43.3118 86.0927C43.51 85.6852 43.7931 85.3057 44.1328 85.0106C44.4866 84.6874 44.9112 84.4485 45.3642 84.294C45.8737 84.1253 46.4116 84.041 46.9636 84.041C47.5014 84.041 48.0251 84.1253 48.5346 84.294C48.9876 84.4485 49.4122 84.7015 49.766 85.0106C50.1057 85.3198 50.3747 85.7133 50.5445 86.1348C50.7285 86.5705 50.8134 87.0342 50.8134 87.4979C50.8134 88.0741 50.7143 88.6362 50.4737 89.1561C50.219 89.648 49.8934 90.1117 49.5112 90.5052L46.6522 93.667H50.6436C50.7568 93.667 50.8134 93.7232 50.8134 93.8497V95.9576C50.8134 96.0419 50.771 96.1121 50.686 96.1262H43.1137C42.9863 96.1262 42.9297 96.1262 42.9297 95.9576V94.0324L43.0005 94.0605Z" fill="white"/>
<path id="Path 1373" d="M52.8363 93.8503C52.7797 93.7097 52.7373 93.5692 52.7089 93.4146C52.6665 93.2038 52.6382 92.993 52.624 92.7823V87.6952C52.6382 87.4845 52.6665 87.2877 52.7089 87.0769C52.7231 86.9224 52.7656 86.7678 52.8363 86.6273C53.0769 85.8684 53.544 85.222 54.1951 84.7583C55.7096 83.8589 57.6062 83.8589 59.1348 84.7583C59.7859 85.222 60.2671 85.8825 60.5219 86.6273C60.5502 86.7818 60.5785 86.9364 60.6351 87.0769C60.6351 87.2877 60.6776 87.4845 60.7201 87.6952C60.7625 88.0185 60.7625 88.3557 60.7201 88.6789V92.7682C60.7342 92.979 60.72 93.2038 60.6351 93.4006C60.4511 94.3421 59.9133 95.1712 59.149 95.7192C57.6345 96.6186 55.7379 96.6186 54.2093 95.7192C53.5582 95.2555 53.0911 94.595 52.8505 93.8222M55.6954 93.3163C55.9219 93.8503 56.5588 94.1032 57.0966 93.8784C57.3514 93.7659 57.5496 93.5692 57.6628 93.3163C57.6911 93.2319 57.7053 93.1476 57.7336 93.0774V87.3861L57.6628 87.1331C57.4364 86.5991 56.8136 86.3462 56.2616 86.5851C56.0068 86.6835 55.8087 86.8943 55.6954 87.1331C55.6671 87.2175 55.6529 87.3018 55.6388 87.3861C55.6388 87.5407 55.6388 87.6952 55.6388 87.8498V92.6417C55.6388 92.7963 55.6388 92.9368 55.6388 93.0914C55.6388 93.1757 55.6671 93.26 55.6954 93.3303V93.3163Z" fill="white"/>
<path id="Path 1374" d="M62.4619 94.0605C62.4619 93.9762 62.4902 93.8778 62.5468 93.8075L66.7647 89.114C66.9629 88.9032 67.1327 88.6643 67.2459 88.3973C67.3592 88.1584 67.4158 87.9055 67.4158 87.6525C67.4158 87.3574 67.3309 87.0623 67.1327 86.8234C66.9346 86.5986 66.6373 86.4721 66.3259 86.5002C66.0145 86.4862 65.7173 86.5986 65.505 86.8094C65.2785 87.0904 65.137 87.4558 65.1228 87.8211C65.1228 87.9617 65.1229 88.0038 64.9388 87.9757L62.6742 87.6103C62.5893 87.6103 62.5185 87.5401 62.5185 87.4558C62.5185 87.4558 62.5185 87.4136 62.5185 87.3996C62.5327 86.9499 62.6459 86.5002 62.8582 86.0927C63.0564 85.6852 63.3253 85.3057 63.6792 85.0106C64.033 84.6874 64.4576 84.4485 64.9105 84.294C65.9438 83.9567 67.0619 83.9567 68.0952 84.294C68.5481 84.4485 68.9586 84.7015 69.3124 85.0106C69.6521 85.3198 69.921 85.7133 70.105 86.1348C70.289 86.5705 70.3881 87.0342 70.3739 87.4979C70.3739 88.0741 70.2607 88.6362 70.006 89.1561C69.7653 89.648 69.4398 90.1117 69.0435 90.5052L66.1985 93.667H70.1899C70.2749 93.667 70.3598 93.7092 70.3739 93.8075C70.3739 93.8216 70.3739 93.8356 70.3739 93.8497V95.9576C70.3739 96.0419 70.3173 96.1121 70.2324 96.1262H62.6884C62.6176 96.1402 62.5327 96.0981 62.5185 96.0138C62.5185 96.0138 62.5185 95.9716 62.5185 95.9576L62.4619 94.0464V94.0605Z" fill="white"/>
<path id="Path 1375" d="M75.3701 87.4846L73.3461 88.8196C73.3461 88.8196 73.247 88.8336 73.2046 88.8196C73.1479 88.7915 73.1338 88.7353 73.1338 88.6791V86.1355C73.1338 86.0372 73.1762 85.9529 73.2612 85.8826L75.4126 84.379C75.5116 84.3087 75.6249 84.2666 75.7523 84.2666H78.2009C78.2858 84.2525 78.3707 84.3087 78.3849 84.393V96.0004C78.3849 96.1128 78.3849 96.1691 78.2009 96.1691H75.6107C75.5258 96.1691 75.455 96.1269 75.4409 96.0426C75.4409 96.0426 75.4409 96.0145 75.4409 96.0004L75.3984 87.4705L75.3701 87.4846Z" fill="white"/>
<path id="Path 1376" d="M49.3691 49.1353H50.2608V57.3138H49.3833V49.1353H49.3691Z" fill="white"/>
<path id="Path 1377" d="M58.4701 53.772V57.3273H57.6492V53.8282C57.7907 52.8867 57.1397 52.0155 56.1914 51.8749C56.0498 51.8609 55.9224 51.8609 55.7809 51.8749C54.6627 51.7906 53.6861 52.6338 53.6012 53.7439C53.6012 53.8704 53.6012 53.9969 53.6012 54.1233V57.3695H52.7803V51.1723H53.5729V52.2965C54.0966 51.5236 55.0024 51.1021 55.9366 51.1723C57.2388 51.0599 58.3852 52.0155 58.4843 53.3083C58.4843 53.4629 58.4843 53.6175 58.4843 53.758" fill="white"/>
<path id="Path 1378" d="M60.1414 54.208C60.0848 52.5357 61.4152 51.1305 63.0996 51.0883H63.326C64.2885 51.0321 65.2226 51.4959 65.7463 52.2968L65.1236 52.7325C64.7272 52.1423 64.0479 51.791 63.326 51.805C62.0805 51.7488 61.0189 52.7184 60.9765 53.955C60.9765 54.0394 60.9765 54.1237 60.9765 54.208C60.9057 55.4446 61.854 56.5126 63.0996 56.5829H63.326C64.0479 56.611 64.7272 56.2737 65.1236 55.6835L65.7463 56.1191C65.2085 56.9201 64.2885 57.3839 63.326 57.3277C61.6559 57.412 60.2405 56.1472 60.1555 54.5031C60.1555 54.4047 60.1555 54.3064 60.1555 54.208" fill="white"/>
<path id="Path 1379" d="M72.6825 54.5034H67.5022C67.5588 55.74 68.6203 56.6956 69.8659 56.6394H69.9508C70.6726 56.6534 71.3662 56.3583 71.8474 55.8243L72.3145 56.3583C71.0831 57.6652 69.0166 57.7495 67.7003 56.527C67.0634 55.9368 66.6812 55.1077 66.6529 54.2364C66.5539 52.6063 67.8136 51.2151 69.4413 51.1167H69.6819C71.3096 51.0746 72.6542 52.3534 72.6825 53.9694V54.5034ZM67.5022 53.8991H71.9182C71.8757 52.6906 70.8566 51.7491 69.6394 51.8053C68.4929 51.8475 67.5588 52.7609 67.5305 53.8991H67.5163H67.5022Z" fill="white"/>
<path id="Path 1380" d="M80.1137 53.7719V57.3272H79.2786V53.8281C79.4201 52.8866 78.7691 52.0154 77.8208 51.8748C77.6792 51.8608 77.5518 51.8608 77.4103 51.8748C76.2921 51.7905 75.3155 52.6337 75.2306 53.7579C75.2306 53.8843 75.2306 53.9968 75.2306 54.1232V57.3694H74.3955V51.1722H75.1881V52.2964C75.7118 51.5235 76.6035 51.1019 77.5377 51.1722C78.8398 51.0598 79.9863 52.0294 80.0995 53.3222C80.1137 53.4768 80.1137 53.6173 80.0995 53.7579" fill="white"/>
<path id="Path 1381" d="M85.6461 56.9486C85.2781 57.2437 84.811 57.3983 84.3298 57.3842C83.4239 57.4826 82.6171 56.8362 82.5181 55.9368C82.5181 55.8104 82.5181 55.6979 82.5181 55.5715V51.8616H81.3857V51.159H82.5181V49.824H83.3531V51.159H85.2498V51.8616H83.3673V55.5434C83.2824 56.0774 83.6504 56.5832 84.1882 56.6676C84.2873 56.6676 84.3864 56.6676 84.4855 56.6676C84.8251 56.6676 85.1507 56.5551 85.4196 56.3443L85.6602 56.9346L85.6461 56.9486Z" fill="white"/>
<path id="Path 1382" d="M86.9761 49.2187C86.962 48.8815 87.2168 48.6004 87.5565 48.5723H87.6131C87.9245 48.4599 88.2642 48.6285 88.3774 48.9377C88.4906 49.2468 88.3208 49.5841 88.0094 49.6965C87.882 49.7387 87.7405 49.7387 87.6131 49.6965C87.3017 49.7246 87.0328 49.5138 86.9761 49.2187ZM87.1602 51.158H87.9952V57.313H87.1602V51.158Z" fill="white"/>
<path id="Path 1383" d="M95.5236 51.1731L92.7636 57.3281H91.9143L89.1826 51.1731H90.046L92.3106 56.4147L94.6602 51.1731H95.5236Z" fill="white"/>
<path id="Path 1384" d="M101.936 54.5032H96.7561C96.8127 55.7398 97.8743 56.6954 99.1198 56.6392H99.2047C99.9266 56.6673 100.606 56.3582 101.087 55.8242L101.554 56.3581C100.946 57.0327 100.068 57.4121 99.1623 57.3699C97.4638 57.4824 96.006 56.1895 95.8927 54.5173V54.2222C95.8078 52.5921 97.0675 51.1868 98.7235 51.1025H98.9358C100.564 51.0744 101.908 52.3532 101.936 53.9552V54.5032ZM96.7561 53.899H101.186C101.144 52.7466 100.167 51.8332 99.0066 51.8613C97.8601 51.777 96.8552 52.6483 96.7703 53.7865C96.7561 53.8146 96.7561 53.8568 96.7561 53.899Z" fill="white"/>
<path id="Path 1385" d="M56.6587 67.7831H51.4925L50.3602 70.2142H48.9023L53.3325 60.5039H54.7904L59.2347 70.2142H57.7627L56.6587 67.7831ZM56.1775 66.6589L54.0685 61.8951L51.9596 66.6589H56.1775Z" fill="#CAB37A"/>
<path id="Path 1386" d="M71.2797 62.8787L68.5197 70.2141H67.2458L65.1228 64.5931L62.9431 70.2141H61.6692L58.9375 62.8787H60.2114L62.3627 68.7386L64.6274 62.8787H65.7597L67.9394 68.7667L70.1191 62.8787H71.2939H71.2797Z" fill="#CAB37A"/>
<path id="Path 1387" d="M78.2574 65.7865V70.213H76.9694V69.2434C76.4033 69.9882 75.4832 70.3817 74.5491 70.2973C72.8789 70.2973 71.8174 69.412 71.8174 68.1333C71.8174 66.8545 72.5675 65.9692 74.7897 65.9692H76.9269V65.7162C76.9269 64.592 76.2759 63.9456 74.9312 63.9456C74.082 63.9456 73.2611 64.2267 72.5959 64.7325L72.0439 63.7489C72.9355 63.1165 74.0112 62.7792 75.1011 62.8214C77.1109 62.8214 78.2574 63.791 78.2574 65.8005M76.9269 67.9927V66.9669H74.8463C73.5159 66.9669 73.1479 67.4868 73.1479 68.0911C73.1479 68.6954 73.7565 69.2856 74.7755 69.2856C75.6956 69.3558 76.5731 68.8359 76.9269 67.9787" fill="#CAB37A"/>
<path id="Path 1388" d="M84.7116 62.8076V64.0864H84.3861C83.183 63.988 82.1356 64.8874 82.0365 66.0678V66.0959C82.0224 66.2505 82.0224 66.391 82.0365 66.5456V70.2133H80.7061V62.8779H81.9799V64.1145C82.5602 63.2011 83.6218 62.6811 84.7116 62.8076Z" fill="#CAB37A"/>
<path id="Path 1389" d="M93.2749 59.9421V70.2145H92.001V69.0903C91.3924 69.9194 90.4016 70.3832 89.3826 70.341C87.3019 70.2145 85.7167 68.4299 85.8441 66.3641C85.9573 64.4671 87.4859 62.9634 89.3826 62.851C90.3733 62.7948 91.3216 63.2164 91.9586 63.9752V59.9421H93.289H93.2749ZM91.9586 66.5609C91.8878 65.1978 90.713 64.1438 89.3401 64.2141C87.9672 64.2844 86.9056 65.4507 86.9764 66.8138C87.0471 68.1348 88.137 69.1606 89.4675 69.1606C90.8121 69.1887 91.9161 68.1348 91.9586 66.7998C91.9586 66.7155 91.9586 66.6452 91.9586 66.5609Z" fill="#CAB37A"/>
<path id="Path 1390" d="M94.873 69.4409L95.425 68.401C96.2035 68.8929 97.1094 69.1599 98.0294 69.1599C99.2608 69.1599 99.7845 68.7945 99.7845 68.1762C99.7845 66.5321 95.0995 67.9514 95.0995 65.0284C95.0995 63.7075 96.2318 62.78 98.1851 62.78C99.1192 62.78 100.039 62.9908 100.86 63.4405L100.294 64.4804C99.6571 64.0869 98.9211 63.8761 98.1709 63.8902C97.0386 63.8902 96.43 64.2977 96.43 64.8879C96.43 66.6164 101.115 65.1971 101.115 68.0778C101.115 69.3988 99.8977 70.2419 97.9162 70.2419C96.8405 70.2841 95.7789 70.0171 94.873 69.4409Z" fill="#CAB37A"/>
<path id="Rectangle 616" d="M21.8259 49.0652H17.9336V70.2424H21.8259V49.0652Z" fill="white"/>
<path id="Path 1391" d="M37.5641 65.4634H30.0342L27.7696 70.2835H23.4951L31.9025 52.6756L33.6435 49.022L35.4269 52.6335L44.2023 70.2694H39.9703L37.5783 65.4634H37.5641ZM31.7893 61.8519H35.7241L33.7142 57.7486L31.7893 61.8519Z" fill="#CAB37A"/>
<path id="Path 1392" d="M52.7392 15.9146C52.7392 15.9146 52.7392 15.8444 52.7817 15.8444H54.834C55.2728 15.8022 55.7116 15.9287 56.0654 16.2097C56.3343 16.4627 56.4759 16.7999 56.4617 17.1653C56.4617 17.3901 56.4051 17.615 56.2919 17.8117C56.207 17.9944 56.0654 18.149 55.9097 18.2473C56.1079 18.3317 56.2777 18.4722 56.3909 18.6408C56.5325 18.8516 56.6033 19.1045 56.5891 19.3575C56.5891 19.5823 56.5466 19.7931 56.4617 20.0039C56.3768 20.1725 56.2636 20.3271 56.0937 20.4395C55.938 20.566 55.754 20.6503 55.5559 20.6925C55.3153 20.7627 55.0746 20.7908 54.834 20.7768H52.8383C52.8383 20.7768 52.7534 20.7768 52.7534 20.7065L52.7109 15.9006L52.7392 15.9146ZM54.5934 17.8258C54.9897 17.8258 55.1879 17.6571 55.1879 17.3199C55.1879 16.9826 54.9897 16.814 54.5934 16.814H54.0697V17.7414L54.5934 17.8258ZM54.0272 19.7791H54.6217C55.0322 19.7791 55.2303 19.5823 55.2303 19.217C55.2303 19.0624 55.1879 18.9219 55.0888 18.8094C54.9614 18.697 54.7916 18.6549 54.6217 18.6689H54.0272V19.7791Z" fill="white"/>
<path id="Path 1393" d="M57.1689 15.9149C57.1689 15.9149 57.1689 15.8306 57.2397 15.8306H60.5093C60.5093 15.8306 60.58 15.8727 60.58 15.9008V16.8423C60.58 16.8423 60.58 16.8986 60.5376 16.9126H58.5136V17.6714H60.1554C60.1554 17.6714 60.212 17.6714 60.2262 17.6996C60.2262 17.6996 60.2262 17.7136 60.2262 17.7277V18.6551C60.2262 18.6551 60.2262 18.7113 60.1837 18.7254H58.5136V19.5264H60.5093C60.5093 19.5264 60.5659 19.5264 60.58 19.5685V20.5382C60.58 20.5382 60.58 20.5944 60.5376 20.6084H57.2397C57.2397 20.6084 57.1831 20.6084 57.1689 20.5663V20.5382V15.9008V15.9149Z" fill="white"/>
<path id="Path 1394" d="M62.9718 20.8895C62.7736 20.9036 62.5755 20.9036 62.3773 20.8895C62.1792 20.8474 61.9951 20.8052 61.8111 20.735C61.6413 20.6647 61.4856 20.5944 61.3299 20.5101C61.2025 20.4258 61.0751 20.3415 60.9619 20.2431V20.1307L61.613 19.3578H61.7121C61.8819 19.5124 62.0659 19.6248 62.2782 19.7232C62.5047 19.8215 62.7453 19.8777 62.9859 19.8777C63.1699 19.8918 63.3539 19.8496 63.5238 19.7513C63.637 19.667 63.7078 19.5545 63.7078 19.414C63.7078 19.3156 63.6512 19.2173 63.5662 19.1611C63.4105 19.0768 63.2407 19.0205 63.0708 19.0065H62.8161C62.3631 18.9643 61.9244 18.7957 61.5705 18.5147C61.2733 18.2336 61.1034 17.8401 61.1459 17.4326C61.1459 17.2078 61.1884 16.997 61.2874 16.8002C61.3724 16.6176 61.4997 16.4489 61.6554 16.3225C61.8253 16.1819 62.0234 16.0695 62.2358 16.0133C62.4764 15.929 62.7311 15.9009 62.9859 15.9009C63.3256 15.9009 63.6511 15.943 63.9767 16.0414C64.2739 16.1257 64.5429 16.2522 64.7835 16.4349C64.8118 16.463 64.8118 16.5192 64.7835 16.5473L64.2456 17.3483C64.2456 17.3483 64.1607 17.3764 64.1324 17.3483C63.9767 17.2359 63.7927 17.1375 63.6087 17.0672C63.4247 16.997 63.2265 16.9689 63.0142 16.9829C62.8727 16.9829 62.717 17.011 62.6038 17.0953C62.5188 17.1656 62.4622 17.278 62.4622 17.3904C62.4622 17.5029 62.5047 17.6012 62.6038 17.6574C62.7594 17.7558 62.9293 17.798 63.0991 17.812H63.3539C63.8068 17.8542 64.2456 18.0228 64.5995 18.2898C64.8967 18.5849 65.0382 18.9924 65.0099 19.414C65.0099 19.6248 64.9675 19.8496 64.8825 20.0464C64.7835 20.2431 64.6561 20.4117 64.4862 20.5523C64.3022 20.6928 64.0758 20.8052 63.8493 20.8755C63.5662 20.9317 63.2831 20.9598 63.0001 20.9317" fill="white"/>
<path id="Path 1395" d="M66.5531 20.79V17.0099H65.2934V16.0262C65.2934 16.0262 65.2792 15.97 65.2934 15.9419H69.1433V16.9256H67.8694V20.6635H66.7371L66.5531 20.79Z" fill="white"/>
<path id="Path 1396" d="M40.4946 29.4898V25.7659H39.249V24.5854H43.0989V25.5691H41.8109V29.4898H40.5087H40.4946Z" fill="white"/>
<path id="Path 1397" d="M43.4814 24.6551C43.4814 24.6551 43.4814 24.5708 43.5522 24.5708H46.8784C46.8784 24.5708 46.9492 24.5708 46.9492 24.6551V25.5826C46.9492 25.5826 46.9491 25.6669 46.8784 25.6669H44.8685V26.4257H46.5104C46.5104 26.4257 46.5953 26.4257 46.5953 26.496V27.4094C46.5953 27.4094 46.567 27.4797 46.5245 27.4797H44.8827V28.365H46.8925C46.8925 28.365 46.9492 28.365 46.9633 28.4071C46.9633 28.4071 46.9633 28.4212 46.9633 28.4352V29.4892C46.9633 29.4892 46.9633 29.5454 46.935 29.5594C46.935 29.5594 46.9208 29.5594 46.9067 29.5594H43.6371C43.6371 29.5594 43.5805 29.6016 43.5381 29.5876C43.5381 29.5876 43.4956 29.5313 43.5098 29.4892V24.6551H43.4814Z" fill="white"/>
<path id="Path 1398" d="M47.5307 28.3655C47.5024 28.2812 47.4741 28.1969 47.46 28.1126C47.46 28.0283 47.46 27.9299 47.46 27.8456C47.46 27.7191 47.46 27.6067 47.46 27.4802V26.5387C47.46 26.4122 47.46 26.2998 47.46 26.1733C47.46 26.089 47.46 25.9906 47.46 25.9063C47.46 25.822 47.4883 25.7377 47.5307 25.6534C47.644 25.288 47.8846 24.9648 48.196 24.74C48.8895 24.3324 49.7671 24.3324 50.4606 24.74C50.772 24.9367 50.9984 25.2318 51.1258 25.5691C51.1541 25.5972 51.1541 25.6393 51.1258 25.6674L50.1492 26.1452C50.1492 26.1452 50.0784 26.1733 50.0501 26.1452C49.9935 26.0047 49.9086 25.8923 49.7954 25.7799C49.6821 25.6955 49.5406 25.6534 49.3849 25.6534C49.1018 25.6393 48.847 25.822 48.7904 26.089V26.3841C48.7904 26.4684 48.7904 26.5668 48.7904 26.6511V27.5083C48.7904 27.5926 48.7904 27.691 48.7904 27.7753V28.0704C48.8612 28.3374 49.1018 28.5342 49.3849 28.506C49.5264 28.506 49.6821 28.4639 49.7954 28.3796C49.8944 28.2812 49.9794 28.1547 50.0501 28.0142C50.0784 27.9861 50.1209 27.9861 50.1492 28.0142L51.1258 28.4498C51.1258 28.4498 51.1541 28.5201 51.1258 28.5482C50.9984 28.8855 50.7578 29.1806 50.4606 29.3773C49.7671 29.7848 48.8895 29.7848 48.196 29.3773C47.8563 29.1384 47.6157 28.773 47.5307 28.3515" fill="white"/>
<path id="Path 1399" d="M51.6201 24.6551C51.6201 24.6551 51.6343 24.5849 51.6767 24.5708C51.6767 24.5708 51.6909 24.5708 51.705 24.5708H52.8374C52.8374 24.5708 52.9081 24.5708 52.9081 24.6551V26.4117H54.2669V24.6551C54.2669 24.6551 54.2669 24.5708 54.3377 24.5708H55.47C55.47 24.5708 55.5408 24.5849 55.5549 24.627C55.5549 24.627 55.5549 24.6411 55.5549 24.6551V29.4892C55.5549 29.4892 55.5266 29.5594 55.4841 29.5594H54.3518C54.3518 29.5594 54.2952 29.5595 54.2811 29.5173V27.6624H52.9223V29.4892C52.9223 29.4892 52.9223 29.5454 52.8798 29.5594C52.8798 29.5594 52.8657 29.5594 52.8515 29.5594H51.7192C51.7192 29.5594 51.6343 29.5595 51.6343 29.4892V24.6692L51.6201 24.6551Z" fill="white"/>
<path id="Path 1400" d="M56.3906 24.6551C56.3906 24.6551 56.3906 24.5708 56.4614 24.5708H57.5937C57.5937 24.5708 57.707 24.5989 57.7353 24.6551L59.2214 27.4516V24.6551C59.2214 24.6551 59.2214 24.5708 59.2922 24.5708H60.3254C60.3254 24.5708 60.3962 24.5849 60.4104 24.627V29.4751C60.4104 29.4751 60.382 29.5454 60.3396 29.5454H59.2214C59.2214 29.5454 59.1223 29.5313 59.094 29.4751L57.6079 26.6787V29.4751C57.6079 29.4751 57.6079 29.5313 57.5654 29.5454C57.5654 29.5454 57.5513 29.5454 57.5371 29.5454H56.5039C56.5039 29.5454 56.4472 29.5454 56.4331 29.5032V29.4751L56.4048 24.6551H56.3906Z" fill="white"/>
<path id="Path 1401" d="M63.0007 29.616C62.6044 29.616 62.2081 29.5177 61.8684 29.3069C61.5287 29.0961 61.274 28.7729 61.1607 28.3934C61.09 28.2108 61.0616 28.0281 61.0899 27.8313C61.0899 27.7189 61.0899 27.6065 61.0899 27.4941V26.6088C61.0899 26.4823 61.0899 26.3699 61.0899 26.2434C61.0899 26.145 61.0899 26.0607 61.0899 25.9624C61.0899 25.864 61.1041 25.7656 61.1607 25.6813C61.2881 25.3019 61.5287 24.9787 61.8684 24.7679C62.2081 24.5712 62.6044 24.4587 63.0007 24.4587C63.397 24.4587 63.7933 24.5571 64.133 24.7679C64.4727 24.9787 64.7275 25.3019 64.8549 25.6813L64.9256 25.9624C64.9256 26.0607 64.9256 26.145 64.9256 26.2434C64.9256 26.3699 64.9256 26.4823 64.9256 26.6088V27.5081C64.9256 27.6206 64.9256 27.733 64.9256 27.8454C64.9256 27.9438 64.9256 28.0281 64.9256 28.1265L64.8549 28.4075C64.7417 28.7869 64.4727 29.1101 64.133 29.3209C63.7933 29.5177 63.397 29.6301 63.0007 29.6301M63.0007 28.5059C63.1423 28.5059 63.2838 28.4637 63.4112 28.3934C63.5244 28.3091 63.6093 28.1967 63.6518 28.0702V27.9157C63.6518 27.9157 63.6518 27.7892 63.6518 27.7189V26.412C63.6518 26.412 63.6518 26.2856 63.6518 26.2153V26.0748C63.6093 25.9483 63.5244 25.8359 63.4112 25.7516C63.2838 25.6813 63.1423 25.6392 63.0007 25.6392C62.8592 25.6392 62.7176 25.6813 62.5903 25.7516C62.4912 25.8359 62.4063 25.9483 62.3638 26.0748V26.2153C62.3638 26.2153 62.3638 26.3418 62.3638 26.412C62.3638 26.4964 62.3638 26.5947 62.3638 26.679V27.4379C62.3638 27.5222 62.3638 27.6206 62.3638 27.7049C62.3638 27.7751 62.3638 27.8313 62.3638 27.9016V28.0562C62.4063 28.1827 62.477 28.2951 62.5903 28.3794C62.7176 28.4497 62.8592 28.4778 63.0007 28.4778V28.5059Z" fill="white"/>
<path id="Path 1402" d="M65.6342 24.6551C65.6342 24.6551 65.6342 24.5849 65.6767 24.5708C65.6767 24.5708 65.6908 24.5708 65.705 24.5708H66.8373C66.8373 24.5708 66.9081 24.613 66.9081 24.6411V28.3509H69.017C69.017 28.3509 69.0736 28.3509 69.0878 28.379V29.4611C69.0878 29.4611 69.0878 29.5173 69.0453 29.5313C69.0453 29.5313 69.0312 29.5313 69.017 29.5313H65.6201C65.6201 29.5313 65.5352 29.5313 65.5352 29.4611L65.6201 24.627L65.6342 24.6551Z" fill="white"/>
<path id="Path 1403" d="M71.547 29.616C71.1507 29.616 70.7544 29.5177 70.4147 29.3069C70.0608 29.1101 69.8061 28.7729 69.6928 28.3934L69.6221 28.1124C69.6221 28.014 69.6221 27.9297 69.6221 27.8313C69.6221 27.7189 69.6221 27.6065 69.6221 27.4941V26.6088C69.6221 26.4823 69.6221 26.3699 69.6221 26.2434V25.9624L69.6928 25.6813C69.8202 25.3019 70.075 24.9787 70.4147 24.7679C70.7544 24.5712 71.1507 24.4587 71.547 24.4587C71.9433 24.4587 72.3396 24.5571 72.6793 24.7679C73.0049 24.9927 73.2455 25.3159 73.3728 25.6954C73.387 25.7937 73.4153 25.878 73.4436 25.9764C73.4436 26.0748 73.4578 26.1732 73.5003 26.2575C73.5003 26.3839 73.5003 26.4964 73.5003 26.6228V27.8454C73.5003 27.9438 73.5002 28.0421 73.4436 28.1265C73.4436 28.2248 73.4012 28.3091 73.3728 28.4075C73.2596 28.7869 73.0048 29.1101 72.6652 29.3209C72.3255 29.5177 71.9433 29.616 71.547 29.616ZM71.547 28.4918C71.6885 28.4918 71.8301 28.4497 71.9575 28.3794C72.0565 28.2951 72.1415 28.1827 72.1839 28.0562V27.9016C72.1839 27.9016 72.1839 27.7751 72.1839 27.7049C72.1839 27.6206 72.1839 27.5222 72.1839 27.4379V26.679C72.1839 26.5947 72.1839 26.4964 72.1839 26.412C72.1839 26.3418 72.1839 26.2856 72.1839 26.2153V26.0748C72.1415 25.9483 72.0707 25.8359 71.9575 25.7516C71.8301 25.6813 71.6885 25.6392 71.547 25.6392C71.4055 25.6392 71.2639 25.6673 71.1365 25.7516C71.0233 25.8359 70.9384 25.9483 70.8959 26.0748V26.2153C70.8959 26.2153 70.8959 26.3418 70.8959 26.412V27.7189C70.8959 27.7189 70.8959 27.8454 70.8959 27.9157V28.0702C70.9384 28.1967 71.0233 28.3091 71.1365 28.3934C71.2639 28.4637 71.4055 28.5059 71.547 28.4918Z" fill="white"/>
<path id="Path 1404" d="M74.1953 28.3651C74.167 28.2668 74.1387 28.1824 74.1104 28.0841C74.1104 27.9857 74.1104 27.9014 74.1104 27.803C74.1104 27.6906 74.1104 27.5782 74.1104 27.4658V26.5805C74.1104 26.454 74.1104 26.3416 74.1104 26.2151C74.1104 26.1167 74.1104 26.0324 74.1104 25.934C74.1104 25.8357 74.1245 25.7373 74.1953 25.653C74.3085 25.2736 74.5633 24.9504 74.903 24.7396C75.2427 24.5428 75.639 24.4304 76.0353 24.4304C76.4316 24.4304 76.8279 24.5147 77.1676 24.7255C77.4648 24.9082 77.6913 25.1752 77.8328 25.4844C77.8611 25.5125 77.8611 25.5546 77.8328 25.5968L76.8704 26.0043C76.8704 26.0043 76.7996 26.0324 76.7713 26.0043C76.7005 25.8778 76.6014 25.7795 76.4741 25.6951C76.3467 25.6249 76.191 25.5827 76.0494 25.5968C75.9079 25.5968 75.7522 25.6249 75.639 25.7092C75.5257 25.7935 75.455 25.9059 75.4125 26.0324C75.4125 26.0746 75.4125 26.1308 75.4125 26.1729C75.4125 26.2432 75.4125 26.3135 75.4125 26.3697V27.8452C75.4125 27.8452 75.4125 27.9436 75.4125 27.9857C75.455 28.1122 75.5399 28.2387 75.6531 28.3089C75.922 28.4494 76.2476 28.4494 76.5165 28.3089C76.6297 28.2527 76.7288 28.1403 76.7571 27.9998C76.7854 27.9014 76.7854 27.789 76.7571 27.6906H76.2193C76.2193 27.6906 76.1485 27.6625 76.1485 27.6203V26.8475C76.1485 26.8475 76.1485 26.7772 76.2193 26.7772H78.0027C78.0027 26.7772 78.0735 26.8194 78.0735 26.8475V27.2128C78.0876 27.4236 78.0876 27.6344 78.0735 27.8452C78.0735 28.0138 78.031 28.1965 77.9744 28.3651C77.8611 28.7586 77.6205 29.0818 77.2808 29.3067C76.9411 29.5174 76.5448 29.6299 76.1485 29.6299C75.7522 29.6299 75.3559 29.5315 75.0162 29.3207C74.6199 29.124 74.3227 28.7586 74.2094 28.337" fill="white"/>
<path id="Path 1405" d="M79.7576 29.4894C79.7576 29.4894 79.701 29.5035 79.6868 29.4894V27.6485L78.1865 24.6834C78.1865 24.6834 78.1865 24.5991 78.2431 24.5991H79.3754C79.3754 24.5991 79.4745 24.6272 79.5028 24.6834L80.3379 26.3697L81.1447 24.6834C81.1447 24.6834 81.2155 24.5991 81.2721 24.5991H82.4044C82.4044 24.5991 82.4893 24.5991 82.4752 24.6834L80.9607 27.6485V29.4894C80.9607 29.4894 80.9607 29.5456 80.9324 29.5597C80.9324 29.5597 80.9182 29.5597 80.9041 29.5597L79.7718 29.4894H79.7576Z" fill="white"/>
<path id="Path 1406" d="M44.6694 38.2729C44.6694 38.2729 44.5986 38.2448 44.5986 38.2026V33.4107C44.5986 33.4107 44.5986 33.3264 44.6694 33.3264H46.6793C46.9482 33.3264 47.2171 33.3686 47.486 33.4529C47.6984 33.5372 47.8965 33.6637 48.0664 33.8183C48.2221 33.9588 48.3494 34.1415 48.4344 34.3382C48.5193 34.549 48.5476 34.7738 48.5476 34.9987C48.5476 35.2235 48.5051 35.4483 48.4344 35.6591C48.3494 35.8559 48.2221 36.0386 48.0664 36.1791C47.8965 36.3337 47.6984 36.4601 47.486 36.5444C47.2313 36.6288 46.9624 36.6709 46.6934 36.6709H45.9716V38.2026C45.9716 38.2026 45.9716 38.2729 45.9008 38.2729L44.6836 38.301L44.6694 38.2729ZM46.5943 35.5327C46.7642 35.5467 46.934 35.4905 47.0756 35.3781C47.1746 35.2657 47.2313 35.1251 47.2313 34.9706C47.2313 34.816 47.1888 34.6614 47.0756 34.563C46.934 34.4647 46.7642 34.4085 46.5943 34.4225H45.9433V35.4483L46.5943 35.5327Z" fill="white"/>
<path id="Path 1407" d="M51.7195 38.2732C51.7195 38.2732 51.6205 38.2451 51.6063 38.1889L50.8562 36.5026H50.3749V38.1467C50.3749 38.1467 50.3749 38.217 50.3042 38.217H49.1718C49.1718 38.217 49.1011 38.1889 49.0869 38.1467V33.3548C49.0869 33.3548 49.1152 33.2705 49.1577 33.2705H51.1958C51.4506 33.2705 51.7195 33.3127 51.9602 33.397C52.1725 33.4532 52.3706 33.5656 52.5263 33.7202C52.6678 33.8607 52.7952 34.0293 52.866 34.2261C52.9509 34.4228 52.9934 34.6477 52.9934 34.8725C52.9934 35.1676 52.9226 35.4486 52.7811 35.7016C52.6395 35.9405 52.4272 36.1372 52.1725 36.2496L53.0925 38.1467C53.0925 38.1467 53.0925 38.1889 53.0925 38.217L51.7054 38.2732H51.7195ZM51.0685 35.4486C51.2241 35.4627 51.3798 35.4205 51.4931 35.3081C51.6063 35.2098 51.6629 35.0692 51.6488 34.9287C51.6488 34.7882 51.5922 34.6477 51.4931 34.5493C51.3657 34.4509 51.2241 34.4088 51.0685 34.4088H50.3749V35.3643L51.0685 35.4486Z" fill="white"/>
<path id="Path 1408" d="M55.485 38.3705C55.0887 38.3705 54.6924 38.2722 54.3527 38.0614C54.013 37.8506 53.7582 37.5414 53.645 37.162C53.6167 37.0777 53.5884 36.9793 53.5742 36.881C53.5742 36.7826 53.5742 36.6983 53.5742 36.5999V35.3492C53.5742 35.2368 53.5742 35.1244 53.5742 35.012C53.5742 34.9136 53.5742 34.8293 53.5742 34.7309C53.5884 34.6325 53.6167 34.5482 53.645 34.4499C53.7582 34.0704 54.013 33.7472 54.3527 33.5365C54.6924 33.3397 55.0887 33.2273 55.485 33.2273C55.8813 33.2273 56.2776 33.3257 56.6173 33.5365C56.9712 33.7332 57.2259 34.0704 57.3391 34.4499L57.4099 34.7309C57.4099 34.8293 57.4099 34.9136 57.4099 35.012C57.4099 35.1244 57.4099 35.2368 57.4099 35.3492V36.2486C57.4099 36.3751 57.4099 36.4875 57.4099 36.614C57.4099 36.7123 57.4099 36.7966 57.4099 36.895L57.3391 37.1761C57.2118 37.5555 56.957 37.8787 56.6173 38.0754C56.2776 38.2862 55.8813 38.3846 55.485 38.3705ZM55.485 37.2463C55.6265 37.2463 55.7681 37.2182 55.8955 37.1339C56.0087 37.0496 56.0936 36.9372 56.1361 36.8107V34.8293C56.0512 34.5482 55.7822 34.3656 55.4992 34.3937C55.2019 34.3656 54.9471 34.5482 54.8622 34.8293V34.9698C54.8622 34.9698 54.8622 35.0963 54.8622 35.1665C54.8622 35.2509 54.8622 35.3492 54.8622 35.4335V36.1924C54.8622 36.2767 54.8622 36.3751 54.8622 36.4594C54.8622 36.5296 54.8622 36.5859 54.8622 36.6561V36.8107C54.9047 36.9372 54.9896 37.0496 55.0887 37.1339C55.2161 37.2042 55.3576 37.2463 55.4992 37.2323L55.485 37.2463Z" fill="white"/>
<path id="Path 1409" d="M59.3201 38.2728C59.3201 38.2728 59.2351 38.2728 59.221 38.1885L57.6357 33.3966V33.3123H58.8388C58.8388 33.3123 58.9238 33.3404 58.9238 33.3966L59.8154 36.3757L60.6788 33.3966C60.6788 33.3966 60.6788 33.3123 60.7779 33.3123H61.9102C61.9102 33.3123 61.981 33.3123 61.981 33.3966L60.3816 38.1885C60.3816 38.1885 60.325 38.2728 60.2825 38.2728H59.3201Z" fill="white"/>
<path id="Path 1410" d="M62.5186 33.3966C62.5186 33.3966 62.5186 33.3123 62.5893 33.3123H63.7216C63.7216 33.3123 63.7924 33.3263 63.8066 33.3685V38.1885C63.8066 38.1885 63.7924 38.2587 63.75 38.2728H62.6035C62.6035 38.2728 62.5327 38.2728 62.5327 38.1885V33.3966H62.5186Z" fill="white"/>
<path id="Path 1411" d="M64.543 33.3955C64.543 33.3955 64.5571 33.3252 64.5996 33.3111H66.5528C66.9491 33.2971 67.3454 33.3955 67.6851 33.5922C67.9965 33.7889 68.223 34.084 68.3362 34.4353L68.407 34.6742C68.407 34.7585 68.407 34.8569 68.407 34.9412V36.5573C68.407 36.6556 68.407 36.74 68.407 36.8383L68.3362 37.0772C68.2371 37.4285 68.0107 37.7377 67.6851 37.9344C67.3454 38.1312 66.9491 38.2295 66.5528 38.2155H64.6279C64.6279 38.2155 64.5571 38.2155 64.543 38.1733V33.3955ZM65.8451 37.0913H66.2414C66.4254 37.0913 66.6094 37.0632 66.7651 36.9788C66.9067 36.8945 67.0057 36.7681 67.0482 36.6135V36.487C67.0482 36.487 67.0482 36.3746 67.0482 36.3324V35.1661C67.0482 35.1661 67.0482 35.0537 67.0482 35.0115V34.885C67.0057 34.7304 66.9067 34.604 66.7651 34.5197C66.5953 34.4353 66.4254 34.3932 66.2414 34.4072H65.8451V37.0913Z" fill="white"/>
<path id="Path 1412" d="M69.0996 33.3966C69.0996 33.3966 69.1421 33.3123 69.1845 33.3123H72.4541C72.4541 33.3123 72.5249 33.3404 72.5249 33.3825V34.31C72.5249 34.31 72.5249 34.3943 72.4541 34.3943H70.4584V35.1531H72.1002C72.1002 35.1531 72.171 35.1672 72.1852 35.2093C72.1852 35.2093 72.1852 35.2234 72.1852 35.2375V36.2352C72.1852 36.2352 72.171 36.3054 72.1285 36.3195H70.4584V37.1064H72.4541C72.4541 37.1064 72.5249 37.1345 72.5249 37.1767V38.1042C72.5249 38.1042 72.5249 38.1885 72.4541 38.1885H69.1845C69.1845 38.1885 69.0996 38.1463 69.0996 38.1042V33.3825V33.3966Z" fill="white"/>
<path id="Path 1413" d="M75.7943 38.2732C75.7943 38.2732 75.6952 38.2451 75.681 38.1889L74.9309 36.5026H74.4638V38.1467C74.4638 38.1467 74.4496 38.217 74.4072 38.217H73.2466C73.2466 38.217 73.1758 38.1748 73.1758 38.1467V33.3548C73.1758 33.3548 73.1758 33.2705 73.2466 33.2705H75.2847C75.5395 33.2705 75.7943 33.3127 76.049 33.397C76.2613 33.4532 76.4595 33.5656 76.6152 33.7202C76.7709 33.8607 76.8983 34.0293 76.9832 34.2261C77.1672 34.7039 77.1247 35.2379 76.8983 35.7016C76.7567 35.9405 76.5444 36.1372 76.2897 36.2496L77.2097 38.1467C77.2097 38.1467 77.2238 38.1889 77.2097 38.217H77.153L75.8084 38.2732H75.7943ZM75.1432 35.4486C75.2989 35.4486 75.4546 35.4065 75.582 35.3081C75.681 35.2098 75.7376 35.0692 75.7376 34.9287C75.7376 34.7882 75.6952 34.6477 75.582 34.5493C75.4546 34.4509 75.2989 34.4088 75.1432 34.4088H74.4638V35.3643L75.1432 35.4486Z" fill="white"/>
</g>
</g>
</svg>
